<svg xmlns="http://www.w3.org/2000/svg" width="800" height="640" viewBox="0 0 800 640" fill="none">
<title>WideFix technology cloud</title>
<desc>Ruby, Rails, PostgreSQL, React Native, Next.js, React, AWS, GraphQL, Stripe and C connect around a shared product engineering hub.</desc>
<defs>
<linearGradient id="background" x1="0" y1="0" x2="800" y2="640" gradientUnits="userSpaceOnUse"><stop stop-color="#F0F5FA"/><stop offset="1" stop-color="#E4EAF4"/></linearGradient>
<linearGradient id="hub" x1="300" y1="245" x2="500" y2="405" gradientUnits="userSpaceOnUse"><stop stop-color="#244F76"/><stop offset="1" stop-color="#153450"/></linearGradient>
<pattern id="dots" width="28" height="28" patternUnits="userSpaceOnUse"><circle cx="2" cy="2" r="1" fill="#193B5E" opacity=".09"/></pattern>
<filter id="shadow" x="-20%" y="-40%" width="140%" height="190%"><feDropShadow dx="0" dy="5" stdDeviation="8" flood-color="#193B5E" flood-opacity=".08"/></filter>
</defs>
<rect width="800" height="640" rx="28" fill="url(#background)"/>
<rect width="800" height="640" rx="28" fill="url(#dots)"/>
<circle cx="400" cy="320" r="200" stroke="#C8D6E4" stroke-dasharray="4 10"/>
<circle cx="400" cy="320" r="125" stroke="#D1DFE9"/>
<text x="40" y="48" fill="#58708A" font-family="Arial,sans-serif" font-size="12" font-weight="700" letter-spacing="2">THE STACK BEHIND THE WORK</text>
<circle cx="740" cy="43" r="5" fill="#499D78"/>
<g stroke="#A8BFD2" stroke-width="2" stroke-linecap="round">
<path d="M400 260V155M330 280L195 198M310 320H162M330 360L188 447M400 380V477M470 360L595 456M490 320H642M470 280L602 188"/>
</g>
<rect x="288" y="250" width="224" height="140" rx="24" fill="url(#hub)" filter="url(#shadow)"/>
<path d="m375 283 25-14 25 14-25 14-25-14Zm0 0v28l25 14 25-14v-28M400 297v28" stroke="#ABD5E5" stroke-width="2" stroke-linejoin="round"/>
<text x="400" y="350" text-anchor="middle" font-family="Arial,sans-serif" font-size="21" font-weight="700" fill="white">Product engineering</text>
<text x="400" y="373" text-anchor="middle" font-family="Arial,sans-serif" font-size="12" fill="#BBD3E3">Build · Connect · Improve</text>
<g transform="translate(290 95)"><rect width="220" height="64" rx="16" fill="white" stroke="#D7E2EC" filter="url(#shadow)"/><rect x="12" y="12" width="40" height="40" rx="11" fill="#BA3347" fill-opacity=".09"/><g transform="translate(32 32)" stroke="#BA3347" stroke-width="1.8" stroke-linecap="round" stroke-linejoin="round"><path d="M-12 12V1C-12-7-6-12 3-12h8M-4 12V2c0-5 3-7 9-7h6M-15 7h14M-15-2l15 3M-10-11l12 8M3-15l2 11"/></g><text x="64" y="39" font-family="Arial,sans-serif" font-size="18" font-weight="700" fill="#193B5E">Ruby on Rails</text></g><g transform="translate(64 162)"><rect width="184" height="64" rx="16" fill="white" stroke="#D7E2EC" filter="url(#shadow)"/><rect x="12" y="12" width="40" height="40" rx="11" fill="#BA3347" fill-opacity=".09"/><g transform="translate(32 32)" stroke="#BA3347" stroke-width="1.8" stroke-linecap="round" stroke-linejoin="round"><path d="m-13-4 6-8H7l6 8L0 12-13-4Zm0 0h26M-7-12l-2 8L0 12 9-4 7-12"/></g><text x="64" y="39" font-family="Arial,sans-serif" font-size="20" font-weight="700" fill="#193B5E">Ruby</text></g><g transform="translate(40 280)"><rect width="226" height="64" rx="16" fill="white" stroke="#D7E2EC" filter="url(#shadow)"/><rect x="12" y="12" width="40" height="40" rx="11" fill="#336791" fill-opacity=".09"/><g transform="translate(32 32)" stroke="#336791" stroke-width="1.8" stroke-linecap="round" stroke-linejoin="round"><ellipse cy="-9" rx="12" ry="4"/><path d="M-12-9V9c0 6 24 6 24 0V-9M-12 0c0 6 24 6 24 0"/></g><text x="64" y="39" font-family="Arial,sans-serif" font-size="20" font-weight="700" fill="#193B5E">PostgreSQL</text></g><g transform="translate(59 414)"><rect width="232" height="64" rx="16" fill="white" stroke="#D7E2EC" filter="url(#shadow)"/><rect x="12" y="12" width="40" height="40" rx="11" fill="#2786A5" fill-opacity=".09"/><g transform="translate(32 32)" stroke="#2786A5" stroke-width="1.8" stroke-linecap="round" stroke-linejoin="round"><ellipse rx="14" ry="5.5"/><ellipse rx="14" ry="5.5" transform="rotate(60)"/><ellipse rx="14" ry="5.5" transform="rotate(120)"/><circle r="2.5" fill="#2786A5" stroke="none"/></g><text x="64" y="39" font-family="Arial,sans-serif" font-size="18" font-weight="700" fill="#193B5E">React Native</text></g><g transform="translate(289 477)"><rect width="220" height="64" rx="16" fill="white" stroke="#D7E2EC" filter="url(#shadow)"/><rect x="12" y="12" width="40" height="40" rx="11" fill="#2786A5" fill-opacity=".09"/><g transform="translate(32 32)" stroke="#2786A5" stroke-width="1.8" stroke-linecap="round" stroke-linejoin="round"><ellipse rx="14" ry="5.5"/><ellipse rx="14" ry="5.5" transform="rotate(60)"/><ellipse rx="14" ry="5.5" transform="rotate(120)"/><circle r="2.5" fill="#2786A5" stroke="none"/></g><text x="64" y="39" font-family="Arial,sans-serif" font-size="20" font-weight="700" fill="#193B5E">React</text></g><g transform="translate(539 422)"><rect width="196" height="64" rx="16" fill="white" stroke="#D7E2EC" filter="url(#shadow)"/><rect x="12" y="12" width="40" height="40" rx="11" fill="#283648" fill-opacity=".09"/><g transform="translate(32 32)" stroke="#283648" stroke-width="1.8" stroke-linecap="round" stroke-linejoin="round"><circle r="14"/><path d="M-6 7V-7L7 10M6-7v9"/></g><text x="64" y="39" font-family="Arial,sans-serif" font-size="20" font-weight="700" fill="#193B5E">Next.js</text></g><g transform="translate(560 280)"><rect width="200" height="64" rx="16" fill="white" stroke="#D7E2EC" filter="url(#shadow)"/><rect x="12" y="12" width="40" height="40" rx="11" fill="#C17A20" fill-opacity=".09"/><g transform="translate(32 32)" stroke="#C17A20" stroke-width="1.8" stroke-linecap="round" stroke-linejoin="round"><path d="M-12 5h23a5 5 0 0 0 0-10 9 9 0 0 0-17-2 6 6 0 0 0-6 12M-10 11c6 4 14 4 21 0m-4-1 4 1-2 4"/></g><text x="64" y="39" font-family="Arial,sans-serif" font-size="20" font-weight="700" fill="#193B5E">AWS</text></g><g transform="translate(539 158)"><rect width="196" height="64" rx="16" fill="white" stroke="#D7E2EC" filter="url(#shadow)"/><rect x="12" y="12" width="40" height="40" rx="11" fill="#B14486" fill-opacity=".09"/><g transform="translate(32 32)" stroke="#B14486" stroke-width="1.8" stroke-linecap="round" stroke-linejoin="round"><path d="m0-13 11 7v13L0 13-11 7V-6L0-13Zm0 0 11 20H-11L0-13Z"/><g fill="white"><circle cy="-13" r="2.5"/><circle cx="11" cy="7" r="2.5"/><circle cx="-11" cy="7" r="2.5"/></g></g><text x="64" y="39" font-family="Arial,sans-serif" font-size="20" font-weight="700" fill="#193B5E">GraphQL</text></g><g transform="translate(96 527)"><rect width="160" height="64" rx="16" fill="white" stroke="#D7E2EC" filter="url(#shadow)"/><rect x="12" y="12" width="40" height="40" rx="11" fill="#635BCE" fill-opacity=".09"/><g transform="translate(32 32)" stroke="#635BCE" stroke-width="1.8" stroke-linecap="round" stroke-linejoin="round"><path d="M9-9C-8-17-17-2-2 1S11 17-9 10" stroke-width="5"/></g><text x="64" y="39" font-family="Arial,sans-serif" font-size="20" font-weight="700" fill="#193B5E">Stripe</text></g><g transform="translate(574 527)"><rect width="128" height="64" rx="16" fill="white" stroke="#D7E2EC" filter="url(#shadow)"/><rect x="12" y="12" width="40" height="40" rx="11" fill="#486F89" fill-opacity=".09"/><g transform="translate(32 32)" stroke="#486F89" stroke-width="1.8" stroke-linecap="round" stroke-linejoin="round"><path d="M9-9a13 13 0 1 0 0 18" stroke-width="3"/></g><text x="64" y="39" font-family="Arial,sans-serif" font-size="20" font-weight="700" fill="#193B5E">C</text></g><text x="400" y="619" text-anchor="middle" font-family="Arial,sans-serif" font-size="12" fill="#58708A" letter-spacing="1">WEB · MOBILE · DATA · CLOUD</text></svg>