<svg xmlns="http://www.w3.org/2000/svg" viewBox="0 0 64 64"><g data-name="28-Agency"><path style="fill:#ffee6e" d="M47 11h10v2H47z"/><path transform="rotate(-29.745 50.5 6)" style="fill:#ffee6e" d="M46.469 5h8.062v2h-8.062z"/><path transform="rotate(-60.255 50.5 18)" style="fill:#ffee6e" d="M49.5 13.969h2v8.062h-2z"/><path style="fill:#ffee6e" d="M7 11h10v2H7z"/><path transform="rotate(-60.255 13.5 6)" style="fill:#ffee6e" d="M12.5 1.969h2v8.062h-2z"/><path transform="rotate(-29.745 13.499 18)" style="fill:#ffee6e" d="M9.469 17h8.062v2H9.469z"/><path d="m36.707 26.293-1.414 1.414L37.586 30H33v-6h-2v6h-4.586l2.293-2.293-1.414-1.414-4 4A.974.974 0 0 0 23.3 31.7l-.006.006 4 4 1.414-1.414L26.414 32h11.172l-2.293 2.293 1.414 1.414 4-4-.007-.007a.974.974 0 0 0 .006-1.408z" style="fill:#afb4c8"/><path style="fill:#b2876d" d="M26 13h4v8h-4z"/><path style="fill:#966857" d="M28 13h2v8h-2zM27 1v2.73l-4 2.18V1h4z"/><path style="fill:#b2876d" d="M25 1h-2v4.91l2-1.09V1z"/><path style="fill:#a3d4ff" d="M33 13h5v4h-5z"/><path style="fill:#65b1fc" d="M33 15h5v2h-5z"/><path d="M38 13h-5v4h5zm3-3.09V21H30v-8h-4v8h-3V9.91L32 5z" style="fill:#f7f7f7"/><path style="fill:#cfcfcf" d="m32 5-9 4.91v2L32 7l9 4.91v-2L32 5z"/><path style="fill:#ff936b" d="M27 3.73 32 1l11 6v4l-2-1.09L32 5l-9 4.91L21 11V7l2-1.09 4-2.18z"/><path style="fill:#ff7045" d="m32 3-9 4.91L21 9v2l2-1.09L32 5l9 4.91L43 11V9l-2-1.09L32 3z"/><path d="M43 31v2h3c7 0 7-3 7-3a2.938 2.938 0 0 0 3 3h3v-2a8 8 0 0 0-16 0z" style="fill:#966857"/><path d="M53 28a2.938 2.938 0 0 0 3 3h3v2h-3a2.938 2.938 0 0 1-3-3s0 3-7 3h-3v-2h3c7 0 7-3 7-3z" style="fill:#8d5c4d"/><path style="fill:#e9edf5" d="M39 47v16h24V47l-10-2-2 2-2-2-10 2z"/><path style="fill:#cdd2e1" d="m49 45 2 2 2-2 10 2v3l-10-2-2 2-2-2-10 2v-3l10-2z"/><path d="M49 42.59V45l2 2 2-2v-2.41a5.083 5.083 0 0 1-4 0zM56 33v5h1a2.006 2.006 0 0 0 2-2v-3zM43 33v3a2.006 2.006 0 0 0 2 2h1v-5z" style="fill:#faa68e"/><path d="M49 42.59a5 5 0 0 0 5.54-1.05A5.022 5.022 0 0 0 56 38v-5a2.938 2.938 0 0 1-3-3s0 3-7 3v5a5.029 5.029 0 0 0 3 4.59z" style="fill:#ffcdbe"/><path d="M53 30a2.938 2.938 0 0 0 3 3v2a2.938 2.938 0 0 1-3-3s0 3-7 3v-2c7 0 7-3 7-3z" style="fill:#ffbeaa"/><path style="fill:#a3d4ff" d="m50 52-1 6 2 2 2-2-1-6h-2z"/><path style="fill:#65b1fc" d="m48 50 2 2h2l2-2-3-3-3 3z"/><path style="fill:#afb4c8" d="M46.22 45.56 48 50l3-3-2-2-2.78.56zM51 47l3 3 1.78-4.44L53 45l-2 2z"/><path d="M5 31v2h3c7 0 7-3 7-3a2.938 2.938 0 0 0 3 3h3v-2a8 8 0 0 0-16 0z" style="fill:#966857"/><path d="M15 28a2.938 2.938 0 0 0 3 3h3v2h-3a2.938 2.938 0 0 1-3-3s0 3-7 3H5v-2h3c7 0 7-3 7-3z" style="fill:#8d5c4d"/><path style="fill:#9c9c9c" d="M1 47v16h24V47l-10-2-2 2-2-2-10 2z"/><path style="fill:#cfcfcf" d="m11 45 2 2 2-2 10 2v3l-10-2-2 2-2-2-10 2v-3l10-2z"/><path d="M11 42.59V45l2 2 2-2v-2.41a5.083 5.083 0 0 1-4 0zM18 33v5h1a2.006 2.006 0 0 0 2-2v-3zM5 33v3a2.006 2.006 0 0 0 2 2h1v-5z" style="fill:#faa68e"/><path d="M11 42.59a5 5 0 0 0 5.54-1.05A5.022 5.022 0 0 0 18 38v-5a2.938 2.938 0 0 1-3-3s0 3-7 3v5a5.029 5.029 0 0 0 3 4.59z" style="fill:#ffcdbe"/><path d="M15 30a2.938 2.938 0 0 0 3 3v2a2.938 2.938 0 0 1-3-3s0 3-7 3v-2c7 0 7-3 7-3z" style="fill:#ffbeaa"/><path d="M25.2 46.02 16 44.18v-.992A6.007 6.007 0 0 0 18.91 39H19a3 3 0 0 0 3-3v-5a9 9 0 0 0-18 0v5a3 3 0 0 0 3 3h.09A6.007 6.007 0 0 0 10 43.188v.992L.8 46.02A1 1 0 0 0 0 47v16a1 1 0 0 0 1 1h24a1 1 0 0 0 1-1V47a1 1 0 0 0-.8-.98zM19 37v-3h1v2a1 1 0 0 1-1 1zM6 36v-2h1v3a1 1 0 0 1-1-1zm2-4H6v-1a7 7 0 0 1 14 0v1h-2a1.883 1.883 0 0 1-2-2 1.019 1.019 0 0 0-1-1.023.979.979 0 0 0-1 .966v.015c-.017.11-.414 2.042-6 2.042zm1 1.979c2.99-.129 4.7-.84 5.687-1.628A3.963 3.963 0 0 0 17 33.874V38a4 4 0 0 1-8 0zM13 44a6 6 0 0 0 1-.09v.676l-1 1-1-1v-.676a6 6 0 0 0 1 .09zM2 47.819l8.671-1.734L12 47.414V62H2zM24 62H14V47.414l1.329-1.329L24 47.819zM63.2 46.02 54 44.18v-.992A6.007 6.007 0 0 0 56.91 39H57a3 3 0 0 0 3-3v-5a9 9 0 0 0-18 0v5a3 3 0 0 0 3 3h.09A6.007 6.007 0 0 0 48 43.188v.992l-9.2 1.84a1 1 0 0 0-.8.98v16a1 1 0 0 0 1 1h24a1 1 0 0 0 1-1V47a1 1 0 0 0-.8-.98zm-14.525.065.915.915-1.221 1.221L47.6 46.3zm3.258 11.572-.933.929-.929-.929.776-4.657h.306zM51.586 51h-1.172l-1-1L51 48.414 52.586 50zm.828-4 .915-.915 1.071.215-.768 1.921zM57 37v-3h1v2a1 1 0 0 1-1 1zm-13-1v-2h1v3a1 1 0 0 1-1-1zm2-4h-2v-1a7 7 0 0 1 14 0v1h-2a1.883 1.883 0 0 1-2-2 1.019 1.019 0 0 0-1-1.023.979.979 0 0 0-1 .966v.015c-.017.11-.414 2.042-6 2.042zm1 1.979c2.99-.129 4.7-.84 5.687-1.628A3.963 3.963 0 0 0 55 33.874V38a4 4 0 0 1-8 0zM51 44a6 6 0 0 0 1-.09v.676l-1 1-1-1v-.676a6 6 0 0 0 1 .09zm-11 3.819 5.6-1.12 1.469 3.672a.978.978 0 0 0 .227.331l-.005.005 1.636 1.636-.915 5.493a1 1 0 0 0 .279.871L50 60.414V62H40zM62 62H52v-1.586l1.707-1.707a1 1 0 0 0 .279-.871l-.915-5.493 1.636-1.636-.007-.007a.978.978 0 0 0 .227-.331L56.4 46.7l5.6 1.12zM20.489 11.86a1 1 0 0 0 .99.018l.521-.285V21a1 1 0 0 0 1 1h18a1 1 0 0 0 1-1v-9.407l.521.285A1 1 0 0 0 44 11V7a1 1 0 0 0-.521-.878l-11-6a1 1 0 0 0-.958 0L28 2.043V1a1 1 0 0 0-1-1h-4a1 1 0 0 0-1 1v4.316l-1.479.806A1 1 0 0 0 20 7v4a1 1 0 0 0 .489.86zM27 20v-6h2v6zm13 0h-9v-7a1 1 0 0 0-1-1h-4a1 1 0 0 0-1 1v7h-1v-9.5l8-4.364 8 4.364zM24 2h2v1.134l-2 1.091zm-2 5.594 10-5.455 10 5.455v1.721l-9.521-5.193a1 1 0 0 0-.958 0L22 9.315z"/><path d="M32 17a1 1 0 0 0 1 1h5a1 1 0 0 0 1-1v-4a1 1 0 0 0-1-1h-5a1 1 0 0 0-1 1zm2-3h3v2h-3zM47 11h10v2H47zM46.504 7.132l7-4 .992 1.737-7 4zM46.504 16.869l.993-1.737 7 4-.993 1.736zM7 11h10v2H7zM9.504 4.868l.993-1.737 7 4-.993 1.737zM9.504 19.131l7-4 .992 1.737-7 4zM40.7 31.7a.974.974 0 0 0 .006-1.408l-4-4-1.414 1.414L37.586 30H33v-6h-2v6h-4.586l2.293-2.293-1.414-1.414-4 4A.974.974 0 0 0 23.3 31.7l-.006.006 4 4 1.414-1.414L26.414 32h11.172l-2.293 2.293 1.414 1.414 4-4z"/></g></svg>
