<svg xmlns="http://www.w3.org/2000/svg" viewBox="0 0 1000 1000" xml:space="preserve"><switch><g><circle fill="#382B73" cx="500" cy="500" r="398"/><circle fill="#473080" cx="500" cy="500" r="344.3"/><path fill="#382B73" d="M687 522h-49.2v-23.5c0-10.4-3.9-20-10.2-27.3V338.3c0-6.2-3.7-11.5-9.1-13.8-1.6-3.7-4.6-6.6-8.4-8.1-2.2-5.6-7.6-9.7-14-9.7h-78.4l-12.2-12.2-8.6-8.6H303.1c-8.3 0-15.1 6.7-15.1 15.1v349.3c0 6.4 4 11.9 9.7 14 2.2 5.6 7.6 9.7 14 9.7 1 5.1 4.6 9.3 9.4 11.2 1.5 3.8 4.4 6.8 8.1 8.4 2.3 5.3 7.6 9.1 13.8 9.1h51V729c0 13.8 11.2 25 25 25h268c13.8 0 25-11.2 25-25V547c0-13.8-11.2-25-25-25z"/><g><path fill="#1CAEE4" d="M612.5 303.3H343c-8.3 0-15.1 6.7-15.1 15.1v349.3c0 8.3 6.7 15.1 15.1 15.1h269.5c8.3 0 15.1-6.7 15.1-15.1V318.3c-.1-8.3-6.8-15-15.1-15z"/><path fill="#009ADD" d="M604.6 295.5H335.1c-8.3 0-15.1 6.7-15.1 15.1v349.3c0 8.3 6.7 15.1 15.1 15.1h269.5c8.3 0 15.1-6.7 15.1-15.1V310.5c0-8.3-6.7-15-15.1-15z"/><path fill="#EF5A9D" d="M596 286.8H326.5c-8.3 0-15.1 6.7-15.1 15.1v349.3c0 8.3 6.7 15.1 15.1 15.1H596c8.3 0 15.1-6.7 15.1-15.1V301.9c0-8.3-6.8-15.1-15.1-15.1z"/><path fill="#E43D91" d="M505.4 274.6H311.7c-8.3 0-15.1 6.7-15.1 15.1V639c0 8.3 6.7 15.1 15.1 15.1h269.5c8.3 0 15.1-6.7 15.1-15.1V365.5l-90.9-90.9z"/><path fill="#FFF" d="M587.6 356.9v273.5c0 8.3-6.7 15.1-15.1 15.1H303.1c-8.3 0-15.1-6.7-15.1-15.1V281c0-8.3 6.7-15.1 15.1-15.1h193.7l90.8 91z"/><path fill="#F06EA9" d="M538.5 502c0 53.4-43.3 96.6-96.6 96.6-53.4 0-96.6-43.3-96.6-96.6 0-26.7 10.8-50.8 28.3-68.3s41.6-28.3 68.3-28.3c53.3 0 96.6 43.2 96.6 96.6z"/><path fill="#E43D91" d="M538.5 502h-96.6v-96.6c53.3 0 96.6 43.2 96.6 96.6z"/><path fill="#EF5A9D" d="M441.8 405.4V502l-68.3-68.3c17.5-17.5 41.7-28.3 68.3-28.3z"/><path fill="#E6E7E8" d="M387.8 360.1c-1.6-3-4-5.7-7.2-7.9-3-2-7.5-4.1-13.7-6.2-6.6-2.2-9.6-4.2-11-5.5-1.6-1.5-2.4-3.6-2.4-6.5 0-3 .9-5.3 2.7-7 1.9-1.8 4.6-2.7 8.4-2.7 3.5 0 6.2 1.1 8.1 3.3 2.1 2.4 3.1 5.6 3.1 9.8v4h13.9v-4c0-7.6-1.9-13.7-5.8-18.3-3.2-3.8-7.5-6.3-12.7-7.4V301h-13.1v10.6c-5 1-9.2 3.2-12.5 6.5-4.1 4.1-6.1 9.5-6.1 16 0 6.2 1.9 11.4 5.6 15.3 3.5 3.8 9.3 6.9 17.5 9.5 6.8 2.4 9.8 4.4 11.2 5.7 1.6 1.6 2.4 3.6 2.4 6.2 0 2.9-1 5.1-3.1 6.9-2.3 1.9-5.2 2.9-9 2.9-4.4 0-7.6-1.1-9.9-3.3-2.3-2.2-3.3-5.3-3.3-9.4v-4h-14v4c0 7.6 2.2 13.8 6.6 18.3 3.6 3.7 8.5 6.1 14.4 7.1v9.9h13v-10c5.2-1 9.6-3.1 12.9-6.4 4.2-4.1 6.3-9.5 6.3-16.1.1-3.9-.7-7.5-2.3-10.6z"/><path fill="#1CAEE4" d="M387.8 355.5c-1.6-3-4-5.7-7.2-7.9-3-2-7.5-4.1-13.7-6.2-6.6-2.2-9.6-4.2-11-5.5-1.6-1.5-2.4-3.6-2.4-6.5 0-3 .9-5.3 2.7-7 1.9-1.8 4.6-2.7 8.4-2.7 3.5 0 6.2 1.1 8.1 3.3 2.1 2.4 3.1 5.6 3.1 9.8v4h13.9v-4c0-7.6-1.9-13.7-5.8-18.3-3.2-3.8-7.5-6.3-12.7-7.4v-10.7h-13.1V307c-5 1-9.2 3.2-12.5 6.5-4.1 4.1-6.1 9.5-6.1 16 0 6.2 1.9 11.4 5.6 15.3 3.5 3.8 9.3 6.9 17.5 9.5 6.8 2.4 9.8 4.4 11.2 5.7 1.6 1.6 2.4 3.6 2.4 6.2 0 2.9-1 5.1-3.1 6.9-2.3 1.9-5.2 2.9-9 2.9-4.4 0-7.6-1.1-9.9-3.3-2.3-2.2-3.3-5.3-3.3-9.4v-4h-14v4c0 7.6 2.2 13.8 6.6 18.3 3.6 3.7 8.5 6.1 14.4 7.1v9.9h13v-10c5.2-1 9.6-3.1 12.9-6.4 4.2-4.1 6.3-9.5 6.3-16.1.1-3.9-.7-7.5-2.3-10.6z"/><g fill="#009ADD"><path d="M358 384.3c-6-1-10.8-3.4-14.4-7.1-4.3-4.4-6.5-10.4-6.6-17.7v4c0 7.6 2.2 13.8 6.6 18.3 3.6 3.7 8.5 6.1 14.4 7.1v-4.6zM353.5 324.9c0 .8.1 1.6.2 2.3.4-1.9 1.2-3.5 2.5-4.8 1.9-1.8 4.6-2.7 8.4-2.7 3.5 0 6.2 1.1 8.1 3.3 2.1 2.4 3.1 5.6 3.1 9.8v4h13.9v-4.6h-13.9v-4c0-4.3-1-7.5-3.1-9.8-1.9-2.2-4.6-3.3-8.1-3.3-3.7 0-6.5.9-8.4 2.7-1.8 1.8-2.7 4.1-2.7 7.1zM362.7 354.4c6.8 2.4 9.8 4.4 11.2 5.7 1.1 1.1 1.8 2.4 2.2 3.9.2-.7.2-1.5.2-2.3 0-2.6-.8-4.6-2.4-6.2-1.3-1.3-4.4-3.4-11.2-5.7-8.3-2.6-14-5.7-17.5-9.5-3.3-3.5-5.1-7.9-5.5-13.1-.1.7-.1 1.5-.1 2.3 0 6.2 1.9 11.4 5.6 15.3 3.5 3.9 9.2 7 17.5 9.6zM358 394.2h13v4.6h-13zM383.9 377.8c-3.3 3.3-7.7 5.4-12.9 6.4v4.6c5.2-1 9.6-3.1 12.9-6.4 4.2-4.1 6.3-9.5 6.3-16.1 0-.8 0-1.5-.1-2.2-.4 5.5-2.5 10.1-6.2 13.7z"/></g><path fill="#D1D3D4" d="M475.1 379.8h-63.2c-3.4 0-6.2-2.8-6.2-6.2v-2c0-3.4 2.8-6.2 6.2-6.2h63.2c3.4 0 6.2 2.8 6.2 6.2v2c-.1 3.4-2.8 6.2-6.2 6.2zM475.1 355.1h-63.2c-3.4 0-6.2-2.8-6.2-6.2v-2c0-3.4 2.8-6.2 6.2-6.2h63.2c3.4 0 6.2 2.8 6.2 6.2v2c-.1 3.4-2.8 6.2-6.2 6.2zM453.5 330.3h-41.7c-3.4 0-6.2-2.8-6.2-6.2v-2c0-3.4 2.8-6.2 6.2-6.2h41.7c3.4 0 6.2 2.8 6.2 6.2v2c0 3.5-2.8 6.2-6.2 6.2zM587.6 356.9h-75.8c-8.3 0-15.1-6.7-15.1-15.1V266l90.9 90.9zM534.3 567.1h-55.7c-3.9 0-7-3.1-7-7v-2.3c0-3.9 3.1-7 7-7h55.7c3.9 0 7 3.1 7 7v2.3c-.1 3.9-3.2 7-7 7z"/><g fill="#D1D3D4"><path d="M572.6 645.4c8.3 0 15.1-6.7 15.1-15.1V512h-89.4v-10h-30v10H419c-13.8 0-25 11.2-25 25v108.4h178.6zM535.1 476.7h52.5v-30H521c6.4 9 11.2 19.1 14.1 30z"/></g><path fill="#A72973" d="M595.9 446.7h-8.3v30h8.3c6.5 0 11.8 5.3 11.8 11.8V512h-20.1v118.4c0 8.3-6.7 15.1-15.1 15.1H394v37.3h218.5c8.3 0 15.1-6.7 15.1-15.1V461.1c-7.7-8.8-19.1-14.4-31.7-14.4zM498.2 502v-13.5c0-6.5 5.3-11.8 11.8-11.8h25.1c-2.9-10.9-7.7-21-14-30h-11c-23.1 0-41.8 18.8-41.8 41.8V502h29.9z"/><g><path fill="#E7AD27" d="M712 557v152c0 13.8-11.2 25-25 25H419c-13.8 0-25-11.2-25-25V557c0-13.8 11.2-25 25-25h268c13.8 0 25 11.2 25 25z"/><path fill="#FEDE3A" d="M712 527v152c0 13.8-11.2 25-25 25H419c-13.8 0-25-11.2-25-25V527c0-13.8 11.2-25 25-25h268c13.8 0 25 11.2 25 25z"/><path fill="#E7AD27" d="M712 537v51c0 13.8-11.2 25-25 25H419c-13.8 0-25-11.2-25-25v-51c0-13.8 11.2-25 25-25h268c13.8 0 25 11.2 25 25z"/><path fill="#F7CB15" d="M712 527v51c0 13.8-11.2 25-25 25H419c-13.8 0-25-11.2-25-25v-51c0-13.8 11.2-25 25-25h268c13.8 0 25 11.2 25 25z"/><path fill="#FEDE3A" d="M687 502H419c-13.8 0-25 11.2-25 25v10c0-13.8 11.2-25 25-25h268c13.8 0 25 11.2 25 25v-10c0-13.8-11.2-25-25-25z"/><path fill="#F7CB15" d="M488.7 637h-11c-5.5 0-10-4.5-10-10v-28c0-5.5 4.5-10 10-10h11c5.5 0 10 4.5 10 10v28c0 5.5-4.5 10-10 10z"/><path fill="#FFF" d="M488.7 627h-11c-5.5 0-10-4.5-10-10v-28c0-5.5 4.5-10 10-10h11c5.5 0 10 4.5 10 10v28c0 5.5-4.5 10-10 10z"/><path fill="#D1D3D4" d="M488.7 617h-11c-5.5 0-10-4.5-10-10v10c0 5.5 4.5 10 10 10h11c5.5 0 10-4.5 10-10v-10c0 5.5-4.5 10-10 10z"/><path fill="#F7CB15" d="M628.2 637h-11c-5.5 0-10-4.5-10-10v-28c0-5.5 4.5-10 10-10h11c5.5 0 10 4.5 10 10v28c0 5.5-4.4 10-10 10z"/><path fill="#FFF" d="M628.2 627h-11c-5.5 0-10-4.5-10-10v-28c0-5.5 4.5-10 10-10h11c5.5 0 10 4.5 10 10v28c0 5.5-4.4 10-10 10z"/><path fill="#D1D3D4" d="M628.2 617h-11c-5.5 0-10-4.5-10-10v10c0 5.5 4.5 10 10 10h11c5.5 0 10-4.5 10-10v-10c0 5.5-4.4 10-10 10z"/><g><path fill="#F7CB15" d="M637.7 502h-30v-23.5c0-6.5-5.3-11.8-11.8-11.8H510c-6.5 0-11.8 5.3-11.8 11.8V502h-30v-23.5c0-23.1 18.8-41.8 41.8-41.8h85.9c23.1 0 41.8 18.8 41.8 41.8V502z"/></g><path fill="#FEDE3A" d="M595.9 436.7H510c-23.1 0-41.8 18.8-41.8 41.8V502h6.7v-21.3c0-21.2 17.3-38.5 38.5-38.5h79.1c21.2 0 38.5 17.3 38.5 38.5V502h6.7v-23.5c0-23.1-18.7-41.8-41.8-41.8z"/><path fill="#E7AD27" d="M622.7 502v-23.5c0-14.8-12-26.8-26.8-26.8H510c-14.8 0-26.8 12-26.8 26.8V502h15v-23.5c0-6.5 5.3-11.8 11.8-11.8h85.9c6.5 0 11.8 5.3 11.8 11.8V502h15z"/></g></g></g></switch></svg>
