<svg xmlns="http://www.w3.org/2000/svg" viewBox="0 0 1000 1000" xml:space="preserve"><switch><g><circle fill="#39276B" cx="500" cy="500" r="398"/><circle fill="#472A77" cx="500" cy="500" r="344.3"/><path fill="#39276B" d="m681.8 545.8 12.1-12.1H718c4.4 6.4 11.8 10.6 20.2 10.6 13.5 0 24.4-10.9 24.4-24.4 0-13.5-10.9-24.4-24.4-24.4-8.4 0-15.8 4.2-20.2 10.6h-24.1L681.8 494h-32.1v-30.3h32.1l12.1-12.1H718c4.4 6.4 11.8 10.6 20.2 10.6 13.5 0 24.4-10.9 24.4-24.4s-10.9-24.4-24.4-24.4c-8.4 0-15.8 4.2-20.2 10.6h-24.1l-12.1-12.1h-32.1v-9.5c0-18.8-15.2-34-34-34H384.3c-18.8 0-34 15.2-34 34v9.5h-32.1L306.1 424H282c-4.4-6.4-11.8-10.6-20.2-10.6-13.5 0-24.4 10.9-24.4 24.4s10.9 24.4 24.4 24.4c8.4 0 15.8-4.2 20.2-10.6h24.1l12.1 12.1h32.1V494h-32.1l-12.1 12.1H282c-4.4-6.4-11.8-10.6-20.2-10.6-13.5 0-24.4 10.9-24.4 24.4 0 13.5 10.9 24.4 24.4 24.4 8.4 0 15.8-4.2 20.2-10.6h24.1l12.1 12.1h32.1v30.3h-32.1l-12.1 12.1H282c-4.4-6.4-11.8-10.6-20.2-10.6-13.5 0-24.4 10.9-24.4 24.4 0 13.5 10.9 24.4 24.4 24.4 8.4 0 15.8-4.2 20.2-10.6h24.1l12.1 12.1h32.1v33c0 18.8 15.2 34 34 34h7.7v4.9l12.1 12.1V736c-6.4 4.4-10.6 11.8-10.6 20.2 0 13.5 10.9 24.4 24.4 24.4 13.5 0 24.4-10.9 24.4-24.4 0-8.4-4.2-15.8-10.6-20.2v-24l12.1-12.1V695h30.3v4.9l12.1 12.1v24c-6.4 4.4-10.6 11.8-10.6 20.2 0 13.5 10.9 24.4 24.4 24.4 13.5 0 24.4-10.9 24.4-24.4 0-8.4-4.2-15.8-10.6-20.2v-24l12.1-12.1V695h30.3v4.9l12.1 12.1v24c-6.4 4.4-10.6 11.8-10.6 20.2 0 13.5 10.9 24.4 24.4 24.4 13.5 0 24.4-10.9 24.4-24.4 0-8.4-4.2-15.8-10.6-20.2v-24l12.1-12.1V695h7.7c18.8 0 34-15.2 34-34v-33h32.1l12.1-12.1H718c4.4 6.4 11.8 10.6 20.2 10.6 13.5 0 24.4-10.9 24.4-24.4 0-13.5-10.9-24.4-24.4-24.4-8.4 0-15.8 4.2-20.2 10.6h-24.1l-12.1-12.1h-32.1v-30.3h32.1zM568.3 368.4H608v-32.1l-12.1-12.1V300c6.4-4.4 10.6-11.8 10.6-20.2 0-13.5-10.9-24.4-24.4-24.4-13.5 0-24.4 10.9-24.4 24.4 0 8.4 4.2 15.8 10.6 20.2v24.1l-12.1 12.1v32.1h12.1zM486.2 368.4h39.7v-32.1l-12.1-12.1V300c6.4-4.4 10.6-11.8 10.6-20.2 0-13.5-10.9-24.4-24.4-24.4-13.5 0-24.4 10.9-24.4 24.4 0 8.4 4.2 15.8 10.6 20.2v24.1l-12.1 12.1v32.1h12.1zM404.1 368.4h39.7v-32.1l-12.1-12.1V300c6.4-4.4 10.6-11.8 10.6-20.2 0-13.5-10.9-24.4-24.4-24.4-13.5 0-24.4 10.9-24.4 24.4 0 8.4 4.2 15.8 10.6 20.2v24.1L392 336.2v32.1h12.1z"/><g><path fill="#AB226B" d="M615.7 674.9H384.3c-18.8 0-34-15.2-34-34V409.6c0-18.8 15.2-34 34-34h231.3c18.8 0 34 15.2 34 34v231.3c.1 18.8-15.2 34-33.9 34z"/><path fill="#EA5095" d="M615.7 647.7H384.3c-18.8 0-34-15.2-34-34V382.4c0-18.8 15.2-34 34-34h231.3c18.8 0 34 15.2 34 34v231.3c.1 18.8-15.2 34-33.9 34z"/><path fill="#AB226B" d="M608.3 627H391.7c-6.1 0-11.1-5-11.1-11.1V399.3c0-6.1 5-11.1 11.1-11.1h216.6c6.1 0 11.1 5 11.1 11.1v216.6c0 6.2-4.9 11.1-11.1 11.1z"/><path fill="#E23187" d="M608.3 617.5H391.7c-6.1 0-11.1-5-11.1-11.1V389.8c0-6.1 5-11.1 11.1-11.1h216.6c6.1 0 11.1 5 11.1 11.1v216.6c0 6.1-4.9 11.1-11.1 11.1z"/><path fill="#E23187" d="M544.3 519.4c-2-4.7-5-8.9-8.8-12.5-3.6-3.3-8.1-6.3-13.2-8.7-4.8-2.3-10.1-4.4-16-6.3-5.6-1.9-10.2-3.7-13.7-5.6-3.2-1.7-5.7-3.4-7.4-5.2-1.5-1.5-2.5-3-3-4.6-.6-1.9-.9-4.2-.9-6.8 0-2.6.4-5 1.2-7.2.8-2.1 1.9-3.8 3.4-5.4 1.5-1.5 3.6-2.8 6.1-3.7 2.6-1 5.9-1.5 9.7-1.5 3.5 0 6.5.6 9.1 1.7 2.5 1.1 4.5 2.6 6.2 4.6 1.7 2.1 3.1 4.6 4 7.5 1 3.1 1.4 6.5 1.4 10.3v2.1c0 2.5 2 4.5 4.5 4.5h14.9c2.5 0 4.5-2 4.5-4.5V476c0-6.7-.9-12.8-2.6-18.2-1.8-5.6-4.4-10.5-7.8-14.5-3.4-4.1-7.7-7.4-12.6-9.8-1.7-.8-3.5-1.5-5.3-2.1-2.9-.9-4.9-3.5-4.9-6.5v-9.3c0-2.5-2-4.5-4.5-4.5h-13.4c-2.5 0-4.5 2-4.5 4.5v9.1c0 3.1-2.1 5.7-5 6.6-1.7.5-3.3 1.1-4.8 1.8-4.9 2.1-9.1 5-12.6 8.5-3.5 3.6-6.3 7.9-8.2 12.7-1.9 4.8-2.8 10.1-2.8 15.8 0 6.3 1 11.9 3.1 16.6 2 4.8 5 9 8.9 12.6 3.7 3.4 8.1 6.3 13.2 8.8 4.8 2.3 10.2 4.4 16.1 6.2 5.1 1.8 9.5 3.6 12.9 5.4 3.1 1.6 5.6 3.4 7.4 5.1 1.6 1.6 2.7 3.2 3.3 4.9.7 1.9 1.1 4.1 1.1 6.6s-.5 4.8-1.4 7c-.9 2.1-2.2 3.9-4 5.5-1.8 1.6-4.2 3-6.9 4-2.8 1-6.2 1.5-9.9 1.5-3 0-6.2-.4-9.3-1.2-2.8-.7-5.3-1.9-7.5-3.7-2.2-1.7-3.9-3.9-5.4-6.9-1.4-2.9-2.1-6.8-2.1-11.5v-2.1c0-2.5-2-4.5-4.5-4.5h-15c-2.5 0-4.5 2-4.5 4.5v2.1c0 7.8 1.3 14.7 3.8 20.4 2.5 5.7 6 10.5 10.2 14.3 4.2 3.7 9 6.4 14.4 8.2 1.4.5 2.9.9 4.3 1.3 3 .8 5.2 3.5 5.2 6.6v7.7c0 2.5 2 4.5 4.5 4.5h13.3c2.5 0 4.5-2 4.5-4.5v-7.9c0-3.1 2.1-5.8 5.1-6.6 1.7-.5 3.3-1 4.9-1.7 5-2 9.4-4.8 13.1-8.3 3.7-3.6 6.6-7.8 8.5-12.7 1.9-4.8 2.9-10.2 2.9-16.1-.1-6.5-1.1-12.1-3.2-16.8z"/><path fill="#FFF" d="M544.3 510.3c-2-4.7-5-8.9-8.8-12.5-3.6-3.3-8.1-6.3-13.2-8.7-4.8-2.3-10.1-4.4-16-6.3-5.6-1.9-10.2-3.7-13.7-5.6-3.2-1.7-5.7-3.4-7.4-5.2-1.5-1.5-2.5-3-3-4.6-.6-1.9-.9-4.2-.9-6.8 0-2.6.4-5 1.2-7.2.8-2.1 1.9-3.8 3.4-5.4 1.5-1.5 3.6-2.8 6.1-3.7 2.6-1 5.9-1.5 9.7-1.5 3.5 0 6.5.6 9.1 1.7 2.5 1.1 4.5 2.6 6.2 4.6 1.7 2.1 3.1 4.6 4 7.5 1 3.1 1.4 6.5 1.4 10.3v2.1c0 2.5 2 4.5 4.5 4.5h14.9c2.5 0 4.5-2 4.5-4.5v-2.1c0-6.7-.9-12.8-2.6-18.2-1.8-5.6-4.4-10.5-7.8-14.5-3.4-4.1-7.7-7.4-12.6-9.8-1.7-.8-3.5-1.5-5.3-2.1-2.9-.9-4.9-3.5-4.9-6.5v-9.3c0-2.5-2-4.5-4.5-4.5h-13.4c-2.5 0-4.5 2-4.5 4.5v9.1c0 3.1-2.1 5.7-5 6.6-1.7.5-3.3 1.1-4.8 1.8-4.9 2.1-9.1 5-12.6 8.5-3.5 3.6-6.3 7.9-8.2 12.7-1.9 4.8-2.8 10.1-2.8 15.8 0 6.3 1 11.9 3.1 16.6 2 4.8 5 9 8.9 12.6 3.7 3.4 8.1 6.3 13.2 8.8 4.8 2.3 10.2 4.4 16.1 6.2 5.1 1.8 9.5 3.6 12.9 5.4 3.1 1.6 5.6 3.4 7.4 5.1 1.6 1.6 2.7 3.2 3.3 4.9.7 1.9 1.1 4.1 1.1 6.6s-.5 4.8-1.4 7c-.9 2.1-2.2 3.9-4 5.5-1.8 1.6-4.2 3-6.9 4-2.8 1-6.2 1.5-9.9 1.5-3 0-6.2-.4-9.3-1.2-2.8-.7-5.3-1.9-7.5-3.7-2.2-1.7-3.9-3.9-5.4-6.9-1.4-2.9-2.1-6.8-2.1-11.5v-2.1c0-2.5-2-4.5-4.5-4.5h-15c-2.5 0-4.5 2-4.5 4.5v2.1c0 7.8 1.3 14.7 3.8 20.4 2.5 5.7 6 10.5 10.2 14.3 4.2 3.7 9 6.4 14.4 8.2 1.4.5 2.9.9 4.3 1.3 3 .8 5.2 3.5 5.2 6.6v7.7c0 2.5 2 4.5 4.5 4.5h13.3c2.5 0 4.5-2 4.5-4.5v-7.9c0-3.1 2.1-5.8 5.1-6.6 1.7-.5 3.3-1 4.9-1.7 5-2 9.4-4.8 13.1-8.3 3.7-3.6 6.6-7.8 8.5-12.7 1.9-4.8 2.9-10.2 2.9-16.1-.1-6.5-1.1-12-3.2-16.8z"/><path fill="#DADADA" d="M482.5 447.8c-.8 2.2-1.2 4.6-1.2 7.2 0 1.1.1 2.1.2 3 .2-1.6.5-3.1 1-4.5.8-2.1 1.9-3.8 3.4-5.4 1.5-1.5 3.6-2.8 6.1-3.7 2.6-1 5.9-1.5 9.7-1.5 3.5 0 6.5.6 9.1 1.7 2.5 1.1 4.5 2.6 6.2 4.6 1.7 2.1 3.1 4.6 4 7.5 1 3.1 1.4 6.5 1.4 10.3v2.1c0 2.5 2 4.5 4.5 4.5h14.9c2.5 0 4.5-2 4.5-4.5V467c0-1 0-2-.1-2.9-.3 2.2-2.2 3.9-4.5 3.9h-14.9c-2.5 0-4.5-2-4.5-4.5v-2.1c0-3.7-.5-7.2-1.4-10.3-.9-2.9-2.2-5.4-4-7.5-1.7-2-3.7-3.5-6.2-4.6-2.5-1.1-5.6-1.7-9.1-1.7-3.8 0-7 .5-9.7 1.5-2.5.9-4.5 2.2-6.1 3.7-1.4 1.4-2.5 3.2-3.3 5.3zM469.2 490c3.7 3.4 8.1 6.3 13.2 8.8 4.8 2.3 10.2 4.4 16.1 6.2 5.1 1.8 9.5 3.6 12.9 5.4 3.1 1.6 5.6 3.4 7.4 5.1 1.6 1.6 2.7 3.2 3.3 4.9.4 1.1.7 2.3.9 3.6.1-.9.2-1.8.2-2.7 0-2.5-.4-4.7-1.1-6.6-.7-1.7-1.7-3.3-3.3-4.9-1.8-1.8-4.3-3.5-7.4-5.1-3.4-1.8-7.8-3.6-12.9-5.4-5.9-1.9-11.3-4-16.1-6.2-5.1-2.4-9.6-5.4-13.2-8.8-3.9-3.6-6.8-7.8-8.9-12.6-1.7-4-2.7-8.6-3-13.7-.1.9-.1 1.8-.1 2.8 0 6.3 1 11.9 3.1 16.6 2.1 4.8 5.1 9.1 8.9 12.6zM544.5 537.2c-2 4.9-4.8 9.1-8.5 12.7-3.6 3.5-8 6.3-13.1 8.3-1.6.6-3.2 1.2-4.9 1.7-3 .8-5.1 3.5-5.1 6.6v5.7c0-3.1 2.1-5.8 5.1-6.6 1.7-.5 3.3-1 4.9-1.7 5-2 9.4-4.8 13.1-8.3 3.7-3.6 6.6-7.8 8.5-12.7 1.9-4.8 2.9-10.2 2.9-16.1 0-1 0-1.9-.1-2.9-.3 4.8-1.2 9.3-2.8 13.3zM490.5 566.7c0-3.1-2.1-5.8-5.2-6.6-1.4-.4-2.9-.8-4.3-1.3-5.4-1.8-10.2-4.6-14.4-8.2-4.3-3.7-7.7-8.5-10.2-14.3-2.2-5-3.4-10.8-3.7-17.4 0 .2-.1.4-.1.6v2.1c0 7.8 1.3 14.7 3.8 20.4 2.5 5.7 6 10.5 10.2 14.3 4.2 3.7 9 6.4 14.4 8.2 1.4.5 2.9.9 4.3 1.3 3 .8 5.2 3.5 5.2 6.6v-5.7zM508.3 579H495c-2.5 0-4.5-2-4.5-4.5v5.7c0 2.5 2 4.5 4.5 4.5h13.3c2.5 0 4.5-2 4.5-4.5v-5.7c.1 2.4-2 4.5-4.5 4.5z"/><g><circle fill="#EA5095" cx="738.2" cy="417.8" r="24.4"/><path fill="#E23187" d="M736.5 431.6h-42.6l-12.1 12.1h-32.1v-51.8h32.1l12.1 12.1h42.6c7.6 0 13.8 6.2 13.8 13.8 0 7.6-6.2 13.8-13.8 13.8z"/><path fill="#AB226B" d="M736.5 419.5h-42.6l-12.1 12.1h-32.1v12.1h32.1l12.1-12.1h42.6c7.6 0 13.8-6.2 13.8-13.8 0-2.2-.5-4.2-1.4-6.1-2.3 4.6-7 7.8-12.4 7.8z"/><g><circle fill="#EA5095" cx="738.2" cy="499.9" r="24.4"/><path fill="#E23187" d="M736.5 513.7h-42.6l-12.1 12.1h-32.1V474h32.1l12.1 12.1h42.6c7.6 0 13.8 6.2 13.8 13.8 0 7.6-6.2 13.8-13.8 13.8z"/><path fill="#AB226B" d="M736.5 501.6h-42.6l-12.1 12.1h-32.1v12.1h32.1l12.1-12.1h42.6c7.6 0 13.8-6.2 13.8-13.8 0-2.2-.5-4.2-1.4-6.1-2.3 4.6-7 7.8-12.4 7.8z"/></g><g><circle fill="#EA5095" cx="738.2" cy="582" r="24.4"/><path fill="#E23187" d="M736.5 595.8h-42.6l-12.1 12.1h-32.1v-51.8h32.1l12.1 12.1h42.6c7.6 0 13.8 6.2 13.8 13.8 0 7.6-6.2 13.8-13.8 13.8z"/><path fill="#AB226B" d="M736.5 583.7h-42.6l-12.1 12.1h-32.1v12.1h32.1l12.1-12.1h42.6c7.6 0 13.8-6.2 13.8-13.8 0-2.2-.5-4.2-1.4-6.1-2.3 4.6-7 7.8-12.4 7.8z"/></g></g><g><circle fill="#EA5095" cx="261.8" cy="417.8" r="24.4"/><path fill="#E23187" d="M263.5 431.6h42.6l12.1 12.1h32.1v-51.8h-32.1L306.1 404h-42.6c-7.6 0-13.8 6.2-13.8 13.8 0 7.6 6.2 13.8 13.8 13.8z"/><path fill="#AB226B" d="M263.5 419.5h42.6l12.1 12.1h32.1v12.1h-32.1l-12.1-12.1h-42.6c-7.6 0-13.8-6.2-13.8-13.8 0-2.2.5-4.2 1.4-6.1 2.3 4.6 7 7.8 12.4 7.8z"/><g><circle fill="#EA5095" cx="261.8" cy="499.9" r="24.4"/><path fill="#E23187" d="M263.5 513.7h42.6l12.1 12.1h32.1V474h-32.1l-12.1 12.1h-42.6c-7.6 0-13.8 6.2-13.8 13.8 0 7.6 6.2 13.8 13.8 13.8z"/><path fill="#AB226B" d="M263.5 501.6h42.6l12.1 12.1h32.1v12.1h-32.1l-12.1-12.1h-42.6c-7.6 0-13.8-6.2-13.8-13.8 0-2.2.5-4.2 1.4-6.1 2.3 4.6 7 7.8 12.4 7.8z"/></g><g><circle fill="#EA5095" cx="261.8" cy="582" r="24.4"/><path fill="#E23187" d="M263.5 595.8h42.6l12.1 12.1h32.1v-51.8h-32.1l-12.1 12.1h-42.6c-7.6 0-13.8 6.2-13.8 13.8 0 7.6 6.2 13.8 13.8 13.8z"/><path fill="#AB226B" d="M263.5 583.7h42.6l12.1 12.1h32.1v12.1h-32.1l-12.1-12.1h-42.6c-7.6 0-13.8-6.2-13.8-13.8 0-2.2.5-4.2 1.4-6.1 2.3 4.6 7 7.8 12.4 7.8z"/></g></g><g><circle fill="#EA5095" cx="582.1" cy="736.2" r="24.4"/><path fill="#E23187" d="M568.3 734.5V692l-12.1-12.1v-32.1H608v32.1L595.9 692v42.6c0 7.6-6.2 13.8-13.8 13.8-7.6-.1-13.8-6.3-13.8-13.9z"/><path fill="#AB226B" d="M580.4 734.5V692l-12.1-12.1v-32.1h-12.1v32.1l12.1 12.1v42.6c0 7.6 6.2 13.8 13.8 13.8 2.2 0 4.2-.5 6.1-1.4-4.6-2.4-7.8-7-7.8-12.5z"/><g><circle fill="#EA5095" cx="500" cy="736.2" r="24.4"/><path fill="#E23187" d="M486.2 734.5V692l-12.1-12.1v-32.1h51.8v32.1L513.8 692v42.6c0 7.6-6.2 13.8-13.8 13.8-7.6-.1-13.8-6.3-13.8-13.9z"/><path fill="#AB226B" d="M498.3 734.5V692l-12.1-12.1v-32.1h-12.1v32.1l12.1 12.1v42.6c0 7.6 6.2 13.8 13.8 13.8 2.2 0 4.2-.5 6.1-1.4-4.6-2.4-7.8-7-7.8-12.5z"/></g><g><circle fill="#EA5095" cx="417.9" cy="736.2" r="24.4"/><path fill="#E23187" d="M404.1 734.5V692L392 679.8v-32.1h51.8v32.1L431.7 692v42.6c0 7.6-6.2 13.8-13.8 13.8-7.6-.1-13.8-6.3-13.8-13.9z"/><path fill="#AB226B" d="M416.2 734.5V692l-12.1-12.1v-32.1H392v32.1l12.1 12.1v42.6c0 7.6 6.2 13.8 13.8 13.8 2.2 0 4.2-.5 6.1-1.4-4.6-2.4-7.8-7-7.8-12.5z"/></g></g><g><circle fill="#EA5095" cx="582.1" cy="259.9" r="24.4"/><path fill="#E23187" d="M568.3 261.6v42.6l-12.1 12.1v32.1H608v-32.1l-12.1-12.1v-42.6c0-7.6-6.2-13.8-13.8-13.8-7.6 0-13.8 6.2-13.8 13.8z"/><path fill="#AB226B" d="M580.4 261.6v42.6l-12.1 12.1v32.1h-12.1v-32.1l12.1-12.1v-42.6c0-7.6 6.2-13.8 13.8-13.8 2.2 0 4.2.5 6.1 1.4-4.6 2.2-7.8 6.9-7.8 12.4z"/><g><circle fill="#EA5095" cx="500" cy="259.9" r="24.4"/><path fill="#E23187" d="M486.2 261.6v42.6l-12.1 12.1v32.1h51.8v-32.1l-12.1-12.1v-42.6c0-7.6-6.2-13.8-13.8-13.8-7.6 0-13.8 6.2-13.8 13.8z"/><path fill="#AB226B" d="M498.3 261.6v42.6l-12.1 12.1v32.1h-12.1v-32.1l12.1-12.1v-42.6c0-7.6 6.2-13.8 13.8-13.8 2.2 0 4.2.5 6.1 1.4-4.6 2.2-7.8 6.9-7.8 12.4z"/></g><g><circle fill="#EA5095" cx="417.9" cy="259.9" r="24.4"/><path fill="#E23187" d="M404.1 261.6v42.6l-12.1 12v32.1h51.8v-32.1l-12.1-12.1v-42.6c0-7.6-6.2-13.8-13.8-13.8-7.6.1-13.8 6.3-13.8 13.9z"/><path fill="#AB226B" d="M416.2 261.6v42.6l-12.1 12.1v32.1H392v-32.1l12.1-12.1v-42.6c0-7.6 6.2-13.8 13.8-13.8 2.2 0 4.2.5 6.1 1.4-4.6 2.2-7.8 6.9-7.8 12.4z"/></g></g><g fill="#EC68A3"><path d="M443.3 415.9c0-12.9-10.5-23.5-23.5-23.5-12.9 0-23.5 10.5-23.5 23.5 0 10.4 6.9 19.3 16.3 22.3v23h-32.3v14.3H427v-37.3c9.4-3 16.3-11.8 16.3-22.3zm-23.5 9.2c-5 0-9.1-4.1-9.1-9.1s4.1-9.1 9.1-9.1 9.1 4.1 9.1 9.1-4.1 9.1-9.1 9.1zM427 552.1v-16.5c9.4-3 16.3-11.9 16.3-22.3 0-12.9-10.5-23.5-23.5-23.5-12.9 0-23.5 10.5-23.5 23.5 0 10.4 6.9 19.3 16.3 22.3v16.5c-9.4 3-16.3 11.9-16.3 22.3 0 12.9 10.5 23.5 23.5 23.5 12.9 0 23.5-10.5 23.5-23.5 0-10.4-6.9-19.3-16.3-22.3zm-7.2-48c5 0 9.1 4.1 9.1 9.1s-4.1 9.1-9.1 9.1-9.1-4.1-9.1-9.1c-.1-5 4.1-9.1 9.1-9.1zm0 79.5c-5 0-9.1-4.1-9.1-9.1s4.1-9.1 9.1-9.1 9.1 4.1 9.1 9.1-4.1 9.1-9.1 9.1z"/></g><g fill="#EC68A3"><path d="M619.7 529.1v-14.3H573v37.3c-9.4 3-16.3 11.9-16.3 22.3 0 12.9 10.5 23.5 23.5 23.5 12.9 0 23.5-10.5 23.5-23.5 0-10.4-6.9-19.3-16.3-22.3v-23h32.3zm-39.5 54.5c-5 0-9.1-4.1-9.1-9.1s4.1-9.1 9.1-9.1 9.1 4.1 9.1 9.1c.1 5-4 9.1-9.1 9.1zM587.4 454.7v-16.5c9.4-3 16.3-11.9 16.3-22.3 0-12.9-10.5-23.5-23.5-23.5-12.9 0-23.5 10.5-23.5 23.5 0 10.4 6.9 19.3 16.3 22.3v16.5c-9.4 3-16.3 11.9-16.3 22.3 0 12.9 10.5 23.5 23.5 23.5 12.9 0 23.5-10.5 23.5-23.5 0-10.4-6.9-19.2-16.3-22.3zm-7.2-47.9c5 0 9.1 4.1 9.1 9.1s-4.1 9.1-9.1 9.1-9.1-4.1-9.1-9.1 4.1-9.1 9.1-9.1zm0 79.4c-5 0-9.1-4.1-9.1-9.1s4.1-9.1 9.1-9.1 9.1 4.1 9.1 9.1c.1 5-4 9.1-9.1 9.1z"/></g></g></g></switch></svg>
