<svg xmlns="http://www.w3.org/2000/svg" viewBox="0 0 48 48"><defs><style>.cls-1{fill:#9fdbf3}.cls-2{fill:#b2e5fb}</style></defs><g id="discussion_teamwork" data-name="discussion teamwork"><path class="cls-1" d="M15 47H1v-1a7 7 0 0 1 14 0z"/><path class="cls-1" d="M11 36a3 3 0 1 1-4.56-2.56A3 3 0 0 1 11 36z"/><path class="cls-2" d="M10.56 37.56a3 3 0 0 1-4.12-4.12 3 3 0 0 1 4.12 4.12z"/><path class="cls-1" d="M47 46v1H33v-1a7 7 0 0 1 14 0z"/><path class="cls-1" d="M43 36a3 3 0 1 1-4.56-2.56A3 3 0 0 1 43 36z"/><path class="cls-2" d="M42.56 37.56a3 3 0 0 1-4.12-4.12 3 3 0 0 1 4.12 4.12z"/><path class="cls-1" d="M31 15H17v-1a7 7 0 0 1 14 0z"/><path class="cls-1" d="M27 4a3 3 0 1 1-4.56-2.56A3 3 0 0 1 27 4z"/><path class="cls-2" d="M26.56 5.56a3 3 0 0 1-4.12-4.12 3 3 0 0 1 4.12 4.12z"/><path style="fill:#dad7e5" d="M26 22v4h-4v4h-8v-8h2l4-3v3h6z"/><path d="M26 22v4h-4v2a6 6 0 0 1-6-6l4-3v3z" style="fill:#edebf2"/><path class="cls-1" d="M34 26v8h-2v3l-4-3h-6v-8h12z"/><path class="cls-2" d="M34 26v7h-3a7 7 0 0 1-7-7zM46.92 45h-6.18A4.74 4.74 0 0 1 36 40.26 6.77 6.77 0 0 1 40 39a7 7 0 0 1 6.92 6zM14.92 45H8.74A4.74 4.74 0 0 1 4 40.26 6.77 6.77 0 0 1 8 39a7 7 0 0 1 6.92 6zM30.92 13h-6.18A4.74 4.74 0 0 1 20 8.26 6.77 6.77 0 0 1 24 7a7 7 0 0 1 6.92 6z"/><path d="M11 38.6a4 4 0 1 0-6 0A8 8 0 0 0 0 46v1a1 1 0 0 0 1 1h14a1 1 0 0 0 1-1v-1a8 8 0 0 0-5-7.4zM6 36a2 2 0 1 1 2 2 2 2 0 0 1-2-2zM2 46a6 6 0 0 1 12 0zM43 38.6a4 4 0 1 0-6 0 8 8 0 0 0-5 7.4v1a1 1 0 0 0 1 1h14a1 1 0 0 0 1-1v-1a8 8 0 0 0-5-7.4zM38 36a2 2 0 1 1 2 2 2 2 0 0 1-2-2zm-4 10a6 6 0 0 1 12 0zM17 16h14a1 1 0 0 0 1-1v-1a8 8 0 0 0-5-7.4 4 4 0 1 0-6 0 8 8 0 0 0-5 7.4v1a1 1 0 0 0 1 1zm5-12a2 2 0 1 1 2 2 2 2 0 0 1-2-2zm2 4a6 6 0 0 1 6 6H18a6 6 0 0 1 6-6zM32.72 3.8a22 22 0 0 1 12.47 26.08 1 1 0 0 0 1.92.54A24 24 0 0 0 33.52 2a1 1 0 0 0-.8 1.8zM2.81 29.88A22 22 0 0 1 15.28 3.8a1 1 0 0 0-.8-1.8A24 24 0 0 0 .89 30.42a1 1 0 0 0 1.92-.54zM28.78 45.47c-7.54 1.73-10.28-1.31-10.78.75a1 1 0 0 0 .75 1.19 23.29 23.29 0 0 0 10.44 0 1 1 0 0 0-.41-1.94zM32.45 37.89c.72-.36.55-1 .55-2.89h1a1 1 0 0 0 1-1v-8a1 1 0 0 0-1-1h-7v-3a1 1 0 0 0-1-1h-5c0-2.12.14-2.55-.55-2.89S19.62 18 15.67 21H14a1 1 0 0 0-1 1v8a1 1 0 0 0 1 1h7v3a1 1 0 0 0 1 1h5.67c3.66 2.75 4.03 3.27 4.78 2.89zM15 29v-6c1.66 0 .94.3 4-2v1a1 1 0 0 0 1 1h5v2h-3a1 1 0 0 0-1 1v3zm16 5v1l-2.4-1.8c-.37-.27-.22-.2-5.6-.2v-6h10v6h-1a1 1 0 0 0-1 1z"/><path d="M26 29a1 1 0 0 0 0 2 1 1 0 0 0 0-2zM30 29a1 1 0 0 0 0 2 1 1 0 0 0 0-2z"/></g></svg>
