<svg xmlns="http://www.w3.org/2000/svg" viewBox="0 0 1000 1000" xml:space="preserve"><switch><g><circle fill="#382B73" cx="500" cy="500" r="398"/><circle fill="#473080" cx="500" cy="500" r="344.3"/><path fill="#382B73" d="M780.4 552.8c0-54.9-41-100.2-94-107.1-9.1-71.3-70-126.5-143.8-126.5-48.3 0-91.1 23.7-117.5 60-10.3-5.4-22-8.5-34.4-8.5-40.9 0-74 33.1-74 74 0 2.6.1 5.2.4 7.8-54.5 3.4-97.6 48.7-97.6 104 0 55.2 42.9 100.4 97.2 104v.2h71l6.7 11.6c2.3 4 7.2 5.7 11.5 4l36.2-14.4c7.4 5.9 15.8 10.6 24.8 14.1l5.4 37.6c.7 4.6 4.6 7.9 9.2 7.9h36.7c4.6 0 8.5-3.4 9.2-7.9l5.4-37.6c9.2-3.5 17.8-8.4 25.3-14.5l35.8 14.3c4.3 1.7 9.2 0 11.5-4l6.3-11h60.5c59.8 0 108.2-48.4 108.2-108z"/><g><circle fill="#136DA0" cx="323.8" cy="536.5" r="104.3"/><circle fill="#136DA0" cx="542.7" cy="444.1" r="144.9"/><circle fill="#136DA0" cx="672.4" cy="532.8" r="108"/><circle fill="#136DA0" cx="390.8" cy="424.8" r="74"/><path fill="#136DA0" d="M316.8 527.9h355.6v112.9H316.8z"/><path fill="#40C7F2" d="M666 439.3c-8.1-63.5-62.3-112.6-128-112.6-43 0-81.1 21.1-104.6 53.4-9.2-4.8-19.6-7.6-30.6-7.6-36.4 0-65.9 29.5-65.9 65.9 0 2.3.1 4.6.4 6.9-48.5 3-86.9 43.3-86.9 92.6 0 49.2 38.2 89.4 86.6 92.6v.2h316.6c53.1 0 96.2-43.1 96.2-96.2-.1-48.8-36.6-89.1-83.8-95.2z"/><g><path fill="#1CAEE4" d="M749.7 544.6c0 53.1-43.1 96.2-96.2 96.2H336.9v-.2c-48.3-3.2-86.6-43.4-86.6-92.6 0-49.3 38.4-89.6 86.9-92.6-.2-2.3-.4-4.6-.4-6.9 0-36.4 29.5-65.9 65.9-65.9 11.1 0 21.5 2.7 30.6 7.5 23.4-32.4 61.5-53.4 104.6-53.4 65.7 0 119.9 49.1 128 112.6 47.3 6.1 83.8 46.4 83.8 95.3z"/></g><g><path fill="#27C1E6" d="M642 476.9c-6.9-54.3-53.3-96.4-109.5-96.4-36.8 0-69.4 18-89.5 45.7-7.8-4.1-16.7-6.5-26.2-6.5-31.1 0-56.4 25.2-56.4 56.4 0 2 .1 4 .3 5.9-41.5 2.6-74.4 37.1-74.4 79.3 0 42.1 32.7 76.5 74.1 79.3v.2h21.5v-.2c-35-2.3-62.7-31.5-62.7-67.1 0-35.7 27.8-64.9 62.9-67.1-.2-1.6-.3-3.3-.3-5 0-26.3 21.4-47.7 47.7-47.7 8 0 15.5 2 22.2 5.5 17-23.4 44.6-38.7 75.7-38.7 47.6 0 86.8 35.5 92.7 81.5 34.2 4.4 60.6 33.7 60.6 69.1 0 38.5-31.2 69.6-69.6 69.6h20.2c45.5 0 82.3-36.9 82.3-82.3.1-41.7-31.1-76.3-71.6-81.5z"/></g><g><path fill="#136DA0" d="M625.6 544.5v-27.8c0-1.6-.4-3.2-1.2-4.6l-18.3-31.8c-2.3-4-7.2-5.7-11.5-4L560.2 490c-8-6.8-17.3-12.3-27.3-16.1l-5.4-37.5c-.7-4.6-4.6-7.9-9.2-7.9h-36.7c-4.6 0-8.5 3.4-9.2 7.9L467 474c-9.8 3.7-18.9 9-26.8 15.7l-34.8-13.9c-4.3-1.7-9.2 0-11.5 4l-18.3 31.8c-.9 1.6-1.3 3.4-1.2 5.2v20.8h-.2v6.9h.2v.5l.1-.1c.3 2.3 1.5 4.5 3.5 6.1l29.1 23c-.1 1.7-.2 3.3-.3 5l-28.3 22.3c-2.3 1.8-3.5 4.5-3.5 7.3V629h-.6v6.6h.6v.4c0 1.6.4 3.2 1.2 4.6l.1.2h247.1l.5-.8c.9-1.6 1.3-3.4 1.2-5.1v-26.5c.2-3-1-5.9-3.5-7.9l-28.4-22.4c-.1-1.2-.1-2.4-.2-3.6l29.2-23c2.1-1.7 3.4-4.3 3.4-7zm-125.7 61.3c-19.8 0-36.5-12.9-42.3-30.8 5.8-17.8 22.6-30.8 42.3-30.8s36.5 12.9 42.3 30.8c-5.7 17.8-22.5 30.8-42.3 30.8z"/></g><g><path fill="#E7AD27" d="M625.6 524.5v-27.8c0-1.6-.4-3.2-1.2-4.6l-18.3-31.8c-2.3-4-7.2-5.7-11.5-4L560.2 470c-8-6.8-17.3-12.3-27.3-16.1l-5.4-37.6c-.7-4.6-4.6-7.9-9.2-7.9h-36.7c-4.6 0-8.5 3.4-9.2 7.9L467 454c-9.8 3.7-18.9 9-26.8 15.7l-34.8-13.9c-4.3-1.7-9.2 0-11.5 4l-18.3 31.8c-.9 1.6-1.3 3.4-1.2 5.2V525l9.4-10.8v-6.1l24 18.9c-.7 4.6-1.1 9.4-1.1 14.2 0 5.6.5 11.2 1.5 16.5l-29.7 23.4c-2.3 1.8-3.5 4.5-3.5 7.3V616l8.4-10.5 11.2 19.3c2.3 4 7.2 5.7 11.5 4l36.2-14.4c7.4 5.9 15.8 10.6 24.8 14.1l5.4 37.6c.7 4.6 4.6 7.9 9.2 7.9h36.7c4.6 0 8.5-3.4 9.2-7.9l5.4-37.6c9.2-3.5 17.8-8.4 25.3-14.5l35.8 14.3c4.3 1.7 9.2 0 11.5-4l10.8-18.8 8.7 10.2v-27.3c.2-3-1-5.9-3.5-7.9l-29.7-23.4c.9-5.2 1.4-10.5 1.4-15.9 0-4.6-.3-9.1-1-13.6l24.1-19v5.5l9.2 10.4zm-125.7 61.3c-24.6 0-44.5-19.9-44.5-44.5s19.9-44.5 44.5-44.5 44.5 19.9 44.5 44.5-19.9 44.5-44.5 44.5z"/><path fill="#FFF335" d="m624.4 512.7-18.3-31.8c-2.3-4-7.2-5.7-11.5-4l-34.4 13.7c-8-6.8-17.3-12.3-27.3-16.1l-5.4-37.6c-.7-4.6-4.6-7.9-9.2-7.9h-36.7c-4.6 0-8.5 3.4-9.2 7.9l-5.4 37.6c-9.8 3.7-18.9 9-26.8 15.7l-34.8-13.9c-4.3-1.7-9.2 0-11.5 4l-18.3 31.8c-1 1.7-1.4 3.6-1.2 5.5h-.2v6.9h4.3l29.3 23.1c-.7 4.6-1.1 9.4-1.1 14.2 0 5.6.5 11.2 1.5 16.5l-29.7 23.4c-2.3 1.8-3.5 4.5-3.5 7.3h-.6v6.6h3l17.2 29.8c2.3 4 7.2 5.7 11.5 4l36.2-14.4c7.4 5.9 15.8 10.6 24.8 14.1l5.4 37.6c.7 4.6 4.6 7.9 9.2 7.9h36.7c4.6 0 8.5-3.4 9.2-7.9l5.4-37.6c9.2-3.5 17.8-8.4 25.3-14.5l35.8 14.3c4.3 1.7 9.2 0 11.5-4l16.9-29.2h2.7V609c.2-3-1-5.9-3.5-7.9L592 577.7c.9-5.2 1.4-10.5 1.4-15.9 0-4.6-.3-9.1-1-13.6l29.9-23.6.1-.1h3.4v-6.9c-.1-1.7-.5-3.4-1.4-4.9zm-124.5 93.5c-24.6 0-44.5-19.9-44.5-44.5s19.9-44.5 44.5-44.5 44.5 19.9 44.5 44.5-19.9 44.5-44.5 44.5z"/><path fill="#FEDE3A" d="m621.5 608.1-29.7-23.4c.9-5.2 1.4-10.5 1.4-15.9 0-4.6-.3-9.1-1-13.6l29.9-23.6c3.6-2.9 4.6-7.9 2.3-11.9l-18.3-31.8c-2.3-4-7.2-5.7-11.5-4l-34.4 13.7c-8-6.8-17.3-12.3-27.3-16.1l-5.4-37.6c-.7-4.6-4.6-7.9-9.2-7.9h-36.7c-4.6 0-8.5 3.4-9.2 7.9l-5.4 37.6c-9.8 3.7-18.9 9-26.8 15.7l-34.8-13.9c-4.3-1.7-9.2 0-11.5 4l-18.3 31.8c-2.3 4-1.3 9.1 2.3 11.9l29.9 23.5c-.7 4.6-1.1 9.4-1.1 14.2 0 5.6.5 11.2 1.5 16.5l-29.7 23.4c-3.6 2.9-4.6 7.9-2.3 11.9l18.3 31.8c2.3 4 7.2 5.7 11.5 4l36.2-14.4c7.4 5.9 15.8 10.6 24.8 14.1l5.4 37.6c.7 4.6 4.6 7.9 9.2 7.9h36.7c4.6 0 8.5-3.4 9.2-7.9l5.4-37.6c9.2-3.5 17.8-8.4 25.3-14.5l35.8 14.3c4.3 1.7 9.2 0 11.5-4l18.3-31.8c2.3-4 1.3-9.1-2.3-11.9zm-121.6 5.1c-24.6 0-44.5-19.9-44.5-44.5s19.9-44.5 44.5-44.5 44.5 19.9 44.5 44.5-19.9 44.5-44.5 44.5z"/><path fill="#F7CB15" d="M499.9 492.4c-42.2 0-76.3 34.2-76.3 76.3 0 42.2 34.2 76.3 76.3 76.3s76.3-34.2 76.3-76.3c0-42.1-34.1-76.3-76.3-76.3zm0 139.9c-35.1 0-63.5-28.4-63.5-63.5s28.4-63.5 63.5-63.5 63.5 28.4 63.5 63.5c.1 35-28.4 63.5-63.5 63.5z"/></g></g></g></switch></svg>
