<?xml version="1.0" encoding="utf-8"?>
<!-- Generator: Adobe Illustrator 27.5.0, SVG Export Plug-In . SVG Version: 6.00 Build 0)  -->
<svg version="1.1" xmlns="http://www.w3.org/2000/svg" xmlns:xlink="http://www.w3.org/1999/xlink" x="0px" y="0px"
	 viewBox="0 0 500 500" style="enable-background:new 0 0 500 500;" xml:space="preserve">
<g id="BACKGROUND">
	<rect style="fill:#E8E7E2;" width="500" height="500"/>
</g>
<g id="OBJECTS">
	<g>
		<g style="enable-background:new    ;">
			<g>
				<polygon style="fill:#F9601C;" points="345.875,206.052 340.474,202.913 338.313,194.469 343.715,197.608 				"/>
			</g>
			<g>
				<polygon style="fill:#F9601C;" points="374.747,143.857 369.346,140.719 377.774,138.303 383.175,141.441 				"/>
			</g>
			<path style="fill:#F9601C;" d="M357.845,150.725l-5.401-3.139c2.126,1.236,3.445,3.863,3.456,7.598
				c0.021,7.517-5.265,16.674-11.807,20.451c-3.292,1.901-6.275,2.077-8.429,0.825l5.401,3.139c2.154,1.252,5.137,1.076,8.429-0.825
				c6.542-3.777,11.829-12.934,11.807-20.451C361.29,154.588,359.971,151.96,357.845,150.725z"/>
			<g>
				<polygon style="fill:#2E178F;" points="370.609,122.487 365.208,119.348 370.45,122.336 375.852,125.475 				"/>
			</g>
			<g>
				<polygon style="fill:#F9601C;" points="323.063,204.846 317.662,201.707 322.085,190.565 327.486,193.704 				"/>
			</g>
			<g>
				<polygon style="fill:#F9601C;" points="363.167,131.903 357.765,128.764 365.208,119.348 370.609,122.487 				"/>
			</g>
			<path style="fill:#DD4407;" d="M324.163,186.466l-5.401-3.139c0.665,2.911,1.799,5.336,3.324,7.238l5.401,3.139
				C325.962,191.802,324.827,189.376,324.163,186.466z"/>
			<path style="fill:#F9601C;" d="M357.765,128.764c-0.34-0.048-0.686-0.081-1.035-0.105c-0.03-0.002-0.059-0.007-0.089-0.009
				c-0.043-0.003-0.09,0.001-0.133-0.001c-0.517-0.028-1.042-0.037-1.58-0.014c-0.001,0-0.003,0-0.004,0
				c-0.004,0-0.008,0.001-0.012,0.001c-0.612,0.027-1.238,0.09-1.875,0.186c-0.016,0.002-0.031,0.002-0.047,0.005
				c-0.008,0.001-0.017,0.003-0.025,0.005c-0.358,0.055-0.72,0.121-1.085,0.198c-0.089,0.019-0.179,0.043-0.269,0.063
				c-0.278,0.062-0.556,0.127-0.838,0.202c-0.025,0.007-0.05,0.011-0.076,0.018c-0.299,0.081-0.6,0.169-0.903,0.264l5.401,3.139
				c0.329-0.103,0.655-0.196,0.979-0.282c0.281-0.075,0.559-0.14,0.836-0.202c0.09-0.02,0.18-0.045,0.269-0.064
				c0.365-0.077,0.727-0.143,1.085-0.198c0.024-0.004,0.048-0.006,0.072-0.009c0.637-0.096,1.263-0.159,1.876-0.186
				c0.005,0,0.011-0.001,0.016-0.001c0.538-0.023,1.063-0.014,1.58,0.014c0.074,0.004,0.149,0.005,0.223,0.01
				c0.35,0.024,0.696,0.057,1.035,0.105L357.765,128.764z"/>
			<path style="fill:#DD4407;" d="M321.995,158.894c-0.185,0.447-0.363,0.895-0.536,1.343c-0.102,0.266-0.189,0.534-0.287,0.8
				c-0.131,0.356-0.26,0.711-0.383,1.068c-0.065,0.189-0.141,0.378-0.204,0.567c-0.103,0.31-0.187,0.621-0.285,0.932
				c-0.129,0.412-0.259,0.823-0.378,1.235c-0.045,0.155-0.099,0.31-0.142,0.466c-0.078,0.281-0.134,0.561-0.207,0.842
				c-0.14,0.537-0.275,1.072-0.396,1.608c-0.039,0.173-0.091,0.346-0.128,0.518c-0.119,0.559-0.228,1.117-0.326,1.673l5.401,3.139
				c0.128-0.728,0.289-1.46,0.454-2.191c0.121-0.536,0.256-1.072,0.396-1.609c0.113-0.435,0.224-0.871,0.349-1.306
				c0.119-0.412,0.249-0.824,0.378-1.236c0.157-0.5,0.316-1,0.489-1.499c0.123-0.356,0.253-0.712,0.383-1.068
				c0.263-0.716,0.529-1.432,0.823-2.143L321.995,158.894z"/>
			<path style="fill:#F9601C;" d="M338.148,136.3c-0.997,0.839-1.972,1.73-2.921,2.668c-0.966,0.955-1.906,1.959-2.814,3.005
				c-0.711,0.818-1.403,1.662-2.074,2.528c-0.046,0.059-0.091,0.118-0.137,0.177l5.401,3.139c0.045-0.059,0.091-0.118,0.136-0.177
				c0.671-0.866,1.363-1.71,2.074-2.528c0.909-1.046,1.848-2.049,2.814-3.005c0.949-0.938,1.924-1.83,2.921-2.668L338.148,136.3z"/>
			<g>
				<polygon style="fill:#F9601C;" points="315.711,180.392 310.309,177.253 318.723,169.946 324.125,173.084 				"/>
			</g>
			<g>
				<polygon style="fill:#DD4407;" points="315.735,188.876 310.333,185.737 310.309,177.253 315.711,180.392 				"/>
			</g>
			<g>
				<polygon style="fill:#F9601C;" points="343.55,139.439 338.148,136.3 340.254,125.392 345.656,128.531 				"/>
			</g>
			<g>
				<polygon style="fill:#DD4407;" points="345.656,128.531 340.254,125.392 347.638,121.129 353.039,124.268 				"/>
			</g>
			<g>
				<polygon style="fill:#F9601C;" points="327.396,162.033 321.995,158.894 317.523,152.893 322.924,156.032 				"/>
			</g>
			<g>
				<polygon style="fill:#F9601C;" points="328.128,147.013 322.727,143.874 330.203,144.677 335.604,147.816 				"/>
			</g>
			<g>
				<polygon style="fill:#DD4407;" points="322.924,156.032 317.523,152.893 322.727,143.874 328.128,147.013 				"/>
			</g>
			<g>
				<path style="fill:#FFAC1A;" d="M383.199,149.926l-8.414,7.313c-0.646,3.668-1.763,7.393-3.267,11.043l4.472,6.006l-5.209,9.016
					l-7.471-0.806c-2.412,3.139-5.09,5.98-7.95,8.386l-2.101,10.905l-7.383,4.263l-2.161-8.444c-2.865,0.899-5.55,1.154-7.967,0.804
					l-7.447,9.419l-5.238-2.985l4.423-11.142c-1.525-1.902-2.659-4.327-3.324-7.238l-8.428,2.41l-0.024-8.484l8.414-7.308
					c0.646-3.668,1.763-7.398,3.272-11.052l-4.472-6.001l5.204-9.019l7.476,0.803c2.407-3.13,5.085-5.971,7.945-8.377l2.106-10.908
					l7.383-4.263l2.156,8.447c2.864-0.899,5.549-1.154,7.972-0.812l7.442-9.416l5.243,2.988l-4.423,11.136
					c1.52,1.904,2.654,4.336,3.319,7.246l8.428-2.416L383.199,149.926z M349.493,178.773c6.542-3.777,11.829-12.934,11.807-20.451
					c-0.021-7.517-5.343-10.549-11.884-6.772c-6.542,3.777-11.829,12.934-11.807,20.451
					C337.63,179.518,342.951,182.55,349.493,178.773"/>
			</g>
		</g>
		<g>
			<g>
				<polygon style="fill:#3A1CB1;" points="333.188,386.777 268.053,424.629 202.492,386.777 267.627,348.925 				"/>
			</g>
			<polygon style="fill:#725AFF;" points="333.188,386.777 333.141,416.891 268.006,454.743 268.053,424.629 			"/>
			<polygon style="fill:#4B25E6;" points="268.053,424.629 268.006,454.743 202.444,416.891 202.492,386.777 			"/>
			<polygon style="fill:#3A1CB1;" points="333.188,398.272 333.141,406.258 268.006,444.111 268.053,436.125 			"/>
			<polygon style="fill:#28147B;" points="268.053,436.125 268.006,444.111 202.444,406.259 202.492,398.273 			"/>
		</g>
		<g>
			<g>
				<polygon style="fill:#D6D3C4;" points="264.571,404.133 303.455,382.083 303.449,384.324 264.564,406.374 				"/>
			</g>
			<g>
				<path style="fill:#D6D3C4;" d="M228.804,342.332l-0.088,31.071c-0.016,5.523,3.88,12.269,8.686,15.044l27.17,15.686
					l-0.006,2.241l-27.169-15.686c-5.88-3.395-10.649-11.655-10.63-18.411l0.088-31.071L228.804,342.332z"/>
			</g>
			<path style="fill:#FFFFFF;" d="M276.285,366.396c-4.806-2.775-8.701-9.521-8.685-15.044l0.088-31.071l-38.884,22.05
				l-0.088,31.071c-0.016,5.523,3.88,12.269,8.686,15.044l27.169,15.686l38.885-22.05L276.285,366.396z"/>
			<g>
				<polygon style="fill:#999999;" points="226.853,341.205 265.738,319.155 267.688,320.282 228.804,342.332 				"/>
			</g>
		</g>
		<g>
			<path style="fill:#FFFFFF;" d="M131.839,382.59l213.192-123.008l0.079,21.6c0.012,7.299-5.122,16.193-11.47,19.858
				l-190.211,109.74c-6.348,3.665-11.516,0.72-11.528-6.589L131.839,382.59z"/>
		</g>
		<path style="fill:#28147B;" d="M131.528,263.876c-0.021-7.294,5.114-16.188,11.47-19.858l190.203-109.735
			c6.348-3.665,11.516-0.72,11.537,6.584l0.293,118.714L131.839,382.59L131.528,263.876z"/>
		<polyline style="fill:#FFFFFF;" points="142.005,256.665 142.275,363.827 334.506,252.911 334.236,145.758 142.005,256.665 		"/>
		<g>
			<polygon style="fill:#4B25E6;" points="142.006,256.665 334.237,145.758 334.506,252.911 142.275,363.827 			"/>
		</g>
		<path style="fill:#D6D3C4;" d="M332.012,128.04c-2.091-1.215-4.986-1.044-8.179,0.799L133.63,238.574
			c-6.356,3.67-11.491,12.563-11.47,19.858l0.347,140.329l0.027,0.016c0.014,3.617,1.291,6.162,3.351,7.359l9.368,5.444
			c-2.066-1.201-3.346-3.756-3.352-7.389l-0.061-21.6l-0.018-0.01l-0.293-118.703c-0.021-7.294,5.114-16.188,11.47-19.858
			l190.203-109.735c3.193-1.844,6.088-2.015,8.179-0.799L332.012,128.04z"/>
		<g>
			<g>
				<path style="fill:#725AFF;" d="M82.226,276.813c14.539-8.394,26.623-1.605,26.671,15.184c0.017,5.924-1.439,12.301-3.97,18.453
					c-0.383,0.938-0.5,1.879-0.349,2.625l1.837,8.846l-8.999,3.024c-0.202,0.068-0.408,0.162-0.612,0.28
					c-0.48,0.277-0.956,0.688-1.38,1.205c-3.839,4.716-8.275,8.705-13.005,11.435c-0.567,0.327-1.139,0.637-1.714,0.927
					c-13.38,6.762-24.2,0.433-24.914-14.565c-0.803-16.906,10.997-38.119,25.851-47.07C81.836,277.04,82.03,276.926,82.226,276.813z
					"/>
				<path style="fill:#260FB2;" d="M94.565,271.224c-4.854-2.821-11.559-2.448-18.888,1.784c-0.195,0.113-0.389,0.227-0.585,0.345
					c-14.853,8.951-26.653,30.163-25.851,47.07c0.358,7.516,3.253,12.854,7.737,15.46l6.549,3.805
					c-4.484-2.605-7.379-7.944-7.737-15.46c-0.803-16.906,10.997-38.119,25.851-47.07c0.196-0.118,0.39-0.233,0.585-0.345
					c7.329-4.232,14.034-4.605,18.888-1.784L94.565,271.224z"/>
			</g>
			<g>
				<g>
					<g>
						<path style="fill:#FFFFFF;" d="M72.829,312.893c1.021-0.589,1.848-0.118,1.851,1.055c0.003,1.173-0.818,2.596-1.839,3.185
							c-1.021,0.589-1.848,0.118-1.851-1.055C70.987,314.905,71.808,313.483,72.829,312.893z"/>
					</g>
					<g>
						<path style="fill:#FFFFFF;" d="M84.604,306.095c1.015-0.586,1.848-0.118,1.851,1.055c0.003,1.173-0.824,2.599-1.839,3.185
							c-1.021,0.589-1.848,0.118-1.851-1.055C82.761,308.108,83.583,306.685,84.604,306.095z"/>
					</g>
					<g>
						<path style="fill:#FFFFFF;" d="M96.373,299.3c1.021-0.589,1.848-0.118,1.851,1.055c0.003,1.173-0.818,2.596-1.839,3.185
							c-1.015,0.586-1.848,0.118-1.851-1.055C94.531,301.313,95.357,299.886,96.373,299.3z"/>
					</g>
				</g>
			</g>
		</g>
		<g>
			<g>
				<path style="fill:#4B25E6;" d="M418.982,146.551c-14.827-8.561-27.15-1.637-27.199,15.484
					c-0.017,6.041,1.467,12.545,4.049,18.819c0.391,0.957,0.51,1.917,0.356,2.677l-1.874,9.021l9.178,3.084
					c0.206,0.069,0.416,0.165,0.624,0.286c0.49,0.283,0.975,0.701,1.407,1.229c3.915,4.809,8.439,8.877,13.262,11.661
					c0.578,0.334,1.161,0.65,1.748,0.946c13.645,6.896,24.679,0.441,25.407-14.854c0.818-17.241-11.215-38.873-26.362-48.002
					C419.379,146.783,419.181,146.666,418.982,146.551z"/>
				<path style="fill:#260FB2;" d="M406.399,140.851c4.95-2.877,11.788-2.496,19.262,1.819c0.199,0.115,0.397,0.232,0.597,0.352
					c15.147,9.128,27.181,30.761,26.362,48.002c-0.365,7.664-3.318,13.109-7.89,15.766l-6.678,3.881
					c4.572-2.657,7.525-8.102,7.89-15.766c0.818-17.241-11.215-38.874-26.362-48.002c-0.2-0.12-0.398-0.237-0.597-0.352
					c-7.474-4.315-14.312-4.696-19.262-1.819L406.399,140.851z"/>
			</g>
			<g>
				<g>
					<g>
						<path style="fill:#FFFFFF;" d="M428.565,183.346c-1.041-0.601-1.884-0.12-1.888,1.076c-0.003,1.196,0.835,2.647,1.875,3.249
							c1.041,0.601,1.884,0.12,1.888-1.076C430.444,185.398,429.606,183.947,428.565,183.346z"/>
					</g>
					<g>
						<path style="fill:#FFFFFF;" d="M416.557,176.413c-1.035-0.598-1.884-0.12-1.888,1.076c-0.003,1.196,0.84,2.651,1.875,3.248
							c1.041,0.601,1.884,0.12,1.888-1.076C418.436,178.465,417.598,177.014,416.557,176.413z"/>
					</g>
					<g>
						<path style="fill:#FFFFFF;" d="M404.555,169.484c-1.041-0.601-1.884-0.12-1.888,1.076c-0.003,1.196,0.835,2.647,1.875,3.248
							c1.035,0.598,1.884,0.12,1.888-1.076C406.434,171.536,405.59,170.082,404.555,169.484z"/>
					</g>
				</g>
			</g>
		</g>
		<g style="enable-background:new    ;">
			<g>
				<polygon style="fill:#F9601C;" points="118.313,453.513 112.077,449.889 109.583,440.141 115.818,443.764 				"/>
			</g>
			<g>
				<polygon style="fill:#F9601C;" points="151.643,381.713 145.408,378.09 155.137,375.301 161.372,378.924 				"/>
			</g>
			<path style="fill:#F9601C;" d="M132.131,389.641l-6.235-3.624c2.455,1.427,3.977,4.46,3.989,8.771
				c0.025,8.678-6.078,19.249-13.631,23.609c-3.8,2.194-7.244,2.398-9.73,0.953l6.235,3.624c2.487,1.445,5.93,1.242,9.73-0.953
				c7.552-4.36,13.655-14.931,13.631-23.609C136.108,394.101,134.586,391.068,132.131,389.641z"/>
			<g>
				<polygon style="fill:#2E178F;" points="146.866,357.043 140.63,353.419 146.683,356.868 152.918,360.492 				"/>
			</g>
			<g>
				<polygon style="fill:#F9601C;" points="91.978,452.12 85.742,448.496 90.849,435.633 97.084,439.257 				"/>
			</g>
			<g>
				<polygon style="fill:#F9601C;" points="138.274,367.913 132.039,364.289 140.63,353.419 146.866,357.043 				"/>
			</g>
			<path style="fill:#DD4407;" d="M93.247,430.901l-6.235-3.624c0.768,3.36,2.077,6.16,3.837,8.356l6.235,3.624
				C95.324,437.062,94.015,434.261,93.247,430.901z"/>
			<path style="fill:#F9601C;" d="M132.039,364.289c-0.392-0.055-0.792-0.094-1.195-0.122c-0.035-0.002-0.068-0.008-0.103-0.01
				c-0.05-0.003-0.104,0.001-0.154-0.001c-0.597-0.033-1.203-0.043-1.824-0.016c-0.001,0-0.003,0-0.005,0
				c-0.005,0-0.009,0.001-0.014,0.001c-0.707,0.032-1.43,0.104-2.165,0.215c-0.019,0.003-0.036,0.003-0.055,0.005
				c-0.01,0.002-0.019,0.004-0.029,0.005c-0.413,0.064-0.831,0.14-1.252,0.229c-0.103,0.022-0.207,0.05-0.31,0.073
				c-0.321,0.072-0.642,0.147-0.967,0.233c-0.029,0.008-0.058,0.013-0.087,0.021c-0.345,0.093-0.693,0.195-1.043,0.305l6.235,3.624
				c0.38-0.119,0.756-0.226,1.13-0.326c0.325-0.087,0.646-0.161,0.966-0.233c0.103-0.023,0.208-0.052,0.311-0.073
				c0.422-0.089,0.839-0.165,1.252-0.229c0.028-0.004,0.055-0.007,0.083-0.011c0.735-0.111,1.458-0.183,2.165-0.215
				c0.006,0,0.012-0.001,0.018-0.001c0.621-0.027,1.227-0.017,1.824,0.016c0.085,0.005,0.172,0.006,0.257,0.012
				c0.404,0.028,0.803,0.066,1.195,0.122L132.039,364.289z"/>
			<path style="fill:#DD4407;" d="M90.745,399.072c-0.213,0.516-0.419,1.033-0.619,1.551c-0.118,0.307-0.218,0.616-0.332,0.923
				c-0.151,0.411-0.3,0.821-0.443,1.232c-0.076,0.219-0.162,0.436-0.235,0.655c-0.119,0.358-0.216,0.717-0.329,1.076
				c-0.149,0.475-0.299,0.95-0.436,1.426c-0.052,0.179-0.115,0.358-0.164,0.538c-0.09,0.324-0.155,0.647-0.239,0.972
				c-0.161,0.62-0.318,1.238-0.457,1.856c-0.045,0.199-0.105,0.399-0.147,0.598c-0.138,0.645-0.264,1.289-0.377,1.932l6.236,3.624
				c0.148-0.84,0.334-1.685,0.524-2.53c0.139-0.618,0.296-1.238,0.457-1.857c0.131-0.503,0.258-1.005,0.403-1.508
				c0.137-0.476,0.287-0.951,0.436-1.426c0.181-0.577,0.365-1.155,0.564-1.731c0.142-0.411,0.292-0.822,0.443-1.232
				c0.304-0.826,0.611-1.653,0.95-2.474L90.745,399.072z"/>
			<path style="fill:#F9601C;" d="M109.393,372.989c-1.151,0.968-2.276,1.997-3.372,3.08c-1.115,1.103-2.2,2.262-3.249,3.469
				c-0.821,0.944-1.619,1.918-2.394,2.918c-0.053,0.068-0.105,0.136-0.158,0.204l6.235,3.624c0.052-0.068,0.105-0.136,0.158-0.204
				c0.775-1,1.574-1.974,2.394-2.918c1.049-1.207,2.133-2.366,3.249-3.469c1.095-1.083,2.221-2.112,3.371-3.08L109.393,372.989z"/>
			<g>
				<polygon style="fill:#F9601C;" points="83.49,423.89 77.255,420.266 86.968,411.83 93.203,415.454 				"/>
			</g>
			<g>
				<polygon style="fill:#DD4407;" points="83.518,433.684 77.282,430.06 77.255,420.266 83.49,423.89 				"/>
			</g>
			<g>
				<polygon style="fill:#F9601C;" points="115.628,376.612 109.393,372.989 111.824,360.396 118.059,364.02 				"/>
			</g>
			<g>
				<polygon style="fill:#DD4407;" points="118.059,364.02 111.824,360.396 120.347,355.475 126.583,359.099 				"/>
			</g>
			<g>
				<polygon style="fill:#F9601C;" points="96.98,402.695 90.745,399.072 85.582,392.145 91.818,395.768 				"/>
			</g>
			<g>
				<polygon style="fill:#F9601C;" points="97.825,385.357 91.59,381.733 100.22,382.659 106.456,386.283 				"/>
			</g>
			<g>
				<polygon style="fill:#DD4407;" points="91.818,395.768 85.582,392.145 91.59,381.733 97.825,385.357 				"/>
			</g>
			<g>
				<path style="fill:#FFAC1A;" d="M161.4,388.719l-9.713,8.443c-0.746,4.234-2.035,8.534-3.771,12.749l5.163,6.934l-6.013,10.408
					l-8.625-0.93c-2.785,3.623-5.876,6.903-9.178,9.681l-2.426,12.589l-8.524,4.921l-2.494-9.749
					c-3.307,1.038-6.407,1.332-9.197,0.928l-8.597,10.873l-6.047-3.446l5.106-12.863c-1.76-2.195-3.069-4.996-3.837-8.356
					l-9.729,2.783l-0.028-9.794l9.713-8.436c0.746-4.234,2.035-8.541,3.777-12.758l-5.163-6.927l6.007-10.412l8.631,0.927
					c2.779-3.613,5.87-6.893,9.172-9.671l2.431-12.592l8.524-4.921l2.489,9.752c3.307-1.038,6.406-1.332,9.203-0.938l8.592-10.87
					l6.052,3.449l-5.107,12.856c1.755,2.199,3.064,5.005,3.831,8.365l9.729-2.789L161.4,388.719z M122.489,422.021
					c7.552-4.36,13.655-14.931,13.631-23.609c-0.025-8.678-6.168-12.179-13.72-7.818s-13.655,14.931-13.631,23.609
					C108.794,422.881,114.937,426.381,122.489,422.021"/>
			</g>
		</g>
		<g>
			<polygon style="fill:#381BAB;" points="444.104,320.756 444.081,328.793 436.063,336.633 436.085,328.596 			"/>
			<g>
				<polygon style="fill:#261374;" points="356.228,328.592 356.206,336.63 348.098,328.797 348.121,320.76 				"/>
			</g>
			<path style="fill:#261374;" d="M417.721,343.128l-0.023,8.037c0.009-3.203-2.105-6.411-6.338-8.855
				c-8.417-4.859-22.02-4.859-30.382,0c-4.154,2.414-6.234,5.573-6.242,8.738l0.023-8.037c0.009-3.164,2.088-6.324,6.242-8.738
				c8.362-4.859,21.965-4.859,30.382,0C415.617,336.717,417.73,339.925,417.721,343.128z"/>
			<g>
				<polygon style="fill:#371BAA;" points="457.435,346.95 457.412,354.987 442.152,357.226 442.175,349.189 				"/>
			</g>
			<g>
				<polygon style="fill:#311895;" points="350.371,349.185 350.348,357.223 335.063,354.984 335.086,346.947 				"/>
			</g>
			<path style="fill:#3A1DB1;" d="M442.175,349.189l-0.023,8.037c-1.132,2.918-3.111,5.746-5.926,8.359l0.023-8.037
				C439.064,354.935,441.043,352.107,442.175,349.189z"/>
			<path style="fill:#311895;" d="M356.391,357.545l-0.023,8.037c-2.838-2.61-4.849-5.437-6.02-8.359l0.023-8.037
				C351.542,352.108,353.553,354.935,356.391,357.545z"/>
			<path style="fill:#28147B;" d="M421.364,366.198l-0.023,8.037c-4.502,1.639-9.377,2.795-14.412,3.46l0.023-8.037
				C411.986,368.993,416.861,367.837,421.364,366.198z"/>
			<path style="fill:#28147B;" d="M385.831,369.658l-0.023,8.037c-5.049-0.669-9.931-1.821-14.451-3.46l0.023-8.037
				C375.9,367.838,380.782,368.99,385.831,369.658z"/>
			<g>
				<polygon style="fill:#3A1DB1;" points="444.362,365.384 444.339,373.421 434.895,378.909 434.918,370.872 				"/>
			</g>
			<g>
				<polygon style="fill:#2C1687;" points="434.918,370.872 434.895,378.909 421.341,374.236 421.364,366.198 				"/>
			</g>
			<polygon style="fill:#28147B;" points="357.872,370.869 357.849,378.906 348.35,373.422 348.372,365.384 			"/>
			<polygon style="fill:#3A1CB1;" points="371.38,366.198 371.357,374.236 357.849,378.906 357.872,370.869 			"/>
			<polygon style="fill:#321898;" points="406.951,369.658 406.928,377.696 403.113,386.542 403.136,378.505 			"/>
			<polygon style="fill:#341AA0;" points="403.136,378.505 403.113,386.542 389.723,386.542 389.746,378.505 			"/>
			<polygon style="fill:#261373;" points="389.746,378.505 389.723,386.542 385.808,377.696 385.831,369.658 			"/>
			<g>
				<path style="fill:#4B25E6;" d="M434.918,370.872l-13.554-4.674c-4.502,1.639-9.378,2.795-14.412,3.46l-3.815,8.846h-13.39
					l-3.915-8.846c-5.049-0.669-9.931-1.821-14.451-3.46l-13.508,4.67l-9.499-5.484l8.019-7.84c-2.838-2.61-4.85-5.437-6.021-8.359
					l-15.285-2.239l-0.044-7.756l15.26-2.239c1.138-2.915,3.111-5.746,5.926-8.359l-8.107-7.832l9.444-5.488l13.548,4.67
					c4.502-1.639,9.384-2.791,14.412-3.46l3.815-8.846h13.39l3.915,8.846c5.048,0.669,9.937,1.824,14.451,3.46l13.508-4.67
					l9.499,5.484l-8.019,7.84c2.845,2.613,4.85,5.437,6.021,8.359l15.285,2.239l0.044,7.756l-15.26,2.239
					c-1.132,2.919-3.111,5.746-5.926,8.359l8.113,7.836L434.918,370.872z M381.1,351.871c8.417,4.859,22.014,4.856,30.375-0.004
					c8.362-4.859,8.324-12.735-0.093-17.595c-8.417-4.859-22.02-4.859-30.382,0C372.639,339.132,372.684,347.012,381.1,351.871"/>
			</g>
		</g>
		<g>
			<g style="enable-background:new    ;">
				<g>
					<path style="fill:#ABABB4;" d="M243.603,330.66c3.304-0.464,5.971,2.045,5.965,5.611c-0.007,3.556-2.685,6.826-5.989,7.291
						c-3.304,0.464-5.971-2.054-5.965-5.611C237.621,334.385,240.299,331.124,243.603,330.66z"/>
				</g>
			</g>
		</g>
		<g>
			<polygon style="fill:#F9601C;" points="350.718,78.637 348.005,77.11 399.527,47.364 402.24,48.891 			"/>
			<g>
				<g>
					<polygon style="fill:#DD4407;" points="402.24,48.891 376.549,86.081 350.718,78.637 					"/>
				</g>
				<g>
					<polygon style="fill:#FFAC1A;" points="399.491,47.39 369.623,40.916 347.969,77.136 					"/>
				</g>
				<g>
					<polygon style="fill:#F9601C;" points="402.24,48.891 402.352,86.147 376.549,86.081 					"/>
				</g>
				<g>
					<polygon style="fill:#FFAC1A;" points="376.549,86.081 402.352,86.147 350.823,115.897 					"/>
				</g>
				<g>
					<polygon style="fill:#F9601C;" points="350.823,115.897 350.718,78.637 376.549,86.081 					"/>
				</g>
			</g>
			<polygon style="fill:#DD4407;" points="350.823,115.897 348.111,114.37 348.005,77.11 350.718,78.637 			"/>
		</g>
		<g>
			<path style="fill:#FFAC1A;" d="M449.085,255.473l-32.852-18.967c-1.828-1.056-3.464-3.282-4.128-5.622l-2.431-8.511
				c-0.664-2.335-2.305-4.564-4.128-5.617l-13.239-7.643c-1.236-0.714-2.357-0.78-3.165-0.31l-8.457,4.915
				c0.809-0.47,1.929-0.404,3.165,0.31l13.239,7.643c1.823,1.053,3.464,3.282,4.128,5.617l2.432,8.511
				c0.663,2.341,2.299,4.567,4.128,5.622l32.852,18.967c2.457,1.418,4.442,4.857,4.434,7.68l-0.09,31.892
				c-0.004,1.402-0.499,2.389-1.298,2.853l8.457-4.915c0.799-0.464,1.294-1.451,1.298-2.853l0.09-31.892
				C453.527,260.33,451.541,256.891,449.085,255.473z"/>
			<path style="fill:#F9601C;" d="M397.088,221.671c1.823,1.053,3.464,3.282,4.128,5.617l2.432,8.511
				c0.663,2.341,2.299,4.567,4.128,5.622l32.852,18.967c2.457,1.418,4.442,4.857,4.434,7.68l-0.09,31.892
				c-0.008,2.823-2.007,3.962-4.463,2.544L383.691,269.7c-2.457-1.418-4.442-4.857-4.434-7.68l0.033-11.621l0.072-25.383
				l0.024-8.446c0.008-2.823,2.006-3.962,4.463-2.543L397.088,221.671z"/>
		</g>
		<g>
			<g>
				<path style="fill:#260FB2;" d="M280.676,64.938l7.025,4.083c-3.36-1.953-8.012-1.678-13.147,1.287
					c-1.47,0.849-2.901,1.88-4.275,3.047l-7.025-4.083c1.374-1.167,2.805-2.198,4.275-3.047
					C272.663,63.26,277.316,62.986,280.676,64.938z"/>
				<path style="fill:#260FB2;" d="M259.215,64.003l7.025,4.083c-3.023-1.757-7.208-1.51-11.826,1.156
					c-0.815,0.47-1.61,1.003-2.392,1.586l-7.025-4.083c0.782-0.584,1.578-1.116,2.392-1.586
					C252.006,62.493,256.192,62.246,259.215,64.003z"/>
				<path style="fill:#4333DD;" d="M240.094,59.302c-3.328-1.934-7.935-1.662-13.021,1.274c-8.674,5.008-15.922,16.144-17.78,26.548
					l7.025,4.083c1.857-10.404,9.105-21.54,17.78-26.548c5.086-2.937,9.693-3.208,13.021-1.274L240.094,59.302z"/>
				<path style="fill:#260FB2;" d="M192.624,120.254l-7.025-4.083c0.424-10.038,7.441-21.868,16.064-26.847
					c2.756-1.591,5.354-2.293,7.63-2.201l7.025,4.083c-2.276-0.092-4.875,0.61-7.63,2.201
					C200.065,98.386,193.048,110.216,192.624,120.254z"/>
				<path style="fill:#4333DD;" d="M181.199,159.078l-7.025-4.083c-2.741-1.593-4.416-4.951-4.43-10.011
					c-0.03-10.399,6.966-22.964,15.854-28.813l7.025,4.083c-8.889,5.85-15.884,18.414-15.854,28.813
					C176.784,154.127,178.459,157.485,181.199,159.078z"/>
				<g>
					<path style="fill:#725AFF;" d="M234.098,64.659c8.75-5.052,16.083-2.217,17.923,6.169c0.782-0.584,1.578-1.116,2.392-1.586
						c7.401-4.273,13.692-2.331,15.865,4.113c1.374-1.167,2.805-2.198,4.275-3.047c10.208-5.894,18.508-1.156,18.541,10.574
						c0.033,11.73-8.217,24.645-18.425,30.539l-80.723,46.071c-9.457,5.46-17.147,2.443-17.178-8.424
						c-0.029-10.399,6.966-22.964,15.854-28.813c0.424-10.038,7.441-21.868,16.064-26.847c2.756-1.591,5.354-2.293,7.63-2.201
						C218.176,80.803,225.424,69.667,234.098,64.659z"/>
				</g>
			</g>
			<g>
				<polygon style="fill:#F9601C;" points="239.993,145.165 235.498,142.553 235.386,118.38 239.881,120.992 				"/>
				<polygon style="fill:#FFAC1A;" points="246.721,93.545 267.204,105.217 253.693,113.018 253.806,137.191 239.993,145.165 
					239.881,120.992 226.37,128.793 				"/>
				<polygon style="fill:#F9601C;" points="226.37,128.793 221.875,126.18 242.226,90.932 246.721,93.545 				"/>
			</g>
		</g>
		<g>
			<g>
				<g>
					<g>
						<polygon style="fill:#FFFFFF;" points="155.835,200.072 314.601,108.474 314.823,264.105 156.058,355.712 						"/>
					</g>
					<g>
						<polygon style="fill:#4B25E6;" points="314.824,196.97 314.789,196.987 314.598,123.234 155.872,214.81 155.837,200.072 
							314.598,108.47 						"/>
					</g>
				</g>
				<g>
					<g>
						<g>
							<path style="fill:#FFFFFF;" d="M164.993,200.342c1.153-0.665,2.086-0.133,2.09,1.191c0.004,1.324-0.924,2.931-2.076,3.597
								c-1.152,0.665-2.086,0.133-2.09-1.191C162.913,202.614,163.841,201.007,164.993,200.342z"/>
						</g>
						<g>
							<path style="fill:#FFFFFF;" d="M178.288,192.666c1.146-0.662,2.086-0.133,2.09,1.191c0.004,1.324-0.93,2.935-2.077,3.597
								c-1.153,0.665-2.086,0.133-2.09-1.191C176.208,194.938,177.135,193.331,178.288,192.666z"/>
						</g>
						<g>
							<path style="fill:#FFFFFF;" d="M191.577,184.994c1.152-0.665,2.086-0.133,2.09,1.191c0.004,1.324-0.924,2.931-2.077,3.597
								c-1.146,0.662-2.086,0.133-2.09-1.191C189.496,187.266,190.43,185.656,191.577,184.994z"/>
						</g>
					</g>
				</g>
			</g>
			<g>
				<g>
					<polygon style="fill:#725AFF;" points="304.977,142.746 304.975,141.088 304.973,141.089 304.973,141.084 173.068,217.19 
						165.488,221.563 165.684,277.225 305.17,196.743 					"/>
					<g>
						<g>
							<path style="fill:#FFFFFF;" d="M200.587,213.66c4.277-2.469,8.771-2.883,11.657-1.045l-4.345,8.518
								c-1.897-1.557-4.657-1.667-7.165-0.218c-4.446,2.567-7.809,8.532-7.794,13.827c0.015,5.344,3.402,7.46,7.847,4.893
								c2.382-1.375,5.133-4.48,7.142-8.008l4.419,2.891c-3.076,5.515-7.677,10.588-11.954,13.057
								c-8.675,5.009-15.157,1.46-15.185-8.274C185.183,229.748,191.786,218.742,200.587,213.66z"/>
						</g>
						<g>
							<polygon style="fill:#FFFFFF;" points="253.457,183.371 253.551,216.505 246.891,220.35 246.79,199.393 240.132,220.943 
								235.199,223.791 228.441,209.987 228.5,230.968 221.798,234.837 221.704,201.704 229.928,196.956 237.635,211.873 
								245.233,188.119 							"/>
						</g>
						<g>
							<path style="fill:#FFFFFF;" d="M276.142,169.9c4.235-2.445,8.517-3.408,11.525-2.915l-2.814,8.487
								c-3.05-0.227-6.922,0.445-9.311,1.824c-1.811,1.046-3,2.494-2.996,4.007c0.016,5.482,15.185-6.406,15.219,5.512
								c0.019,6.754-5.151,13.194-11.57,16.9c-4.813,2.779-9.836,3.643-13.304,2.384l2.905-8.449
								c2.968,1.222,7.462,0.712,10.464-1.021c2.22-1.282,3.613-3.035,3.608-4.783c-0.016-5.627-15.185,6.544-15.218-5.18
								C264.633,180.471,269.188,173.915,276.142,169.9z"/>
						</g>
					</g>
				</g>
				<g>
					<g>
						<g>
							<polygon style="fill:#FFAC1A;" points="363.071,201.653 363.242,262.057 274.671,313.193 274.499,252.79 							"/>
							<polygon style="fill:#3A1DB2;" points="363.064,210.985 274.52,262.115 274.493,252.791 363.064,201.648 							"/>
						</g>
						<g>
							<g>
								<g>
									<path style="fill:#FFFFFF;" d="M279.432,253.056c0.682-0.394,1.234-0.079,1.237,0.705c0.002,0.784-0.547,1.734-1.229,2.128
										c-0.682,0.394-1.234,0.079-1.237-0.705C278.202,254.401,278.75,253.45,279.432,253.056z"/>
								</g>
								<g>
									<path style="fill:#FFFFFF;" d="M287.299,248.514c0.678-0.392,1.234-0.079,1.237,0.705c0.002,0.784-0.55,1.736-1.229,2.128
										c-0.682,0.394-1.234,0.079-1.237-0.705C286.068,249.859,286.617,248.908,287.299,248.514z"/>
								</g>
								<g>
									<path style="fill:#FFFFFF;" d="M295.162,243.975c0.682-0.394,1.234-0.079,1.237,0.705c0.002,0.784-0.547,1.734-1.229,2.128
										c-0.678,0.392-1.234,0.079-1.237-0.705C293.931,245.319,294.483,244.366,295.162,243.975z"/>
								</g>
							</g>
						</g>
					</g>
					<g>
						<g>
							<polygon style="fill:#3A1DB2;" points="325.929,248.236 340.97,246.721 340.986,252.372 325.985,268.207 325.971,263.29 
								337.104,251.783 325.943,253.153 							"/>
						</g>
						<g>
							<polygon style="fill:#3A1DB2;" points="327.522,238.786 316.709,280.693 311.658,283.609 322.471,241.702 							"/>
						</g>
						<g>
							<polygon style="fill:#3A1DB2;" points="311.75,256.73 311.764,261.647 300.631,273.154 311.793,271.789 311.807,276.701 
								296.765,278.216 296.749,272.565 							"/>
						</g>
					</g>
				</g>
				<g>
					<polygon style="fill:#FFAC1A;" points="224.646,251.13 173.068,280.89 165.488,285.263 165.684,340.925 224.646,306.905 					
						"/>
					<g>
						<polygon style="fill:#FFFFFF;" points="200.737,306.745 200.737,315.279 218.908,304.794 218.908,296.26 						"/>
						<g>
							<polygon style="fill:#4B25E6;" points="174.482,320.377 174.589,323.596 194.885,311.885 194.885,308.604 							"/>
							<polygon style="fill:#725AFF;" points="191.652,316.937 174.482,326.844 174.589,330.062 191.652,320.217 							"/>
						</g>
						<g>
							<g>
								<polygon style="fill:#4B25E6;" points="218.908,265.031 200.537,275.612 200.645,278.83 218.908,268.312 								"/>
								<polygon style="fill:#725AFF;" points="218.908,271.498 200.537,282.078 200.645,285.297 218.908,274.778 								"/>
							</g>
							<g>
								<polygon style="fill:#4B25E6;" points="218.908,278.706 200.537,289.286 200.645,292.505 218.908,281.986 								"/>
								<polygon style="fill:#725AFF;" points="218.908,285.172 200.537,295.753 200.645,298.971 218.908,288.453 								"/>
							</g>
						</g>
						<g>
							<g>
								<path style="fill:#4B25E6;" d="M183.834,294.174l11.975-6.914c0.011,3.801-1.319,8.017-3.48,11.76
									c-2.161,3.743-5.153,7.012-8.456,8.919c-3.308,1.91-6.308,2.1-8.483,0.861c-2.175-1.24-3.525-3.909-3.535-7.71
									c-0.011-3.801,1.319-8.017,3.48-11.76c2.161-3.743,5.153-7.012,8.46-8.922L183.834,294.174z"/>
							</g>
							<g>
								<path style="fill:#FFFFFF;" d="M183.796,280.409c3.303-1.907,6.303-2.097,8.478-0.858c2.175,1.239,3.525,3.909,3.536,7.71
									l-11.975,6.914L183.796,280.409z"/>
							</g>
						</g>
					</g>
				</g>
				<g>
					<polygon style="fill:#725AFF;" points="263.873,229.676 239.592,243.686 232.013,248.059 232.209,303.721 263.873,285.451 
											"/>
					<g>
						<polygon style="fill:#FFFFFF;" points="259.265,242.117 243.135,251.423 238.1,254.328 238.23,257.101 259.265,244.964 						
							"/>
						<polygon style="fill:#FFFFFF;" points="259.265,253.558 243.135,262.865 238.1,265.77 238.23,268.543 259.265,256.405 						
							"/>
						<polygon style="fill:#FFAC1A;" points="259.265,264.999 243.135,274.306 238.1,277.211 238.23,279.984 259.265,267.847 						
							"/>
						<polygon style="fill:#FFAC1A;" points="259.265,276.44 243.135,285.747 238.1,288.652 238.23,291.425 259.265,279.288 						
							"/>
					</g>
				</g>
				<g>
					<polygon style="fill:#FFAC1A;" points="306.005,207.255 281.724,221.265 274.145,225.637 274.341,242.832 306.005,224.562 
											"/>
					<polygon style="fill:#FFFFFF;" points="300.229,217.54 284.752,226.469 279.921,229.257 280.046,233.435 300.229,221.79 					
						"/>
				</g>
			</g>
		</g>
		<g>
			<path style="fill:#F9601C;" d="M129.753,142.862c-0.6-0.348-1.43-0.299-2.346,0.229L45.86,190.173
				c-1.821,1.051-3.301,3.605-3.295,5.697l0.134,47.364c0.003,1.039,0.372,1.772,0.966,2.117l5.361,3.293
				c-0.594-0.345-0.963-1.078-0.966-2.117l-0.134-47.364c-0.006-2.092,1.474-4.646,3.295-5.697l81.547-47.081
				c0.916-0.529,1.747-0.578,2.346-0.229L129.753,142.862z"/>
			<g>
				<path style="fill:#FFAC1A;" d="M51.221,193.466c-1.821,1.051-3.301,3.605-3.295,5.697l0.134,47.364
					c0.006,2.092,1.495,2.941,3.316,1.89l67.755-39.118c1.532-0.884,2.987-0.987,4.022-0.281l7.356,5.017
					c0.685,0.466,1.558,0.347,2.416-0.149c1.694-0.978,3.327-3.425,3.32-5.726l-0.17-59.889c-0.006-2.092-1.488-2.936-3.308-1.885
					L51.221,193.466z"/>
			</g>
			<g>
				<g>
					<polygon style="fill:#FFFFFF;" points="64.505,199.67 64.505,203.446 118.794,172.1 118.794,168.324 					"/>
				</g>
				<g>
					<polygon style="fill:#FFFFFF;" points="64.505,210.831 64.505,214.607 118.794,183.261 118.794,179.485 					"/>
				</g>
				<g>
					<polygon style="fill:#FFFFFF;" points="109.863,195.801 74.167,216.412 74.167,220.188 109.863,199.577 					"/>
				</g>
			</g>
		</g>
		<g>
			<g>
				<polygon style="fill:#4B25E6;" points="315.291,66.791 317.625,73.335 323.988,74.982 317.615,78.419 315.256,85.622 
					312.913,79.08 306.55,77.433 312.923,73.995 				"/>
			</g>
			<g>
				<polygon style="fill:#FFAC1A;" points="403.671,112.46 404.942,116.024 408.407,116.921 404.937,118.793 403.652,122.715 
					402.376,119.153 398.911,118.255 402.381,116.384 				"/>
			</g>
			<g>
				<polygon style="fill:#4B25E6;" points="375.885,283.048 378.039,289.088 383.913,290.609 378.03,293.782 375.852,300.431 
					373.69,294.392 367.816,292.871 373.698,289.698 				"/>
			</g>
			<g>
				<polygon style="fill:#FFAC1A;" points="173.159,438.332 175.731,445.543 182.743,447.358 175.721,451.146 173.121,459.084 
					170.539,451.874 163.527,450.059 170.549,446.271 				"/>
			</g>
			<g>
				<polygon style="fill:#FFAC1A;" points="149.466,97.399 151.621,103.439 157.495,104.96 151.612,108.133 149.434,114.782 
					147.271,108.743 141.397,107.223 147.28,104.049 				"/>
			</g>
			<g>
				<polygon style="fill:#4B25E6;" points="87.906,92.735 90.025,98.676 95.803,100.172 90.017,103.293 87.874,109.833 
					85.747,103.893 79.969,102.397 85.756,99.276 				"/>
			</g>
			<g>
				<polygon style="fill:#4B25E6;" points="94.727,239.206 96.752,244.886 102.276,246.316 96.744,249.3 94.696,255.552 
					92.663,249.873 87.139,248.443 92.671,245.46 				"/>
			</g>
		</g>
	</g>
</g>
</svg>
