<?xml version="1.0" encoding="utf-8"?>
<!-- Generator: Adobe Illustrator 27.5.0, SVG Export Plug-In . SVG Version: 6.00 Build 0)  -->
<svg version="1.1" id="Layer_1" xmlns="http://www.w3.org/2000/svg" xmlns:xlink="http://www.w3.org/1999/xlink" x="0px" y="0px"
	 viewBox="0 0 1200 1200" style="enable-background:new 0 0 1200 1200;" xml:space="preserve">
<rect y="1" style="fill:#FFFFFF;" width="1200" height="1200"/>
<g>
	<g>
		<g>
			<path style="fill:#52B5D8;" d="M170.799,606.158c-1.353-117.173,44.833-234.475,137.365-320.191
				c92.532-85.717,213.019-122.81,329.748-112.511l3.119-2.891c-8.123-0.767-16.299-1.333-24.52-1.646
				c-115.41-4.415-225.635,36.383-310.364,114.869c-84.73,78.489-133.825,185.276-138.237,300.689
				c-0.315,8.221-0.374,16.412-0.233,24.576L170.799,606.158z"/>
			<path style="fill:#52B5D8;" d="M970.682,384.173l2.311-2.14c-15.678-26.588-34.311-51.693-55.787-74.878
				c-30.553-32.98-65.406-60.535-103.371-82.182l-2.414,2.236c37.647,21.264,72.69,48.586,103.606,81.964
				C936.685,332.553,955.213,357.734,970.682,384.173z"/>
			<path style="fill:#52B5D8;" d="M1025.902,547.5c16.475,132.594-28.805,271.009-134.086,368.537
				c-173.707,160.911-445.944,150.503-606.858-23.209c-30.918-33.374-55.486-70.399-73.812-109.561l-2.415,2.237
				c18.687,39.507,43.497,76.365,74.049,109.345c78.489,84.728,185.277,133.825,300.686,138.234
				c115.413,4.412,225.638-36.379,310.372-114.871c84.728-78.484,133.822-185.273,138.236-300.689
				c0.938-24.537-0.188-48.838-3.266-72.714L1025.902,547.5z"/>
		</g>
		<g>
			<path style="fill:#52B5D8;" d="M287.866,429.908c13.123-23.937,29.2-46.731,48.31-67.832
				c129.047-142.494,348.068-156.103,493.701-32.784l1.908-2.109c-69.697-59.096-157.828-89.055-249.534-84.515
				c-95.713,4.741-183.853,46.469-248.181,117.5c-19.468,21.495-36.027,44.904-49.556,69.739H287.866z"/>
			<path style="fill:#52B5D8;" d="M244.824,580.484h-3.034c-0.701,12.656-0.764,25.422-0.126,38.264
				c4.54,91.703,43.056,176.446,108.751,239.966l1.91-2.112C275.451,782.179,239.147,680.54,244.824,580.484z"/>
			<path style="fill:#52B5D8;" d="M915.527,429.908c-3.607-6.643-7.434-13.176-11.469-19.589l-2.088,2.305
				c3.543,5.68,6.894,11.449,10.09,17.284H915.527z"/>
			<path style="fill:#52B5D8;" d="M958.166,580.484h-3.035c5.326,91.967-24.734,185.924-91.316,259.448
				C754.73,960.381,581.361,988.708,442.371,920.108l-2.086,2.307c54.382,27.134,115.088,40.01,177.454,36.918
				c95.713-4.737,183.854-46.468,248.182-117.495c64.33-71.029,97.146-162.865,92.408-258.578
				C958.283,582.332,958.221,581.409,958.166,580.484z"/>
		</g>
		<g>
			<path style="fill:#52B5D8;" d="M745.236,957.565c5.236-2.187,10.488-4.517,15.613-6.932l-1.215-2.567
				c-5.084,2.395-10.299,4.71-15.492,6.878L745.236,957.565z"/>
			<path style="fill:#52B5D8;" d="M288.54,830.065l-2.278,1.697c3.388,4.546,6.919,9.075,10.493,13.445l2.204-1.793
				C295.409,839.07,291.903,834.575,288.54,830.065z"/>
			<path style="fill:#52B5D8;" d="M269.535,802.065l-2.42,1.488c2.965,4.812,6.079,9.629,9.258,14.313l2.351-1.591
				C275.569,811.621,272.478,806.84,269.535,802.065z"/>
			<path style="fill:#52B5D8;" d="M228.339,709.398l-2.726,0.801c1.596,5.45,3.332,10.928,5.163,16.285l2.688-0.917
				C231.647,720.248,229.922,714.809,228.339,709.398z"/>
			<path style="fill:#52B5D8;" d="M333.615,880.551l-1.944,2.069c4.125,3.875,8.401,7.712,12.705,11.412l1.85-2.155
				C341.955,888.205,337.708,884.392,333.615,880.551z"/>
			<path style="fill:#52B5D8;" d="M253.08,772.469l-2.546,1.268c2.535,5.067,5.217,10.155,7.972,15.109l2.481-1.379
				C258.252,782.547,255.59,777.498,253.08,772.469z"/>
			<path style="fill:#52B5D8;" d="M239.303,741.486l-2.642,1.037c2.073,5.282,4.287,10.586,6.588,15.76l2.595-1.151
				C243.564,751.992,241.36,746.731,239.303,741.486z"/>
			<path style="fill:#52B5D8;" d="M713.16,969.31c5.406-1.707,10.846-3.563,16.168-5.513l-0.977-2.667
				c-5.283,1.934-10.684,3.779-16.047,5.477L713.16,969.31z"/>
			<path style="fill:#52B5D8;" d="M646.168,981.274l0.367,2.819c5.623-0.739,11.305-1.614,16.885-2.595l-0.492-2.8
				C657.387,979.678,651.748,980.544,646.168,981.274z"/>
			<path style="fill:#52B5D8;" d="M679.56,975.394l0.613,2.775c5.537-1.229,11.121-2.595,16.59-4.063l-0.732-2.745
				C690.6,972.817,685.06,974.177,679.56,975.394z"/>
			<path style="fill:#52B5D8;" d="M359.325,902.639l-1.753,2.238c4.463,3.502,9.058,6.953,13.664,10.255l1.654-2.313
				C368.319,909.545,363.756,906.117,359.325,902.639z"/>
			<path style="fill:#52B5D8;" d="M386.891,922.398l-1.554,2.382c4.753,3.098,9.638,6.131,14.52,9.017l1.445-2.445
				C396.456,928.484,391.608,925.477,386.891,922.398z"/>
			<path style="fill:#52B5D8;" d="M457.347,958.591c-3.564-1.395-7.121-2.816-10.624-4.303l-1.108,2.617
				c4.001,1.699,8.076,3.32,12.152,4.89L457.347,958.591z"/>
			<path style="fill:#52B5D8;" d="M416.097,939.666l-1.338,2.506c5.009,2.667,10.144,5.258,15.265,7.706l1.222-2.562
				C426.163,944.884,421.065,942.31,416.097,939.666z"/>
			<path style="fill:#52B5D8;" d="M309.956,856.293l-2.119,1.897c3.772,4.223,7.692,8.42,11.648,12.475l2.033-1.984
				C317.592,864.654,313.7,860.487,309.956,856.293z"/>
			<path style="fill:#52B5D8;" d="M299.899,357.906l-2.194-1.804c-3.607,4.391-7.153,8.913-10.545,13.438l2.273,1.705
				C292.802,366.752,296.324,362.264,299.899,357.906z"/>
			<path style="fill:#52B5D8;" d="M345.446,307.388c-4.297,3.675-8.579,7.501-12.725,11.375l1.94,2.075
				c4.116-3.843,8.363-7.641,12.629-11.29L345.446,307.388z"/>
			<path style="fill:#52B5D8;" d="M320.509,330.688c-3.96,4.043-7.891,8.23-11.681,12.455l2.115,1.897
				c3.762-4.193,7.661-8.353,11.594-12.363L320.509,330.688z"/>
			<path style="fill:#52B5D8;" d="M369.897,288.16c-3.791,2.745-7.565,5.558-11.242,8.428l1.746,2.24
				c3.247-2.536,6.573-5.02,9.915-7.46L369.897,288.16z"/>
			<path style="fill:#52B5D8;" d="M528.993,223.759l-0.494-2.797c-5.038,0.892-10.11,1.91-15.127,3.004l0.372,2.826
				C518.798,225.685,523.914,224.659,528.993,223.759z"/>
			<path style="fill:#52B5D8;" d="M612.543,984.22l0.367,2.828c5.533-0.248,11.131-0.615,16.648-1.097l-0.25-2.828
				C623.756,983.609,618.111,983.981,612.543,984.22z"/>
			<path style="fill:#52B5D8;" d="M277.213,383.433c-3.2,4.682-6.338,9.498-9.33,14.318l2.415,1.5
				c2.967-4.784,6.084-9.569,9.261-14.216L277.213,383.433z"/>
			<path style="fill:#52B5D8;" d="M259.194,412.471c-2.772,4.942-5.476,10.018-8.032,15.09l2.535,1.281
				c2.54-5.037,5.222-10.075,7.974-14.982L259.194,412.471z"/>
			<path style="fill:#52B5D8;" d="M221.381,507.581c-1.379,5.509-2.652,11.129-3.784,16.702l2.785,0.565
				c1.124-5.531,2.388-11.109,3.754-16.578L221.381,507.581z"/>
			<path style="fill:#52B5D8;" d="M243.796,442.996c-2.33,5.178-4.575,10.477-6.671,15.751l2.64,1.049
				c2.081-5.234,4.309-10.495,6.623-15.634L243.796,442.996z"/>
			<path style="fill:#52B5D8;" d="M231.154,474.781c-1.862,5.366-3.631,10.846-5.252,16.288l2.723,0.811
				c1.608-5.403,3.365-10.843,5.214-16.168L231.154,474.781z"/>
			<path style="fill:#52B5D8;" d="M966.307,711.725c1.633-5.453,3.16-11.004,4.541-16.508l-2.756-0.691
				c-1.371,5.457-2.891,10.97-4.508,16.384L966.307,711.725z"/>
			<path style="fill:#52B5D8;" d="M946.65,445.642l2.598-1.15c-2.295-5.179-4.738-10.379-7.268-15.46l-2.547,1.266
				C941.945,435.341,944.373,440.505,946.65,445.642z"/>
			<path style="fill:#52B5D8;" d="M893.637,359.301l2.201-1.796c-3.582-4.393-7.305-8.763-11.065-12.988l-2.123,1.891
				C886.383,350.601,890.082,354.939,893.637,359.301z"/>
			<path style="fill:#52B5D8;" d="M776.137,943.012c5-2.634,10.014-5.42,14.895-8.275l-1.434-2.452
				c-4.846,2.836-9.822,5.603-14.785,8.214L776.137,943.012z"/>
			<path style="fill:#52B5D8;" d="M913.838,386.463l2.352-1.593c-3.168-4.688-6.492-9.364-9.867-13.906l-2.283,1.697
				C907.391,377.169,910.689,381.813,913.838,386.463z"/>
			<path style="fill:#52B5D8;" d="M597.309,217.796l0.008-2.841c-5.664-0.011-11.413,0.106-17.083,0.347l0.123,2.838
				C585.983,217.902,591.691,217.785,597.309,217.796z"/>
			<path style="fill:#52B5D8;" d="M545.751,221.168l0.826-0.111c5.597-0.729,11.273-1.344,16.857-1.826l-0.245-2.831
				c-5.629,0.486-11.337,1.106-16.986,1.842l-0.82,0.107L545.751,221.168z"/>
			<path style="fill:#52B5D8;" d="M631.178,219.356l0.258-2.829c-5.646-0.511-11.383-0.904-17.045-1.164l-0.129,2.837
				C619.883,218.46,625.572,218.849,631.178,219.356z"/>
			<path style="fill:#52B5D8;" d="M730.223,241.961l0.998-2.661c-5.338-1.995-10.768-3.892-16.16-5.64l-0.875,2.703
				C719.533,238.097,724.928,239.98,730.223,241.961z"/>
			<path style="fill:#52B5D8;" d="M697.908,231.485l0.756-2.741c-5.465-1.507-11.051-2.912-16.604-4.181l-0.631,2.77
				C686.939,228.59,692.484,229.988,697.908,231.485z"/>
			<path style="fill:#52B5D8;" d="M664.771,223.922l0.51-2.793c-5.588-1.017-11.266-1.918-16.873-2.679l-0.383,2.814
				C653.596,222.021,659.227,222.915,664.771,223.922z"/>
			<path style="fill:#52B5D8;" d="M931.545,415.29l2.482-1.38c-2.748-4.953-5.639-9.904-8.594-14.715l-2.422,1.487
				C925.943,405.459,928.814,410.374,931.545,415.29z"/>
			<path style="fill:#52B5D8;" d="M883.223,859.559c3.791-4.218,7.537-8.567,11.137-12.948l-2.193-1.804
				c-3.572,4.342-7.293,8.667-11.059,12.854L883.223,859.559z"/>
			<path style="fill:#52B5D8;" d="M904.918,833.185c3.402-4.525,6.756-9.197,9.961-13.882l-2.344-1.606
				c-3.186,4.652-6.512,9.287-9.889,13.783L904.918,833.185z"/>
			<path style="fill:#52B5D8;" d="M924.223,804.994c2.998-4.817,5.926-9.767,8.709-14.707l-2.477-1.393
				c-2.764,4.901-5.67,9.817-8.645,14.599L924.223,804.994z"/>
			<path style="fill:#52B5D8;" d="M805.551,925.81c4.746-3.067,9.496-6.283,14.111-9.567l-1.643-2.317
				c-4.586,3.262-9.299,6.456-14.012,9.497L805.551,925.81z"/>
			<path style="fill:#52B5D8;" d="M940.98,775.204c2.563-5.065,5.043-10.256,7.381-15.426l-2.592-1.172
				c-2.314,5.138-4.779,10.284-7.322,15.315L940.98,775.204z"/>
			<path style="fill:#52B5D8;" d="M833.344,906.058c4.459-3.473,8.906-7.104,13.225-10.785l-1.846-2.16
				c-4.281,3.654-8.701,7.256-13.125,10.704L833.344,906.058z"/>
			<path style="fill:#52B5D8;" d="M859.305,883.915c4.143-3.867,8.258-7.876,12.225-11.911l-2.031-1.992
				c-3.934,4.007-8.018,7.989-12.133,11.825L859.305,883.915z"/>
			<path style="fill:#52B5D8;" d="M975.08,543.026l2.813-0.431c-0.865-5.63-1.857-11.292-2.953-16.826l-2.789,0.553
				C973.24,531.816,974.227,537.435,975.08,543.026z"/>
			<path style="fill:#52B5D8;" d="M955.049,744.034c2.106-5.267,4.119-10.662,5.986-16.025l-2.684-0.938
				c-1.855,5.328-3.855,10.682-5.941,15.91L955.049,744.034z"/>
			<path style="fill:#52B5D8;" d="M958.996,477.217l2.691-0.916c-1.83-5.367-3.803-10.765-5.865-16.041l-2.645,1.032
				C955.227,466.531,957.184,471.889,958.996,477.217z"/>
			<path style="fill:#52B5D8;" d="M968.492,509.765l2.76-0.674c-1.342-5.499-2.83-11.051-4.416-16.499l-2.73,0.795
				C965.685,498.797,967.158,504.306,968.492,509.765z"/>
			<path style="fill:#52B5D8;" d="M981.584,576.553c-0.359-5.63-0.857-11.355-1.477-17.017l-2.822,0.31
				c0.611,5.618,1.104,11.302,1.467,16.891L981.584,576.553z"/>
			<path style="fill:#52B5D8;" d="M974.646,678.519c1.135-5.556,2.162-11.212,3.045-16.811l-2.805-0.447
				c-0.877,5.562-1.896,11.175-3.021,16.689L974.646,678.519z"/>
			<path style="fill:#52B5D8;" d="M979.986,644.777c0.633-5.629,1.15-11.353,1.533-17.014l-2.836-0.191
				c-0.381,5.615-0.891,11.298-1.522,16.889L979.986,644.777z"/>
			<path style="fill:#52B5D8;" d="M982.299,610.7c0.133-5.675,0.139-11.424,0.021-17.084l-2.84,0.061
				c0.115,5.62,0.109,11.321-0.021,16.957L982.299,610.7z"/>
		</g>
	</g>
	<g>
		<defs>
			<path id="SVGID_1_" d="M913.449,600.999c0,173.115-140.34,313.448-313.452,313.448c-173.111,0-313.446-140.333-313.446-313.448
				c0-173.113,140.335-313.447,313.446-313.447C773.109,287.552,913.449,427.886,913.449,600.999z"/>
		</defs>
		<use xlink:href="#SVGID_1_"  style="overflow:visible;fill:#D3EAED;"/>
		<clipPath id="SVGID_00000155836633207759264860000000833896867793742779_">
			<use xlink:href="#SVGID_1_"  style="overflow:visible;"/>
		</clipPath>
		<g style="clip-path:url(#SVGID_00000155836633207759264860000000833896867793742779_);">
			<g>
				<path style="fill:#FFFFFF;" d="M309.536,672.182c-1,4.823-1.875,9.697-2.599,14.615c-0.774,4.912-1.408,9.871-1.907,14.857
					c-1.01,9.979-1.517,20.104-1.517,30.356c0,10.242,0.507,20.371,1.517,30.358c0.499,4.987,1.133,9.946,1.907,14.854
					c0.724,4.915,1.599,9.789,2.599,14.619c0.985,4.84,2.093,9.622,3.307,14.361c2.445,9.483,5.348,18.787,8.669,27.891
					c1.671,4.55,3.436,9.03,5.325,13.479c1.874,4.434,3.85,8.826,5.946,13.153c1.04,2.158,2.108,4.31,3.188,6.443
					c2.186,4.271,4.48,8.471,6.862,12.625c7.159,12.429,15.171,24.294,23.98,35.521c4.418,5.594,9.024,11.038,13.82,16.315
					c3.184,3.521,6.477,6.96,9.825,10.317c3.359,3.349,6.804,6.624,10.307,9.824c15.813,14.376,33.18,27.066,51.85,37.79
					c4.139,2.388,8.346,4.676,12.615,6.862c8.525,4.361,17.314,8.332,26.294,11.888c4.49,1.778,9.032,3.44,13.644,4.987
					c29.893,10.116,61.912,15.607,95.202,15.607c22.725,0,44.846-2.559,66.071-7.395c9.93-2.247,19.662-4.991,29.166-8.2
					c4.596-1.56,9.141-3.222,13.648-5c8.98-3.549,17.762-7.511,26.293-11.888c4.262-2.187,8.473-4.475,12.611-6.859
					c18.656-10.717,36.019-23.417,51.859-37.793c3.521-3.194,6.965-6.476,10.299-9.821c3.352-3.36,6.646-6.799,9.834-10.314
					c4.791-5.273,9.381-10.714,13.799-16.32c6.973-8.883,13.44-18.156,19.365-27.81c1.57-2.549,3.119-5.116,4.629-7.712
					c2.393-4.154,4.676-8.354,6.848-12.618c1.103-2.14,2.168-4.286,3.219-6.45c2.076-4.323,4.059-8.704,5.947-13.153
					c1.871-4.436,3.643-8.93,5.309-13.479c3.33-9.104,6.229-18.407,8.654-27.891c1.231-4.739,2.33-9.522,3.322-14.352
					c0.988-4.84,1.846-9.714,2.615-14.629c0.74-4.908,1.375-9.861,1.889-14.846c1-9.986,1.523-20.112,1.523-30.367
					c0-10.245-0.523-20.371-1.523-30.356c-0.514-4.977-1.137-9.945-1.889-14.857c-0.769-4.918-1.627-9.792-2.615-14.615
					c-0.992-4.83-2.092-9.626-3.322-14.361c-2.426-9.486-5.324-18.798-8.654-27.895c-0.832-2.269-1.688-4.527-2.584-6.774
					c-2.658-6.743-5.539-13.36-8.688-19.853c-1.035-2.158-2.121-4.31-3.203-6.443c-2.191-4.273-4.477-8.474-6.848-12.614
					c-7.143-12.437-15.182-24.307-23.994-35.525c-4.418-5.599-9.025-11.051-13.799-16.325c-3.211-3.517-6.482-6.95-9.834-10.315
					c-3.359-3.352-6.803-6.631-10.299-9.829c-6.816-6.185-13.916-12.061-21.275-17.602c-9.734-7.326-19.959-14.08-30.584-20.196
					c-4.139-2.375-8.35-4.665-12.611-6.854c-1.943-0.985-3.898-1.966-5.865-2.905c-2.367-1.135-4.729-2.263-7.123-3.336
					c-1-0.454-2.006-0.88-3.002-1.332c-3.406-1.495-6.826-2.934-10.303-4.3c-0.055-0.025-0.104-0.041-0.156-0.071
					c-3.697-1.447-7.449-2.805-11.199-4.121c-0.771-0.272-1.523-0.549-2.305-0.807c-8.783-2.974-17.756-5.535-26.9-7.691
					c-2.857-0.68-5.719-1.311-8.605-1.908c-2.086-0.424-4.172-0.817-6.271-1.197c-15.606-2.844-31.645-4.441-48.018-4.743
					c-1.799-0.027-3.605-0.061-5.43-0.061c-3.075,0-6.118,0.061-9.185,0.157c-30.005,0.913-58.892,6.264-86.03,15.45
					c-4.599,1.553-9.153,3.22-13.631,4.994c-1.38,0.544-2.766,1.118-4.147,1.683c-3.086,1.268-6.158,2.577-9.18,3.947
					c-4.388,1.978-8.699,4.064-12.984,6.257c-4.267,2.181-8.471,4.469-12.605,6.849c-16.674,9.595-32.34,20.754-46.764,33.28
					c-1.713,1.488-3.408,2.99-5.079,4.509c-3.521,3.202-6.951,6.484-10.324,9.841c-3.355,3.353-6.641,6.785-9.82,10.302
					c-4.783,5.274-9.389,10.726-13.807,16.325c-8.809,11.218-16.821,23.088-23.992,35.525c-2.395,4.14-4.664,8.359-6.85,12.614
					c-1.102,2.133-2.159,4.285-3.206,6.443c-3.123,6.492-6.01,13.109-8.681,19.859c-0.884,2.24-1.753,4.508-2.571,6.773
					c-3.332,9.098-6.237,18.402-8.672,27.898C311.628,662.547,310.52,667.352,309.536,672.182z"/>
				<g>
					<path style="fill:#52B5D8;" d="M453.422,613.044c-4.584-0.415-0.431-0.06-4.361,9.271c-3.055,7.256-0.959,9.357,4.361,11.702
						c2.174,0.95,4.887,1.948,7.997,3.345c10.756,4.84,12.905-2.152,9.68-9.138c-3.229-6.979-4.836-15.585-16.123-15.05
						C454.372,613.129,453.869,613.082,453.422,613.044z"/>
					<path style="fill:#52B5D8;" d="M313.544,725.308c7.187-2.87,20.818-6.46,29.428,5.024c3.826,5.105,6.66,8.226,8.633,9.23
						c2.457,1.255,3.571-0.78,3.571-6.359c0-10.05-2.873-15.789,0.714-21.532c2.463-3.941,9.675-7.211,13.945-10.965
						c1.945-1.706,3.279-3.516,3.279-5.538c0-6.46,4.311-24.398,12.196-24.398c4.77,0,11.651-11.65,13.634-13.638
						c1.885-1.879,4.257-3.049,6.907-4.314c4.191-1.992,9.068-4.188,13.755-9.688c0.294-0.343,0.583-0.701,0.87-1.066
						c3.976-5.063,2.492-10.293-0.87-14.251c-3.325-3.905-8.482-6.561-12.052-6.561c-5.538,0,4.759-5.569,12.052-6.447
						c2.141-0.259,4.032-0.11,5.176,0.702c1.751,1.255,7.459,6.144,9.331,2.875c2.747-4.811,8.134-8.31,19.308-8.593
						c0.491-0.013,0.999-0.022,1.501-0.022c8.571,0,2.273-6.017-1.501-11.336c-1.589-2.256-10.698-13.06-16.438-18.8
						c-4.173-4.179-4.557-14.422-8.04-19.977c-1.313-2.086-3.052-3.513-5.592-3.707c-1.727-0.13-2.914,0.003-3.746,0.332
						c-3.661,1.436-0.457,6.521-6.308,8.279c-3.184,0.956-14.188-14.463-19.015-17.911c-5.576-3.995-13.03-7.452-19.216-7.97
						c-1.771,2.069-3.518,4.153-5.233,6.267c-1.012,1.254-2.023,2.509-3.024,3.775c-2.204,2.809-4.352,5.65-6.452,8.533
						c0.291,2.528,0.782,5.025,1.266,7.306c2.159,10.047,7.183,17.221,1.438,17.221c-5.739,0-15.792,15.4-15.792,12.2
						c0-2.693-2.379-4.77-6.211-6.639c-1.75,3.137-3.445,6.322-5.091,9.519c-1.102,2.133-2.159,4.285-3.206,6.443
						c-3.123,6.492-6.01,13.109-8.681,19.859c-0.884,2.24-1.753,4.508-2.571,6.773c-3.332,9.098-6.237,18.402-8.672,27.898
						c-1.211,4.717-2.319,9.522-3.304,14.352c-1,4.823-1.875,9.697-2.599,14.615c-0.774,4.912-1.408,9.871-1.907,14.857
						c-0.824,8.059-1.307,16.215-1.46,24.465C307.026,726.32,310.492,726.538,313.544,725.308z"/>
					<path style="fill:#52B5D8;" d="M405.852,540.148c3.127,1.169,5.724,2.186,7.448,2.879c2.355,0.949,4.638,0.416,6.308-1.025
						c2.994-2.58,4.013-8.089,0-13.308c-0.568-0.735-1.229-1.458-2.003-2.176c-7.344-6.771-4.454-10.438,2.003-10.298
						c1.745,0.042,3.752,0.358,5.894,0.974c1.449,0.411,2.591,0.447,3.444,0.198c2.906-0.831,2.504-4.998,0-8.962
						c-1.849-2.914-4.821-5.728-8.468-7.022c-0.302-0.114-0.588-0.234-0.87-0.365c-1.166-0.568-2.121-1.349-2.918-2.283
						c-3.682,2.907-7.299,5.894-10.837,8.966l-0.009,0.013c-1.713,1.488-3.408,2.99-5.079,4.509
						c-2.19,1.995-4.342,4.015-6.479,6.066c-1.285,1.251-2.569,2.504-3.845,3.776c-3.307,3.311-6.56,6.709-9.697,10.172
						c4.333,0.984,9.043,2.369,13.543,3.836C398.465,537.452,402.47,538.887,405.852,540.148z"/>
					<path style="fill:#52B5D8;" d="M671.725,606.241c1.746-0.532,5.078-1.763,4.537-4.393
						c-2.699-13.048,11.582-19.844,3.246-20.441c-0.391-0.05-0.674-0.373-1.006-0.244c-11.621,4.434-11.711,10.674-13.361,18.119
						C663.975,604.529,667.969,607.387,671.725,606.241z"/>
					<path style="fill:#52B5D8;" d="M743.619,567.951c5.291-3.784,9.836,4.542,12.107,12.111c1.723,5.746,4.762,0.582,8.438-2.24
						c1.16-0.891,0.227-12.673,1.502-12.673c5.295,0,9.734,4.318,15.785-1.735c6.06-6.051-5.299-13.624-2.266-21.945
						c3.025-8.325,12.102-12.104,14.373-20.43c1.393-5.086,7.869-5.939,11.31-4.272c-1.604-1.525-3.225-3.033-4.852-4.518
						c-6.816-6.185-13.916-12.061-21.275-17.602c-1.707-1.281-3.422-2.545-5.146-3.786c-3.172,2.505,1.326,7.855-1.707,11.263
						c-5.348,6-11.92,18.085-14.799,22.043c-6.063,8.327-22.555,7.468-30.127,15.792c-7.561,8.324-10.311,26.126-3.5,36.719
						C730.275,587.268,738.316,571.733,743.619,567.951z"/>
					<path style="fill:#52B5D8;" d="M686.908,590.229c-10.262,4.279-12.537,6.416-4.756,14.54c0.896,0.932,2.873-1.275,9.625,1.271
						c2.709,1.02,5.635-2.128,8.822-2.128c11.117,0-0.859-18.816,0.852-24.797c1.645-5.736,0.924-20.111-9.674-19.793
						c-0.467,0.009-0.941,0.05-1.445,0.121C682.633,558.588,697.172,585.956,686.908,590.229z"/>
					<path style="fill:#52B5D8;" d="M626.17,534.9c1.647-0.68,3.209-1.534,4.65-2.487c2.443-1.608,4.547-3.505,6.152-5.342
						c5.016-5.735,1.623-12.667-6.152-12.752c-1.414-0.009-9.481-16.039-11.162-15.557l0,0c-5.988-0.852-11.566,8.142-19.266,4.728
						c-1.365-0.614-13.783,6.34-3.928,20.535c3.415,4.921,0,0,9.174,7.726c0.17,0.148,0.357,0.3,0.551,0.447
						C613.049,537.594,620.191,537.365,626.17,534.9z"/>
					<path style="fill:#52B5D8;" d="M895.746,701.654c-0.514-4.977-1.137-9.945-1.889-14.857c-0.769-4.918-1.627-9.792-2.615-14.615
						c-0.992-4.83-2.092-9.626-3.322-14.361c-2.426-9.486-5.324-18.798-8.654-27.895c-0.832-2.269-1.688-4.527-2.584-6.774
						c-2.658-6.743-5.539-13.36-8.688-19.853c-1.035-2.158-2.121-4.31-3.203-6.443c-2.191-4.273-4.477-8.474-6.848-12.614
						c-7.143-12.437-15.182-24.307-23.994-35.525c-4.418-5.599-9.025-11.051-13.799-16.325c-3.211-3.517-6.482-6.95-9.834-10.315
						c-1.145-1.148-2.301-2.284-3.471-3.411c0.422,1.059,0.164,2.379-1.174,3.885c-6.055,6.813-17.414,17.406-13.621,26.485
						c3.783,9.079,6.049,10.595,12.859,17.403c6.813,6.812-8.322,15.14-14.375,20.43c-6.051,5.302-24.672-1.206-26.371-0.769
						c-4.279,1.106-20.545-3.765-26.604-3.765c-6.051,0-4.535,11.349-9.838,16.645c-4.619,4.627-12.131,10.402-20.006,13.306
						c-1.146,0.422-2.299,0.786-3.449,1.073c-0.525,0.129-1.039,0.245-1.527,0.346c-7.824,1.602-10.047-0.708-13.611,5.705
						c-3.777,6.813,2.617,32.92-3.674,34.952c-1.219,0.399-13.611-0.793-20.52-0.893h-0.769c-7.576,0-3.795,6.806-7.576,13.618
						c-3.775,6.81,1.518,9.833,1.518,17.407c0,3.788,3.035,4.162,6.828,4.065c3.777-0.098,8.309-0.66,11.334,1.227
						c3.174,1.983,6.342,1.888,9.186,0.915c2.586-0.89,4.896-2.494,6.705-3.941c3.783-3.022,6.049-2.266,5.297-7.568
						c-0.545-3.838,2.074-5.286,5.283-5.796c1.231-0.194,2.545-0.255,3.797-0.255c0.418,0,0.811-0.068,1.18-0.189
						c3.609-1.212,4.664-8.146,2.604-15.708c-2.275-8.322,12.113-5.295,24.215-5.295c12.107,0,13.623,8.325,21.947,11.35
						c4.184,1.525,2.762,15.928,2.762,21.195c0,10.588,9.586-3.789,11.1-8.33c1.512-4.54,5.801-15.138-0.25-15.138
						c-4.664,0-5-11.755-4.529-11.347c5.297,4.544,7.57,6.813,11.346,11.347c3.789,4.54,6.807,9.091,10.602,16.651
						c3.775,7.568,6.801,15.139,12.859,12.108c6.057-3.026-0.754-14.374,5.301-13.622c6.051,0.756,12.863-3.778,15.887-9.836
						c3.029-6.054,1.545-7.602,0.762-16.648c-2.277-26.371,31.023-12.107,37.838-15.893c6.809-3.776,9.076,0,5.293,3.785
						c-3.783,3.785-2.268,10.594,6.051,15.132c8.33,4.54,11.353,12.114,3.031,12.862c-8.326,0.762-17.404-4.54-24.217-4.54
						c-6.809,0-12.873,1.514-19.68,4.54c-6.813,3.034-10.59,9.846-12.863,17.414c-2.266,7.564,3.027,9.836,15.893,9.836
						c12.871,0,23.463,1.514,22.697,8.326c-0.748,6.809-8.315,13.617-15.887,14.379c-7.574,0.752-21.941-2.271-30.268-3.785
						c-8.322-1.517-18.158-3.785-21.188,3.023c-3.031,6.813-23.535-5.056-24.857-5.656c-7.746-3.522-18.053-6.59-16.762-16.287
						c1.508-11.35-9.086-6.057-23.455-6.057c-7.223,0-19.478,4.672-21.207,5.213c-2.979,0.922-15.42,1.801-17.285,2.134
						c-7.73,1.384-9.9,5.057-15.994,6.275c-1.627,0.324-3.146,0.861-4.525,1.557c-5.07,2.587-8.346,7.474-8.346,12.822
						c0,6.813-5.295,15.133-12.861,15.891c-7.078,0.708-9.521,16.658-12.908,23.049c-0.234,0.434-0.467,0.827-0.717,1.17
						c-1.277,1.784-2.721,4.179-3.934,6.766c-2.391,5.078-3.863,10.912-1.359,14.424c0.453,0.623,7.252,7.498,1.359,13.062
						c-0.201,0.183-0.393,0.368-0.6,0.557c-2.863,2.571-2.047,6.325,0.6,10.541c1.217,1.941,2.83,3.983,4.65,6.048
						c4.693,5.314,10.771,10.783,15.176,15.194c6.043,6.038,12.938,13.505,18.939,17.842c3.773,2.73,16.652,1.126,20.52-0.069
						c4.045-1.256,8.482-2.605,13.518-4.154c1.172-0.361,2.441-0.569,3.768-0.657c1.576-0.11,24.531,5.195,31.795,5.195
						c9.842,0,9.084,11.353,6.047,18.165c-3.021,6.813,9.844,42.381,15.9,44.646c6.051,2.274-3.783,44.647,3.022,54.485
						c3.754,5.416,3.836,10.598,4.66,15.935c0.299,1.932,0.703,3.896,1.42,5.893c12.135-8.146,23.641-17.171,34.434-26.969
						c3.521-3.194,6.965-6.476,10.299-9.821c3.352-3.36,6.646-6.799,9.834-10.314c4.791-5.273,9.381-10.714,13.799-16.32
						c6.973-8.883,13.44-18.156,19.365-27.81c1.57-2.549,3.119-5.116,4.629-7.712c2.393-4.154,4.676-8.354,6.848-12.618
						c1.103-2.14,2.168-4.286,3.219-6.45c2.076-4.323,4.059-8.704,5.947-13.153c1.871-4.436,3.643-8.93,5.309-13.479
						c3.291-9.009,6.168-18.216,8.576-27.602c-2.951-1.769-5.9-4.107-8.773-6.979c-9.074-9.084-15.135-24.974-20.426-34.807
						c-5.299-9.837-13.807-53.804-8.516-39.427c5.299,14.377,32.728,56.072,39.539,71.965l0.279,0.63
						c0.449-2.002,0.885-4.009,1.297-6.022c0.988-4.84,1.846-9.714,2.615-14.629c0.74-4.908,1.375-9.861,1.889-14.846
						c1-9.986,1.523-20.112,1.523-30.367C897.269,721.765,896.746,711.639,895.746,701.654z"/>
					<path style="fill:#52B5D8;" d="M605.639,445.174c0.766-1.047,1.691-2.158,2.861-3.328c2.307-2.315,2.83-4.542,2.797-6.513
						c-1.828-0.065-3.664-0.118-5.498-0.149l-0.16-0.001c-1.748-0.026-3.498-0.06-5.27-0.06c-3.075,0-6.118,0.061-9.185,0.157
						c-30.005,0.913-58.892,6.264-86.03,15.45c-4.599,1.553-9.153,3.22-13.631,4.994c-1.38,0.544-2.766,1.118-4.147,1.683
						c-3.086,1.268-6.158,2.577-9.18,3.947c-4.388,1.978-8.699,4.064-12.984,6.257l-2.114,1.09
						c-1.46,3.985-5.633,27.958-0.232,26.338c7.177-2.155,8.564,21.434,15.023,31.479c6.457,10.046,10.045,26.552,26.55,32.299
						c16.507,5.738,20.094-25.837,20.094-34.449c0-8.613,21.527-7.896,27.274-17.226c5.742-9.322,25.117-9.322,37.318-15.068
						C601.322,486.337,601.703,450.525,605.639,445.174z"/>
					<path style="fill:#52B5D8;" d="M539.606,880.32c-12.917-7.898-56.698-15.787-56.698-25.123c0-9.329,1.438-18.658-7.887-18.658
						c-6.66,0-28.085-15.164-31.581-17.219c-5.246-3.09-21.013-5.358-23.833-5.242c-2.016,0.098-22.657,0.803-25.322-1.522
						c-0.757-0.664-1.37-1.504-1.796-2.565c-2.867-7.174-8.609,0-14.349,3.584c-2.268,1.425-5.214,1.604-8.304,1.441
						c-4.712-0.246-9.757-1.303-13.227-0.007c-1.59,0.598-3.29,0.645-5.004,0.249c-4.487-1.039-9.102-5.104-12.221-10.296
						c-4.302-7.174,2.873-15.069-7.892-15.069c-10.761,0-3.216-24.055-3.216-31.233c0-6.809-14.555,5.459-22.174,12.863
						c0.253,1.907,0.532,3.811,0.833,5.698c0.724,4.915,1.599,9.789,2.599,14.619c0.367,1.787,0.743,3.553,1.139,5.32
						c3.933,2.304,7.951,4.211,12.92,4.211c12.196,0,12.915,16.51,16.507,22.252c1.682,2.69,22.875,2.69,24.398,5.739
						c2.87,5.739,7.901,14.354,0,16.504c-7.89,2.155-4.298,12.917-12.196,16.507c-0.239,0.11-0.474,0.227-0.698,0.356
						c-7.152,4.141-6.353,18.568-2.173,26.913c0.559,1.11,1.296,2.268,2.173,3.451c5.93,8.036,17.904,24.726,17.875,25.554
						l0.355,0.446c3.486,4.273,7.083,8.452,10.796,12.536l0.525,0.585c4.061,2.53,7.67,7.451,10.824,11.243
						c0.768,0.749,1.536,1.498,2.303,2.243c2.137,2.058,4.297,4.078,6.479,6.07c1.68,1.535,3.376,3.039,5.088,4.53
						c4.471,3.874,9.056,7.631,13.755,11.236c3.064,2.36,6.175,4.657,9.337,6.885c7.628,5.406,15.52,10.459,23.67,15.139
						l0.807,0.472c3.886,2.215,7.821,4.352,11.808,6.391c5.206,2.665,10.509,5.183,15.895,7.549c0.576-1.973,0.95-3.99,1.073-5.966
						c0.711-12.202,9.326-9.323,9.326-15.79c0-6.46,8.614-13.637,17.945-15.071c9.322-1.429,17.935-14.346,18.656-27.979
						c0.721-13.638,14.352-27.992,20.811-37.321C555.386,892.513,552.521,888.212,539.606,880.32z"/>
					<path style="fill:#52B5D8;" d="M351.605,754.835c-0.699-0.154-1.446-0.239-2.201-0.239c-7.921-0.991-4.408,5.639,2.201,7.649
						c0.827,0.261,1.715,0.438,2.627,0.522C361.605,763.438,358.09,756.251,351.605,754.835z"/>
				</g>
			</g>
		</g>
		<g style="clip-path:url(#SVGID_00000155836633207759264860000000833896867793742779_);">
			<g>
				<path style="fill:#1B384C;" d="M549.44,507.22c-3.581,0.287-7.196,0.663-10.749,1.111l0.224,1.778
					c3.525-0.443,7.114-0.813,10.67-1.102L549.44,507.22z"/>
				<path style="fill:#1B384C;" d="M536.816,512.807l-0.824-6.571l2.396-0.303c3.623-0.457,7.276-0.834,10.856-1.122l2.407-0.193
					l0.535,6.601l-2.407,0.196c-3.541,0.288-7.097,0.655-10.566,1.091L536.816,512.807z"/>
			</g>
			<g>
				<path style="fill:#1B384C;" d="M397.426,579.751l-1.271-1.264c-2.521,2.537-5.019,5.166-7.429,7.82l1.33,1.207
					C392.446,584.881,394.927,582.269,397.426,579.751z"/>
				<path style="fill:#1B384C;" d="M390.22,590.925l-4.908-4.453l1.625-1.79c2.424-2.67,4.95-5.327,7.503-7.898l1.704-1.715
					l4.698,4.671l-1.701,1.713c-2.477,2.495-4.931,5.082-7.297,7.684L390.22,590.925z"/>
			</g>
			<g>
				<path style="fill:#1B384C;" d="M358.786,630.723l-1.56-0.885c-1.764,3.115-3.483,6.306-5.105,9.486l1.6,0.815
					C355.331,636.981,357.033,633.813,358.786,630.723z"/>
				<path style="fill:#1B384C;" d="M354.775,643.391l-5.906-3.009l1.099-2.155c1.614-3.166,3.348-6.388,5.154-9.581l1.191-2.102
					l5.768,3.267l-1.192,2.105c-1.713,3.021-3.401,6.158-5.016,9.324L354.775,643.391z"/>
			</g>
			<g>
				<path style="fill:#1B384C;" d="M370.134,612.613l-1.476-1.017c-2.031,2.939-4.02,5.966-5.919,8.99l1.521,0.954
					C366.145,618.539,368.122,615.533,370.134,612.613z"/>
				<path style="fill:#1B384C;" d="M365.024,624.869l-5.617-3.521l1.285-2.049c1.965-3.128,3.976-6.183,5.977-9.078l1.374-1.985
					l5.451,3.761l-1.37,1.988c-1.976,2.863-3.933,5.841-5.816,8.839L365.024,624.869z"/>
			</g>
			<g>
				<path style="fill:#1B384C;" d="M383.035,595.594l-1.381-1.145c-2.283,2.752-4.533,5.585-6.688,8.426l1.432,1.085
					C378.534,601.138,380.768,598.325,383.035,595.594z"/>
				<path style="fill:#1B384C;" d="M376.864,607.343l-5.286-4.003l1.461-1.926c2.171-2.861,4.443-5.722,6.754-8.509l1.542-1.859
					l5.102,4.231l-1.543,1.859c-2.269,2.734-4.479,5.522-6.572,8.281L376.864,607.343z"/>
			</g>
			<g>
				<path style="fill:#1B384C;" d="M613.945,510.603c-3.518-0.662-7.102-1.247-10.645-1.754l-0.252,1.776
					c3.518,0.501,7.07,1.085,10.568,1.739L613.945,510.603z"/>
				<path style="fill:#1B384C;" d="M615.551,515.183l-2.377-0.444c-3.461-0.647-6.982-1.227-10.467-1.723l-2.39-0.341l0.929-6.563
					l2.396,0.343c3.697,0.529,7.314,1.125,10.748,1.771l2.371,0.445L615.551,515.183z"/>
			</g>
			<g>
				<path style="fill:#1B384C;" d="M592.584,507.571c-3.568-0.349-7.19-0.618-10.767-0.807l-0.095,1.792
					c3.553,0.186,7.146,0.454,10.685,0.8L592.584,507.571z"/>
				<path style="fill:#1B384C;" d="M594.576,511.996l-2.402-0.235c-3.486-0.341-7.044-0.608-10.577-0.792l-2.415-0.127l0.35-6.619
					l2.413,0.128c3.661,0.193,7.32,0.467,10.875,0.815l2.408,0.234L594.576,511.996z"/>
			</g>
			<g>
				<path style="fill:#1B384C;" d="M448.195,540.713l-0.897-1.553c-3.115,1.796-6.216,3.677-9.221,5.59l0.964,1.514
					C442.025,544.365,445.102,542.497,448.195,540.713z"/>
				<path style="fill:#1B384C;" d="M438.303,549.601l-3.562-5.59l2.039-1.298c3.047-1.94,6.18-3.839,9.312-5.646l2.091-1.207
					l3.315,5.739l-2.096,1.207c-3.028,1.746-6.078,3.596-9.062,5.496L438.303,549.601z"/>
			</g>
			<g>
				<path style="fill:#1B384C;" d="M571.024,506.436c-3.581-0.029-7.215,0.021-10.799,0.152l0.063,1.793
					c3.559-0.129,7.168-0.179,10.721-0.149L571.024,506.436z"/>
				<path style="fill:#1B384C;" d="M557.958,510.883l-0.232-6.622l2.412-0.088c3.596-0.131,7.284-0.18,10.905-0.154l2.419,0.02
					l-0.059,6.629l-2.415-0.021c-3.513-0.027-7.097,0.022-10.611,0.148L557.958,510.883z"/>
			</g>
			<g>
				<path style="fill:#1B384C;" d="M413.171,565.255l-1.156-1.374c-2.739,2.306-5.461,4.704-8.091,7.127l1.212,1.318
					C407.749,569.92,410.452,567.542,413.171,565.255z"/>
				<path style="fill:#1B384C;" d="M404.991,575.741l-4.48-4.874l1.775-1.636c2.672-2.46,5.422-4.881,8.173-7.198l1.849-1.556
					l4.27,5.07l-1.85,1.557c-2.695,2.267-5.372,4.622-7.956,7L404.991,575.741z"/>
			</g>
			<g>
				<path style="fill:#1B384C;" d="M430.14,552.211l-1.029-1.469c-2.926,2.049-5.851,4.197-8.694,6.38l1.095,1.423
					C424.332,556.375,427.234,554.247,430.14,552.211z"/>
				<path style="fill:#1B384C;" d="M421.07,561.934l-4.043-5.255l1.919-1.474c2.89-2.219,5.843-4.386,8.779-6.441l1.979-1.386
					l3.801,5.426l-1.979,1.387c-2.909,2.039-5.783,4.149-8.54,6.271L421.07,561.934z"/>
			</g>
			<g>
				<path style="fill:#1B384C;" d="M466.427,529.204c-3.23,1.503-6.483,3.109-9.671,4.769l0.829,1.589
					c3.164-1.646,6.397-3.239,9.599-4.734L466.427,529.204z"/>
				<path style="fill:#1B384C;" d="M456.559,538.821l-3.065-5.874l2.146-1.117c3.251-1.692,6.537-3.313,9.767-4.816l2.19-1.019
					l2.795,6.003l-2.186,1.021c-3.218,1.503-6.416,3.081-9.506,4.689L456.559,538.821z"/>
			</g>
			<g>
				<path style="fill:#1B384C;" d="M527.997,509.922c-3.529,0.604-7.088,1.297-10.59,2.062l0.384,1.752
					c3.471-0.759,7.007-1.446,10.507-2.047L527.997,509.922z"/>
				<path style="fill:#1B384C;" d="M515.947,516.612l-1.418-6.474l2.362-0.515c3.54-0.772,7.138-1.474,10.698-2.083l2.384-0.408
					l1.111,6.529l-2.378,0.409c-3.518,0.605-7.017,1.287-10.4,2.026L515.947,516.612z"/>
			</g>
			<g>
				<path style="fill:#1B384C;" d="M506.926,514.514c-3.457,0.917-6.941,1.922-10.361,2.996l0.54,1.711
					c3.39-1.062,6.848-2.064,10.281-2.975L506.926,514.514z"/>
				<path style="fill:#1B384C;" d="M495.524,522.247l-1.994-6.319l2.31-0.724c3.409-1.07,6.93-2.088,10.465-3.025l2.336-0.62
					l1.697,6.402l-2.334,0.62c-3.383,0.898-6.808,1.889-10.179,2.946L495.524,522.247z"/>
			</g>
			<g>
				<path style="fill:#1B384C;" d="M486.349,520.961c-3.367,1.219-6.751,2.536-10.053,3.902l0.688,1.656
					c3.277-1.353,6.633-2.659,9.977-3.872L486.349,520.961z"/>
				<path style="fill:#1B384C;" d="M475.676,529.674l-2.539-6.119l2.235-0.925c3.397-1.406,6.814-2.732,10.154-3.941l2.27-0.823
					l2.261,6.228l-2.272,0.824c-3.26,1.183-6.584,2.473-9.88,3.834L475.676,529.674z"/>
			</g>
		</g>
		<g style="clip-path:url(#SVGID_00000155836633207759264860000000833896867793742779_);">
			<g>
				<path style="fill:#1B384C;" d="M505.29,625.285c3.521,0.691,7.105,1.311,10.645,1.844l0.268-1.771
					c-3.515-0.532-7.067-1.146-10.573-1.832L505.29,625.285z"/>
				<path style="fill:#1B384C;" d="M517.964,629.879l-2.388-0.359c-3.59-0.541-7.207-1.167-10.755-1.862l-2.363-0.466l1.262-6.5
					l2.374,0.462c3.453,0.677,6.975,1.287,10.467,1.813l2.39,0.362L517.964,629.879z"/>
			</g>
			<g>
				<path style="fill:#1B384C;" d="M671.271,596.689l0.883,1.561c3.111-1.757,6.23-3.612,9.269-5.513l-0.951-1.52
					C677.455,593.101,674.359,594.943,671.271,596.689z"/>
				<path style="fill:#1B384C;" d="M671.238,601.543l-3.26-5.77l2.106-1.189c3.023-1.708,6.088-3.532,9.109-5.417l2.045-1.279
					l3.516,5.617l-2.047,1.281c-3.049,1.907-6.197,3.782-9.365,5.569L671.238,601.543z"/>
			</g>
			<g>
				<path style="fill:#1B384C;" d="M722.285,558.106l1.26,1.272c2.547-2.518,5.065-5.124,7.49-7.745l-1.32-1.218
					C727.309,553.018,724.807,555.607,722.285,558.106z"/>
				<path style="fill:#1B384C;" d="M723.529,562.794l-4.662-4.703l1.719-1.702c2.512-2.487,4.982-5.05,7.352-7.614l1.639-1.774
					l4.877,4.497l-1.644,1.777c-2.469,2.667-5.014,5.298-7.563,7.821L723.529,562.794z"/>
			</g>
			<g>
				<path style="fill:#1B384C;" d="M706.451,572.458l1.146,1.38c2.75-2.279,5.484-4.653,8.135-7.05l-1.207-1.33
					C711.896,567.837,709.18,570.194,706.451,572.458z"/>
				<path style="fill:#1B384C;" d="M707.283,577.239l-4.236-5.098l1.861-1.543c2.688-2.23,5.377-4.563,7.994-6.931l1.793-1.62
					l4.453,4.911l-1.795,1.624c-2.738,2.475-5.502,4.869-8.211,7.117L707.283,577.239z"/>
			</g>
			<g>
				<path style="fill:#1B384C;" d="M689.418,585.343l1.021,1.479c2.943-2.033,5.877-4.15,8.721-6.302l-1.082-1.429
					C695.254,581.225,692.344,583.327,689.418,585.343z"/>
				<path style="fill:#1B384C;" d="M689.824,590.182l-3.768-5.457l1.99-1.373c2.867-1.975,5.752-4.059,8.576-6.191l1.926-1.456
					l3.996,5.285l-1.926,1.457c-2.852,2.156-5.813,4.296-8.805,6.363L689.824,590.182z"/>
			</g>
			<g>
				<path style="fill:#1B384C;" d="M463.854,613.246c3.34,1.306,6.751,2.543,10.143,3.693l0.579-1.695
					c-3.37-1.142-6.756-2.373-10.071-3.666L463.854,613.246z"/>
				<path style="fill:#1B384C;" d="M475.511,620.005l-2.288-0.777c-3.508-1.189-6.954-2.444-10.249-3.728l-2.251-0.878l2.41-6.174
					l2.251,0.878c3.25,1.268,6.602,2.489,9.967,3.631l2.29,0.774L475.511,620.005z"/>
			</g>
			<g>
				<path style="fill:#1B384C;" d="M611.818,620.496l0.441,1.74c3.488-0.885,6.982-1.854,10.393-2.88l-0.518-1.722
					C618.752,618.654,615.279,619.617,611.818,620.496z"/>
				<path style="fill:#1B384C;" d="M610.514,625.168l-1.637-6.418l2.348-0.596c3.441-0.875,6.881-1.828,10.213-2.832l2.315-0.698
					l1.914,6.347l-2.314,0.699c-3.447,1.037-6.979,2.017-10.498,2.906L610.514,625.168z"/>
			</g>
			<g>
				<path style="fill:#1B384C;" d="M484.296,620.188c3.439,0.994,6.951,1.935,10.437,2.778l0.428-1.74
					c-3.463-0.843-6.951-1.771-10.363-2.766L484.296,620.188z"/>
				<path style="fill:#1B384C;" d="M496.504,625.879l-2.341-0.566c-3.43-0.827-6.976-1.771-10.538-2.807l-2.325-0.673l1.852-6.366
					l2.321,0.674c3.382,0.985,6.834,1.904,10.258,2.734l2.357,0.572L496.504,625.879z"/>
			</g>
			<g>
				<path style="fill:#1B384C;" d="M652.188,606.373l0.738,1.634c3.26-1.475,6.533-3.046,9.721-4.667l-0.809-1.596
					C658.67,603.352,655.422,604.907,652.188,606.373z"/>
				<path style="fill:#1B384C;" d="M651.723,611.207l-2.732-6.039l2.199-0.997c3.236-1.466,6.449-3.009,9.557-4.582l2.158-1.095
					l2.988,5.911l-2.15,1.092c-3.191,1.62-6.494,3.206-9.816,4.713L651.723,611.207z"/>
			</g>
			<g>
				<path style="fill:#1B384C;" d="M632.318,614.325l0.588,1.692c3.375-1.177,6.773-2.451,10.1-3.782l-0.666-1.664
					C639.037,611.893,635.666,613.157,632.318,614.325z"/>
				<path style="fill:#1B384C;" d="M631.42,619.096l-2.182-6.253l2.279-0.796c3.33-1.164,6.666-2.416,9.924-3.719l2.242-0.9
					l2.467,6.151l-2.248,0.9c-3.406,1.362-6.838,2.646-10.201,3.819L631.42,619.096z"/>
			</g>
			<g>
				<path style="fill:#1B384C;" d="M591.149,626.635c3.519-0.572,7.083-1.236,10.605-1.97l-0.365-1.756
					c-3.497,0.727-7.04,1.382-10.527,1.954L591.149,626.635z"/>
				<path style="fill:#1B384C;" d="M589.153,629.406l-1.066-6.535l2.384-0.393c3.479-0.57,6.986-1.221,10.425-1.935l2.364-0.488
					l1.352,6.482l-2.363,0.49c-3.597,0.752-7.2,1.42-10.711,1.992L589.153,629.406z"/>
			</g>
			<g>
				<path style="fill:#1B384C;" d="M526.658,628.498c3.559,0.374,7.174,0.673,10.752,0.887l0.106-1.791
					c-3.548-0.211-7.137-0.51-10.67-0.877L526.658,628.498z"/>
				<path style="fill:#1B384C;" d="M533.446,631.54c-2.354-0.179-4.708-0.393-7.04-0.639l-2.405-0.255l0.693-6.582l2.402,0.248
					c3.501,0.365,7.05,0.66,10.564,0.871l2.41,0.143l-0.39,6.613l-2.413-0.141C535.997,631.72,534.723,631.635,533.446,631.54z"/>
			</g>
			<g>
				<path style="fill:#1B384C;" d="M548.186,629.791c3.574,0.053,7.203,0.031,10.783-0.072l-0.053-1.794
					c-3.552,0.101-7.152,0.129-10.705,0.075L548.186,629.791z"/>
				<path style="fill:#1B384C;" d="M545.729,632.17l0.106-6.624l2.414,0.038c3.458,0.053,7.024,0.027,10.598-0.072l2.411-0.07
					l0.198,6.621l-2.416,0.069c-3.558,0.107-7.222,0.132-10.892,0.075L545.729,632.17z"/>
			</g>
			<g>
				<path style="fill:#1B384C;" d="M569.739,629.164c3.571-0.261,7.186-0.609,10.734-1.031l-0.211-1.778
					c-3.524,0.412-7.108,0.759-10.657,1.023L569.739,629.164z"/>
				<path style="fill:#1B384C;" d="M567.508,631.751l-0.49-6.604l2.41-0.18c3.447-0.255,6.998-0.595,10.554-1.014l2.396-0.279
					l0.78,6.576l-2.397,0.283c-3.612,0.428-7.259,0.78-10.845,1.041L567.508,631.751z"/>
			</g>
		</g>
		<g style="clip-path:url(#SVGID_00000155836633207759264860000000833896867793742779_);">
			<g>
				<path style="fill:#1B384C;" d="M518.051,889.445c3.563,0.443,7.181,0.811,10.75,1.095l0.142-1.787
					c-3.543-0.283-7.13-0.648-10.673-1.089L518.051,889.445z"/>
				<path style="fill:#1B384C;" d="M531.019,893.143l-2.411-0.192c-3.657-0.293-7.31-0.664-10.856-1.107l-2.395-0.299l0.809-6.576
					l2.4,0.299c3.521,0.438,7.078,0.799,10.568,1.079l2.406,0.191L531.019,893.143z"/>
			</g>
			<g>
				<path style="fill:#1B384C;" d="M681.629,849.313l0.99,1.495c2.981-1.97,5.963-4.037,8.863-6.146l-1.057-1.45
					C687.545,845.302,684.586,847.356,681.629,849.313z"/>
				<path style="fill:#1B384C;" d="M681.938,854.156l-3.658-5.523l2.016-1.334c2.922-1.935,5.852-3.968,8.711-6.041l1.951-1.416
					l3.902,5.349l-1.955,1.426c-2.887,2.099-5.898,4.188-8.953,6.208L681.938,854.156z"/>
			</g>
			<g>
				<path style="fill:#1B384C;" d="M717.193,817.19c-1.275,1.271-2.555,2.523-3.834,3.741l-1.75,1.671l4.58,4.789l1.746-1.665
					c1.148-1.095,2.309-2.231,3.471-3.385C719.693,820.869,718.279,819.129,717.193,817.19z"/>
			</g>
			<g>
				<path style="fill:#1B384C;" d="M698.938,836.727l1.123,1.403c2.791-2.231,5.572-4.55,8.258-6.895l-1.18-1.353
					C704.475,832.209,701.717,834.509,698.938,836.727z"/>
				<path style="fill:#1B384C;" d="M699.68,841.526l-4.141-5.18l1.893-1.511c2.771-2.212,5.502-4.49,8.115-6.774l1.822-1.589
					l4.357,4.994l-1.82,1.589c-2.688,2.347-5.494,4.688-8.338,6.963L699.68,841.526z"/>
			</g>
			<g>
				<path style="fill:#1B384C;" d="M623.984,877.221l0.564,1.702c3.416-1.127,6.834-2.335,10.164-3.6l-0.639-1.677
					C630.771,874.901,627.375,876.104,623.984,877.221z"/>
				<path style="fill:#1B384C;" d="M623.014,881.972l-2.084-6.287l2.299-0.758c3.385-1.117,6.744-2.31,9.986-3.54l2.26-0.859
					l2.357,6.199l-2.262,0.855c-3.367,1.277-6.82,2.502-10.266,3.635L623.014,881.972z"/>
			</g>
			<g>
				<path style="fill:#1B384C;" d="M496.755,885.826c3.501,0.756,7.068,1.444,10.604,2.042l0.304-1.765
					c-3.512-0.598-7.055-1.281-10.527-2.033L496.755,885.826z"/>
				<path style="fill:#1B384C;" d="M509.331,890.653l-2.376-0.403c-3.529-0.598-7.133-1.29-10.711-2.063l-2.365-0.51l1.405-6.483
					l2.361,0.513c3.41,0.74,6.915,1.416,10.422,2.015l2.386,0.405L509.331,890.653z"/>
			</g>
			<g>
				<path style="fill:#1B384C;" d="M663.269,860.308l0.848,1.58c3.152-1.702,6.307-3.496,9.373-5.334l-0.918-1.538
					C669.521,856.844,666.393,858.621,663.269,860.308z"/>
				<path style="fill:#1B384C;" d="M663.137,865.166l-3.139-5.837l2.121-1.148c3.137-1.692,6.234-3.455,9.211-5.239l2.074-1.242
					l3.398,5.686l-2.07,1.239c-3.06,1.838-6.246,3.65-9.465,5.391L663.137,865.166z"/>
			</g>
			<g>
				<path style="fill:#1B384C;" d="M644.002,869.634l0.707,1.646c3.281-1.413,6.582-2.921,9.809-4.481l-0.781-1.614
					C650.535,866.736,647.26,868.231,644.002,869.634z"/>
				<path style="fill:#1B384C;" d="M643.441,874.455l-2.611-6.086l2.215-0.956c3.275-1.41,6.516-2.892,9.637-4.405l2.176-1.051
					l2.889,5.962l-2.176,1.055c-3.279,1.586-6.611,3.108-9.906,4.524L643.441,874.455z"/>
			</g>
			<g>
				<path style="fill:#1B384C;" d="M603.795,884.788c3.471-0.818,6.981-1.73,10.44-2.709l-0.486-1.722
					c-3.433,0.966-6.922,1.869-10.361,2.685L603.795,884.788z"/>
				<path style="fill:#1B384C;" d="M601.994,887.692l-1.51-6.447l2.346-0.557c3.414-0.81,6.869-1.703,10.266-2.656l2.322-0.654
					l1.797,6.368l-2.322,0.658c-3.535,1-7.082,1.919-10.543,2.734L601.994,887.692z"/>
			</g>
			<g>
				<path style="fill:#1B384C;" d="M539.592,891.156c3.578,0.123,7.206,0.17,10.791,0.133l-0.022-1.794
					c-3.553,0.038-7.152-0.009-10.705-0.129L539.592,891.156z"/>
				<path style="fill:#1B384C;" d="M547.926,893.718c-2.788,0-5.62-0.05-8.417-0.147l-2.418-0.085l0.237-6.617l2.41,0.081
					c3.592,0.123,7.137,0.167,10.598,0.13l2.412-0.025l0.081,6.623l-2.421,0.028C549.582,893.712,548.755,893.718,547.926,893.718z"
					/>
			</g>
			<g>
				<path style="fill:#1B384C;" d="M561.157,890.94c3.571-0.195,7.19-0.469,10.755-0.827l-0.18-1.784
					c-3.537,0.349-7.125,0.629-10.673,0.824L561.157,890.94z"/>
				<path style="fill:#1B384C;" d="M558.876,893.485l-0.36-6.614l2.411-0.132c3.471-0.192,7.026-0.466,10.568-0.815l2.4-0.239
					l0.662,6.593l-2.405,0.238c-3.497,0.353-7.152,0.633-10.863,0.837L558.876,893.485z"/>
			</g>
			<g>
				<path style="fill:#1B384C;" d="M582.615,888.81c3.544-0.51,7.125-1.111,10.636-1.778l-0.335-1.762
					c-3.485,0.657-7.037,1.256-10.558,1.766L582.615,888.81z"/>
				<path style="fill:#1B384C;" d="M580.568,891.544l-0.947-6.555l2.392-0.346c3.434-0.497,6.952-1.086,10.456-1.75l2.37-0.45
					l1.238,6.511l-2.374,0.45c-3.602,0.685-7.217,1.29-10.744,1.797L580.568,891.544z"/>
			</g>
		</g>
		<g style="clip-path:url(#SVGID_00000155836633207759264860000000833896867793742779_);">
			<g>
				<path style="fill:#1B384C;" d="M718.35,630.512c-0.648,3.529-1.223,7.12-1.711,10.67l1.775,0.242
					c0.488-3.522,1.057-7.083,1.699-10.592L718.35,630.512z"/>
				<path style="fill:#1B384C;" d="M720.477,644.148l-6.561-0.903l0.328-2.395c0.498-3.615,1.08-7.24,1.729-10.776l0.436-2.373
					l6.518,1.187l-0.436,2.379c-0.629,3.433-1.193,6.963-1.684,10.49L720.477,644.148z"/>
			</g>
			<g>
				<path style="fill:#1B384C;" d="M749.029,796.121l-1.549,0.899c1.797,3.094,3.689,6.186,5.627,9.204l1.51-0.973
					C752.693,802.26,750.814,799.19,749.029,796.121z"/>
				<path style="fill:#1B384C;" d="M752.383,809.566l-1.309-2.036c-1.967-3.061-3.881-6.189-5.684-9.295l-1.215-2.089l5.729-3.326
					l1.215,2.086c1.758,3.021,3.619,6.063,5.529,9.037l1.305,2.033L752.383,809.566z"/>
			</g>
			<g>
				<path style="fill:#1B384C;" d="M788.252,846.646l-1.258,1.277c2.551,2.511,5.188,4.997,7.838,7.392l1.203-1.334
					C793.4,851.604,790.781,849.138,788.252,846.646z"/>
				<path style="fill:#1B384C;" d="M795.01,858.729l-1.797-1.621c-2.678-2.42-5.34-4.931-7.914-7.463l-1.721-1.693l4.647-4.723
					l1.723,1.695c2.49,2.455,5.084,4.896,7.705,7.26l1.795,1.617L795.01,858.729z"/>
			</g>
			<g>
				<path style="fill:#1B384C;" d="M773.701,830.994l-1.365,1.164c2.313,2.719,4.723,5.425,7.15,8.043l1.316-1.221
					C778.389,836.381,775.998,833.694,773.701,830.994z"/>
				<path style="fill:#1B384C;" d="M779.361,843.618l-1.646-1.772c-2.492-2.686-4.92-5.418-7.219-8.124l-1.565-1.841l5.045-4.295
					l1.566,1.844c2.254,2.649,4.619,5.308,7.029,7.904l1.645,1.768L779.361,843.618z"/>
			</g>
			<g>
				<path style="fill:#1B384C;" d="M760.603,814.126l-1.465,1.038c2.066,2.917,4.223,5.824,6.408,8.641l1.416-1.102
					C764.795,819.909,762.656,817.023,760.603,814.126z"/>
				<path style="fill:#1B384C;" d="M765.123,827.196l-1.484-1.91c-2.197-2.828-4.375-5.764-6.473-8.725l-1.397-1.974l5.408-3.832
					l1.398,1.973c2.031,2.87,4.15,5.727,6.295,8.492l1.48,1.907L765.123,827.196z"/>
			</g>
			<g>
				<path style="fill:#1B384C;" d="M738.326,569.081c-1.551,3.227-3.043,6.537-4.451,9.827l1.65,0.705
					c1.396-3.271,2.881-6.549,4.418-9.761L738.326,569.081z"/>
			</g>
			<g>
				<path style="fill:#1B384C;" d="M729.865,588.93c-1.264,3.354-2.457,6.781-3.566,10.189l1.703,0.554
					c1.1-3.382,2.289-6.784,3.541-10.113L729.865,588.93z"/>
				<path style="fill:#1B384C;" d="M729.553,602.721l-6.299-2.054L724,598.37c1.154-3.546,2.367-7.009,3.603-10.293l0.852-2.259
					l6.201,2.328l-0.852,2.263c-1.221,3.246-2.398,6.614-3.504,10.012L729.553,602.721z"/>
			</g>
			<g>
				<path style="fill:#1B384C;" d="M724.475,736.973l-1.731,0.465c0.928,3.475,1.94,6.957,3.01,10.356l1.713-0.541
					C726.402,743.879,725.396,740.42,724.475,736.973z"/>
				<path style="fill:#1B384C;" d="M724.176,750.826l-0.729-2.31c-1.076-3.423-2.1-6.941-3.039-10.456l-0.623-2.334l6.4-1.715
					l0.625,2.338c0.916,3.432,1.912,6.855,2.961,10.176l0.727,2.303L724.176,750.826z"/>
			</g>
			<g>
				<path style="fill:#1B384C;" d="M723.184,609.457c-0.955,3.452-1.848,6.973-2.648,10.469l1.748,0.403
					c0.795-3.471,1.682-6.967,2.631-10.394L723.184,609.457z"/>
				<path style="fill:#1B384C;" d="M724.096,623.231l-6.453-1.492l0.539-2.35c0.793-3.471,1.691-7.03,2.674-10.576l0.643-2.332
					l6.391,1.774l-0.646,2.329c-0.94,3.389-1.816,6.85-2.606,10.286L724.096,623.231z"/>
			</g>
			<g>
				<path style="fill:#1B384C;" d="M739.105,777.16l-1.625,0.761c1.52,3.241,3.129,6.492,4.789,9.66l1.588-0.83
					C742.207,783.604,740.613,780.376,739.105,777.16z"/>
				<path style="fill:#1B384C;" d="M741.25,790.844l-1.121-2.143c-1.652-3.152-3.279-6.438-4.838-9.754l-1.027-2.191l6.006-2.809
					l1.024,2.186c1.527,3.26,3.109,6.454,4.705,9.497l1.121,2.14L741.25,790.844z"/>
			</g>
			<g>
				<path style="fill:#1B384C;" d="M730.904,757.39l-1.685,0.614c1.221,3.357,2.537,6.739,3.912,10.05l1.654-0.689
					C733.422,764.08,732.117,760.723,730.904,757.39z"/>
				<path style="fill:#1B384C;" d="M731.826,771.213l-0.928-2.234c-1.391-3.354-2.721-6.768-3.951-10.15l-0.826-2.272l6.227-2.263
					l0.826,2.269c1.215,3.335,2.506,6.655,3.844,9.874l0.926,2.23L731.826,771.213z"/>
			</g>
			<g>
				<path style="fill:#1B384C;" d="M718.08,716.381c0.617,3.512,1.324,7.067,2.104,10.578l1.748-0.39
					c-0.769-3.483-1.469-7.017-2.084-10.497L718.08,716.381z"/>
				<path style="fill:#1B384C;" d="M718.348,729.846l-0.523-2.363c-0.789-3.559-1.504-7.152-2.125-10.684l-0.418-2.381l6.525-1.143
					l0.42,2.375c0.615,3.484,1.311,6.982,2.064,10.396l0.519,2.357L718.348,729.846z"/>
			</g>
			<g>
				<path style="fill:#1B384C;" d="M715.406,651.918c-0.332,3.564-0.584,7.184-0.752,10.764l1.791,0.082
					c0.166-3.549,0.42-7.14,0.744-10.68L715.406,651.918z"/>
				<path style="fill:#1B384C;" d="M718.746,665.29l-6.621-0.302l0.115-2.42c0.17-3.606,0.424-7.266,0.76-10.875l0.223-2.406
					l6.594,0.616l-0.219,2.401c-0.328,3.574-0.576,7.13-0.738,10.572L718.746,665.29z"/>
			</g>
			<g>
				<path style="fill:#1B384C;" d="M714.383,673.459c-0.01,3.577,0.059,7.205,0.209,10.786l1.791-0.079
					c-0.144-3.549-0.217-7.148-0.207-10.701L714.383,673.459z"/>
				<path style="fill:#1B384C;" d="M712.279,686.766l-0.102-2.42c-0.15-3.556-0.221-7.221-0.211-10.894l0.006-2.419l6.625,0.024
					l-0.006,2.413c-0.01,3.462,0.059,7.027,0.205,10.595l0.098,2.407L712.279,686.766z"/>
			</g>
			<g>
				<path style="fill:#1B384C;" d="M715.279,695.003c0.307,3.568,0.701,7.178,1.166,10.724l1.777-0.236
					c-0.457-3.514-0.85-7.096-1.158-10.641L715.279,695.003z"/>
				<path style="fill:#1B384C;" d="M714.363,708.44l-0.315-2.398c-0.473-3.603-0.867-7.246-1.176-10.83l-0.209-2.407l6.6-0.569
					l0.209,2.406c0.301,3.449,0.686,6.996,1.145,10.539l0.31,2.391L714.363,708.44z"/>
			</g>
		</g>
		<path style="clip-path:url(#SVGID_00000155836633207759264860000000833896867793742779_);fill:#1B384C;" d="M627.553,512.364
			c0,8.008-6.488,14.499-14.496,14.499c-8.008,0-14.498-6.491-14.498-14.499c0-8.008,6.491-14.499,14.498-14.499
			C621.065,497.865,627.553,504.355,627.553,512.364z"/>
		<path style="clip-path:url(#SVGID_00000155836633207759264860000000833896867793742779_);fill:#1B384C;" d="M761.978,533.63
			c0,8.008-6.49,14.499-14.498,14.499s-14.5-6.491-14.5-14.499c0-8.008,6.492-14.499,14.5-14.499S761.978,525.623,761.978,533.63z"
			/>
		<path style="clip-path:url(#SVGID_00000155836633207759264860000000833896867793742779_);fill:#1B384C;" d="M757.211,567.951
			c0,8.008-6.49,14.499-14.498,14.499s-14.5-6.49-14.5-14.499c0-8.008,6.492-14.499,14.5-14.499S757.211,559.943,757.211,567.951z"
			/>
		<path style="clip-path:url(#SVGID_00000155836633207759264860000000833896867793742779_);fill:#1B384C;" d="M359.999,661.722
			c0,8.009-6.49,14.497-14.497,14.497c-8.008,0-14.5-6.488-14.5-14.497c0-8.008,6.492-14.499,14.5-14.499
			C353.509,647.223,359.999,653.714,359.999,661.722z"/>
		<path style="clip-path:url(#SVGID_00000155836633207759264860000000833896867793742779_);fill:#1B384C;" d="M460.07,598.435
			c0,8.008-6.488,14.499-14.496,14.499s-14.5-6.491-14.5-14.499c0-8.008,6.492-14.498,14.5-14.498S460.07,590.427,460.07,598.435z"
			/>
		<path style="clip-path:url(#SVGID_00000155836633207759264860000000833896867793742779_);fill:#1B384C;" d="M492.798,876.765
			c0,8.008-6.491,14.496-14.5,14.496c-8.008,0-14.499-6.488-14.499-14.496c0-8.009,6.491-14.5,14.499-14.5
			C486.307,862.265,492.798,868.756,492.798,876.765z"/>
		<path style="clip-path:url(#SVGID_00000155836633207759264860000000833896867793742779_);fill:#1B384C;" d="M736.828,815.136
			c0,8.008-6.488,14.496-14.496,14.496c-8.01,0-14.5-6.488-14.5-14.496c0-8.008,6.49-14.499,14.5-14.499
			C730.34,800.637,736.828,807.128,736.828,815.136z"/>
		<g style="clip-path:url(#SVGID_00000155836633207759264860000000833896867793742779_);">
			<path style="fill:#FFD11D;" d="M612.773,385.493c-23.856,0.157-43.085,20.535-42.931,45.509
				c0.064,10.287,3.403,19.729,8.971,27.287l0,0h-0.009l34.736,48.742l34.111-49.172c5.465-7.636,8.682-17.117,8.619-27.39
				C656.109,405.479,636.637,385.351,612.773,385.493z"/>
			<path style="fill:#FFFFFF;" d="M612.891,403.404c13.328-0.089,24.207,10.661,24.295,23.992
				c0.078,13.333-10.658,24.215-23.996,24.295c-13.331,0.078-24.209-10.662-24.294-23.994
				C588.815,414.364,599.55,403.492,612.891,403.404z"/>
		</g>
		<g style="clip-path:url(#SVGID_00000155836633207759264860000000833896867793742779_);">
			<path style="fill:#FFD11D;" d="M478.015,752.731c-23.856,0.157-43.085,20.534-42.931,45.508
				c0.064,10.286,3.403,19.729,8.971,27.287l0,0h-0.009l34.737,48.744l34.112-49.175c5.465-7.634,8.681-17.114,8.619-27.388
				C521.352,772.717,501.879,752.588,478.015,752.731z"/>
			<path style="fill:#FFFFFF;" d="M478.132,770.641c13.329-0.089,24.21,10.66,24.295,23.992
				c0.079,13.332-10.657,24.216-23.996,24.295c-13.33,0.078-24.209-10.661-24.294-23.993
				C454.057,781.6,464.792,770.729,478.132,770.641z"/>
		</g>
		<g style="clip-path:url(#SVGID_00000155836633207759264860000000833896867793742779_);">
			<path style="fill:#FFD11D;" d="M722.047,690.258c-23.857,0.158-43.086,20.535-42.932,45.509
				c0.065,10.286,3.402,19.729,8.971,27.287l0,0h-0.01l34.736,48.743l34.111-49.174c5.467-7.634,8.682-17.114,8.619-27.389
				C765.383,710.245,745.91,690.117,722.047,690.258z"/>
			<path style="fill:#FFFFFF;" d="M722.162,708.168c13.328-0.088,24.209,10.661,24.295,23.993
				c0.078,13.332-10.656,24.216-23.996,24.294c-13.33,0.079-24.209-10.66-24.293-23.992
				C698.086,719.128,708.822,708.256,722.162,708.168z"/>
		</g>
		<g style="clip-path:url(#SVGID_00000155836633207759264860000000833896867793742779_);">
			<path style="fill:#FFD11D;" d="M747.336,407.172c-23.855,0.157-43.084,20.534-42.932,45.508
				c0.065,10.286,3.404,19.729,8.973,27.287l0,0h-0.01l34.736,48.744l34.111-49.173c5.465-7.635,8.682-17.116,8.619-27.39
				C790.674,427.159,771.201,407.03,747.336,407.172z"/>
			<path style="fill:#FFFFFF;" d="M747.453,425.082c13.328-0.088,24.209,10.661,24.295,23.993
				c0.078,13.333-10.658,24.216-23.996,24.294c-13.33,0.079-24.209-10.661-24.295-23.993
				C723.377,436.043,734.113,425.17,747.453,425.082z"/>
		</g>
		<g style="clip-path:url(#SVGID_00000155836633207759264860000000833896867793742779_);">
			<path style="fill:#FFD11D;" d="M445.29,472.293c-23.857,0.157-43.086,20.535-42.932,45.509
				c0.065,10.287,3.403,19.729,8.971,27.287l0,0h-0.009l34.736,48.743l34.112-49.173c5.466-7.636,8.681-17.117,8.619-27.39
				C488.625,492.279,469.153,472.151,445.29,472.293z"/>
			<path style="fill:#FFFFFF;" d="M445.406,490.204c13.328-0.089,24.208,10.661,24.295,23.992
				c0.079,13.333-10.658,24.214-23.996,24.295c-13.331,0.078-24.21-10.662-24.295-23.994
				C421.33,501.164,432.066,490.292,445.406,490.204z"/>
		</g>
	</g>
</g>
</svg>
