<svg xmlns="http://www.w3.org/2000/svg" width="560" height="490" viewBox="0 0 560 490" fill="none">
  <title>Services for your Rails application</title>
  <desc>Six connected service areas: maintenance and support, Ruby and Rails upgrades, performance, feature development, infrastructure, and integrations.</desc>
  <defs>
    <linearGradient id="bg" x1="30" y1="20" x2="530" y2="470" gradientUnits="userSpaceOnUse"><stop stop-color="#F8FBFF"/><stop offset="1" stop-color="#EAF1F9"/></linearGradient>
    <linearGradient id="ruby" x1="256" y1="205" x2="304" y2="249" gradientUnits="userSpaceOnUse"><stop stop-color="#FA766B"/><stop offset="1" stop-color="#C9372D"/></linearGradient>
    <filter id="shadow" x="-30%" y="-30%" width="160%" height="180%"><feDropShadow dx="0" dy="6" stdDeviation="8" flood-color="#193B5E" flood-opacity=".07"/></filter>
  </defs>
  <rect x="14" y="14" width="532" height="462" rx="40" fill="url(#bg)"/>
  <g stroke="#C5D5E6" stroke-width="2" stroke-linecap="round">
    <path d="M145 141L242 219M415 141L318 219M145 349L242 271M415 349L318 271M191 245H227M333 245H369"/>
  </g>
  <circle cx="280" cy="245" r="90" stroke="#D7E2EE" stroke-dasharray="3 8"/>
  <g fill="#FFF" stroke="#DCE4ED" filter="url(#shadow)">
    <rect x="44" y="49" width="202" height="108" rx="18"/>
    <rect x="314" y="49" width="202" height="108" rx="18"/>
    <rect x="25" y="191" width="166" height="108" rx="18"/>
    <rect x="369" y="191" width="166" height="108" rx="18"/>
    <rect x="44" y="333" width="202" height="108" rx="18"/>
    <rect x="314" y="333" width="202" height="108" rx="18"/>
    <circle cx="280" cy="245" r="57"/>
  </g>
  <g fill="#F0F5FB">
    <rect x="62" y="65" width="32" height="32" rx="10"/>
    <rect x="332" y="65" width="32" height="32" rx="10"/>
    <rect x="43" y="207" width="32" height="32" rx="10"/>
    <rect x="387" y="207" width="32" height="32" rx="10"/>
    <rect x="62" y="349" width="32" height="32" rx="10"/>
    <rect x="332" y="349" width="32" height="32" rx="10"/>
  </g>
  <g stroke="#276CB4" stroke-width="1.8" stroke-linecap="round" stroke-linejoin="round">
    <!-- Maintenance shield -->
    <path d="M78 71L86 74V80C86 85 82 89 78 91C74 89 70 85 70 80V74L78 71Z"/><path d="M74 80L77 83L82 77"/>
    <!-- Upgrade arrow -->
    <path d="M348 90V73M342 79L348 73L354 79M340 90H356"/>
    <!-- Performance gauge -->
    <path d="M50 230A10 10 0 1 1 68 230M59 226L65 218M49 225H52M66 225H69"/><circle cx="59" cy="226" r="2"/>
    <!-- Code -->
    <path d="M398 218L393 223L398 228M408 218L413 223L408 228M405 214L401 232"/>
    <!-- Infrastructure -->
    <rect x="69" y="356" width="18" height="7" rx="2"/><rect x="69" y="367" width="18" height="7" rx="2"/><path d="M73 359.5H74M73 370.5H74M80 359.5H83M80 370.5H83"/>
    <!-- Connected systems -->
    <rect x="338" y="356" width="7" height="7" rx="2"/><rect x="351" y="367" width="7" height="7" rx="2"/><path d="M345 359.5H351Q354.5 359.5 354.5 363V367M338 370.5H343Q346.5 370.5 346.5 367V363"/>
  </g>
  <g font-family="Inter, Arial, sans-serif">
    <g fill="#1C2F42" font-size="16" font-weight="600">
      <text x="62" y="121">Maintenance &amp; support</text>
      <text x="332" y="121">Ruby &amp; Rails upgrades</text>
      <text x="43" y="263">Performance</text>
      <text x="387" y="263">Development</text>
      <text x="62" y="405">Infrastructure</text>
      <text x="332" y="405">Integrations</text>
    </g>
    <g fill="#5F6675" font-size="11">
      <text x="62" y="141">Fixes · monitoring · security</text>
      <text x="332" y="141">Versions · gems · compatibility</text>
      <text x="43" y="283">Queries · jobs · reliability</text>
      <text x="387" y="283">Features · web · mobile</text>
      <text x="62" y="425">Cloud · deployments · CI/CD</text>
      <text x="332" y="425">Payments · accounting · AI</text>
    </g>
    <text x="280" y="269" text-anchor="middle" fill="#1C2F42" font-size="15" font-weight="600">Rails</text>
  </g>
  <path d="M260 220L268 209H292L300 220L280 246L260 220Z" fill="url(#ruby)"/>
  <path d="M260 220H300M268 209L274 220L280 246L286 220L292 209M274 220H286" stroke="#FFF" stroke-opacity=".55" stroke-width="1.3" stroke-linejoin="round"/>
  <g fill="#F04338"><circle cx="236" cy="210" r="3"/><circle cx="324" cy="210" r="3"/><circle cx="223" cy="245" r="3"/><circle cx="337" cy="245" r="3"/><circle cx="236" cy="280" r="3"/><circle cx="324" cy="280" r="3"/></g>
</svg>
