<svg xmlns="http://www.w3.org/2000/svg" width="512" height="512" viewBox="0 0 28 28"><g fill="none"><path fill="url(#fluentColorReceipt280)" d="M18 17h7v4.25A3.75 3.75 0 0 1 21.25 25H18z"/><path fill="url(#fluentColorReceipt281)" d="M3 5.75A2.75 2.75 0 0 1 5.75 3h11.5A2.75 2.75 0 0 1 20 5.75V25H6.75A3.75 3.75 0 0 1 3 21.25z"/><path fill="url(#fluentColorReceipt282)" d="M7 8.75A.75.75 0 0 1 7.75 8h7.5a.75.75 0 0 1 0 1.5h-7.5A.75.75 0 0 1 7 8.75"/><path fill="url(#fluentColorReceipt283)" d="M7 13.75a.75.75 0 0 1 .75-.75h7.5a.75.75 0 0 1 0 1.5h-7.5a.75.75 0 0 1-.75-.75"/><path fill="url(#fluentColorReceipt284)" d="M7.75 18a.75.75 0 0 0 0 1.5h3.5a.75.75 0 0 0 0-1.5z"/><defs><linearGradient id="fluentColorReceipt280" x1="25" x2="18.42" y1="20.2" y2="21.862" gradientUnits="userSpaceOnUse"><stop stop-color="#FE8401"/><stop offset="1" stop-color="#CA6407"/></linearGradient><linearGradient id="fluentColorReceipt281" x1="6.091" x2="13.257" y1="3.786" y2="24.928" gradientUnits="userSpaceOnUse"><stop stop-color="#FFE06B"/><stop offset=".645" stop-color="#FFB357"/><stop offset="1" stop-color="#FF921F"/></linearGradient><linearGradient id="fluentColorReceipt282" x1="5.2" x2="16.814" y1="8" y2="18.907" gradientUnits="userSpaceOnUse"><stop stop-color="#FF921F"/><stop offset="1" stop-color="#CA6407"/></linearGradient><linearGradient id="fluentColorReceipt283" x1="5.2" x2="16.814" y1="8" y2="18.907" gradientUnits="userSpaceOnUse"><stop stop-color="#FF921F"/><stop offset="1" stop-color="#CA6407"/></linearGradient><linearGradient id="fluentColorReceipt284" x1="5.2" x2="16.814" y1="8" y2="18.907" gradientUnits="userSpaceOnUse"><stop stop-color="#FF921F"/><stop offset="1" stop-color="#CA6407"/></linearGradient></defs></g></svg>