<?xml version="1.0" encoding="utf-8"?>
<!-- Generator: Adobe Illustrator 27.5.0, SVG Export Plug-In . SVG Version: 6.00 Build 0)  -->
<svg version="1.1" xmlns="http://www.w3.org/2000/svg" xmlns:xlink="http://www.w3.org/1999/xlink" x="0px" y="0px"
	 viewBox="0 0 500 500" style="enable-background:new 0 0 500 500;" xml:space="preserve">
<g id="BACKGROUND">
	<rect style="fill:#353541;" width="500" height="500"/>
</g>
<g id="OBJECTS">
	<g>
		<g>
			<path style="fill:none;stroke:#98CE94;stroke-miterlimit:10;" d="M247.697,291.282h-25.816c-0.966,0-1.749-0.783-1.749-1.749l0,0
				c0-0.966,0.783-1.749,1.749-1.749h25.816c0.966,0,1.749,0.783,1.749,1.749l0,0C249.446,290.499,248.663,291.282,247.697,291.282z
				"/>
			<path style="fill:none;stroke:#98CE94;stroke-miterlimit:10;" d="M282.141,299.999h-56.524c-0.966,0-1.749-0.783-1.749-1.749l0,0
				c0-0.966,0.783-1.749,1.749-1.749h56.524c0.966,0,1.749,0.783,1.749,1.749l0,0C283.89,299.216,283.107,299.999,282.141,299.999z"
				/>
			<path style="fill:none;stroke:#98CE94;stroke-miterlimit:10;" d="M294.594,299.999H288c-0.966,0-1.749-0.783-1.749-1.749l0,0
				c0-0.966,0.783-1.749,1.749-1.749h6.594c0.966,0,1.749,0.783,1.749,1.749l0,0C296.343,299.216,295.56,299.999,294.594,299.999z"
				/>
			<path style="fill:none;stroke:#98CE94;stroke-miterlimit:10;" d="M282.141,317.433h-56.524c-0.966,0-1.749-0.783-1.749-1.749l0,0
				c0-0.966,0.783-1.749,1.749-1.749h56.524c0.966,0,1.749,0.783,1.749,1.749l0,0C283.89,316.65,283.107,317.433,282.141,317.433z"
				/>
			<path style="fill:none;stroke:#98CE94;stroke-miterlimit:10;" d="M294.594,317.433H288c-0.966,0-1.749-0.783-1.749-1.749l0,0
				c0-0.966,0.783-1.749,1.749-1.749h6.594c0.966,0,1.749,0.783,1.749,1.749l0,0C296.343,316.65,295.56,317.433,294.594,317.433z"/>
			<path style="fill:none;stroke:#98CE94;stroke-miterlimit:10;" d="M263.804,291.282h-6.556c-0.966,0-1.749-0.783-1.749-1.749l0,0
				c0-0.966,0.783-1.749,1.749-1.749h6.556c0.966,0,1.749,0.783,1.749,1.749l0,0C265.554,290.499,264.77,291.282,263.804,291.282z"
				/>
			<path style="fill:none;stroke:#98CE94;stroke-miterlimit:10;" d="M247.697,308.716h-25.816c-0.966,0-1.749-0.783-1.749-1.749l0,0
				c0-0.966,0.783-1.749,1.749-1.749h25.816c0.966,0,1.749,0.783,1.749,1.749l0,0C249.446,307.933,248.663,308.716,247.697,308.716z
				"/>
			<path style="fill:none;stroke:#98CE94;stroke-miterlimit:10;" d="M263.804,308.716h-6.556c-0.966,0-1.749-0.783-1.749-1.749l0,0
				c0-0.966,0.783-1.749,1.749-1.749h6.556c0.966,0,1.749,0.783,1.749,1.749l0,0C265.554,307.933,264.77,308.716,263.804,308.716z"
				/>
			<path style="fill:none;stroke:#98CE94;stroke-miterlimit:10;" d="M297.864,308.716h-27.93c-0.776,0-1.405-0.629-1.405-1.405
				v-0.689c0-0.776,0.629-1.405,1.405-1.405h27.93c0.776,0,1.405,0.629,1.405,1.405v0.689
				C299.269,308.087,298.64,308.716,297.864,308.716z"/>
			<path style="fill:none;stroke:#98CE94;stroke-miterlimit:10;" d="M247.697,326.151h-25.816c-0.966,0-1.749-0.783-1.749-1.749l0,0
				c0-0.966,0.783-1.749,1.749-1.749h25.816c0.966,0,1.749,0.783,1.749,1.749l0,0C249.446,325.367,248.663,326.151,247.697,326.151z
				"/>
			<path style="fill:none;stroke:#98CE94;stroke-miterlimit:10;" d="M263.804,326.151h-6.556c-0.966,0-1.749-0.783-1.749-1.749l0,0
				c0-0.966,0.783-1.749,1.749-1.749h6.556c0.966,0,1.749,0.783,1.749,1.749l0,0C265.554,325.367,264.77,326.151,263.804,326.151z"
				/>
			<path style="fill:none;stroke:#98CE94;stroke-miterlimit:10;" d="M297.864,326.151h-27.93c-0.776,0-1.405-0.629-1.405-1.405
				v-0.689c0-0.776,0.629-1.405,1.405-1.405h27.93c0.776,0,1.405,0.629,1.405,1.405v0.689
				C299.269,325.522,298.64,326.151,297.864,326.151z"/>
			<g>
				<g>
					<polygon style="fill:none;stroke:#98CE94;stroke-miterlimit:10;" points="314.707,195.58 314.707,337.256 209.558,337.256 
						209.558,169.135 294.016,169.135 					"/>
					<polygon style="fill:none;stroke:#98CE94;stroke-linejoin:round;stroke-miterlimit:10;" points="314.707,195.58 
						294.016,195.58 294.016,169.135 					"/>
				</g>
				
					<text transform="matrix(1 0 0 1 222.8148 224.0552)" style="fill:none;stroke:#98CE94;stroke-miterlimit:10; font-family:'Baloo'; font-size:34.1754px;">C S M</text>
				<path style="fill:none;stroke:#98CE94;stroke-miterlimit:10;" d="M297.864,291.282h-27.93c-0.776,0-1.405-0.629-1.405-1.405
					v-0.689c0-0.776,0.629-1.405,1.405-1.405h27.93c0.776,0,1.405,0.629,1.405,1.405v0.689
					C299.269,290.653,298.64,291.282,297.864,291.282z"/>
				<path style="fill:none;stroke:#98CE94;stroke-miterlimit:10;" d="M293.516,276.549H222.94c-0.496,0-0.899-0.402-0.899-0.899
					v-38.05c0-0.496,0.402-0.899,0.899-0.899h70.576c0.496,0,0.899,0.402,0.899,0.899v38.05
					C294.415,276.147,294.013,276.549,293.516,276.549z"/>
			</g>
		</g>
		<polyline style="fill:none;stroke:#98CE94;stroke-miterlimit:10;" points="291.297,169.135 291.297,163.036 193.003,163.036 
			193.003,331.156 209.558,331.156 		"/>
	</g>
	<g>
		<g>
			<path style="opacity:0.1;fill:#98CE94;" d="M407.56,67.685h-61.44c-4.987,0-9.03-4.043-9.03-9.03l0,0
				c0-4.987,4.043-9.03,9.03-9.03h61.44c4.987,0,9.03,4.043,9.03,9.03l0,0C416.59,63.642,412.547,67.685,407.56,67.685z"/>
			<path style="opacity:0.1;fill:#98CE94;" d="M453.3,195.88l7.241-6.608c0.529-0.483,0.567-1.303,0.084-1.832
				c-0.483-0.53-1.305-0.566-1.832-0.084l-7.417,6.768l-7.417-6.768c-0.527-0.483-1.349-0.446-1.832,0.084
				c-0.482,0.529-0.445,1.35,0.085,1.832l7.241,6.608l-7.241,6.608c-0.53,0.483-0.567,1.303-0.085,1.833
				c0.256,0.28,0.607,0.423,0.958,0.423c0.312,0,0.626-0.112,0.874-0.339l7.417-6.768l7.417,6.768
				c0.248,0.227,0.561,0.339,0.874,0.339c0.351,0,0.703-0.142,0.958-0.423c0.482-0.529,0.445-1.35-0.084-1.833L453.3,195.88z"/>
			<path style="opacity:0.1;fill:#98CE94;" d="M194.24,30.77l6.833-6.236c0.5-0.455,0.535-1.23,0.08-1.729
				c-0.456-0.5-1.231-0.534-1.729-0.079l-6.999,6.387l-6.999-6.387c-0.497-0.455-1.273-0.421-1.729,0.079
				c-0.455,0.499-0.42,1.274,0.08,1.729l6.833,6.236l-6.833,6.236c-0.5,0.455-0.535,1.23-0.08,1.729
				c0.242,0.265,0.573,0.399,0.904,0.399c0.295,0,0.59-0.105,0.825-0.32l6.999-6.387l6.999,6.387c0.234,0.214,0.53,0.32,0.825,0.32
				c0.331,0,0.663-0.134,0.904-0.399c0.455-0.499,0.42-1.274-0.08-1.729L194.24,30.77z"/>
			<path style="opacity:0.1;fill:#98CE94;" d="M160.47,477.687l6.738-6.149c0.493-0.449,0.527-1.213,0.078-1.705
				c-0.449-0.493-1.214-0.526-1.705-0.078l-6.902,6.298l-6.901-6.298c-0.49-0.449-1.256-0.415-1.705,0.078
				c-0.449,0.492-0.414,1.256,0.079,1.705l6.738,6.149l-6.738,6.149c-0.493,0.449-0.527,1.213-0.079,1.705
				c0.238,0.261,0.565,0.393,0.892,0.393c0.291,0,0.582-0.104,0.813-0.315l6.901-6.298l6.902,6.298
				c0.231,0.211,0.523,0.315,0.813,0.315c0.327,0,0.654-0.132,0.892-0.393c0.449-0.492,0.414-1.256-0.078-1.705L160.47,477.687z"/>
			<path style="opacity:0.1;fill:#98CE94;" d="M101.203,469.687H27.65c-2.903,0-5.256-2.353-5.256-5.256l0,0
				c0-2.903,2.353-5.256,5.256-5.256h73.553c2.903,0,5.256,2.353,5.256,5.256l0,0C106.459,467.334,104.106,469.687,101.203,469.687z
				"/>
		</g>
		
			<circle style="opacity:0.1;fill:none;stroke:#98CE94;stroke-width:31;stroke-miterlimit:10;" cx="247.76" cy="254.489" r="181.182"/>
		<g>
			<defs>
				<rect id="SVGID_1_" width="500" height="500"/>
			</defs>
			<clipPath id="SVGID_00000115476452431811604780000007732890390309721279_">
				<use xlink:href="#SVGID_1_"  style="overflow:visible;"/>
			</clipPath>
			<g style="clip-path:url(#SVGID_00000115476452431811604780000007732890390309721279_);">
				<g style="opacity:0.1;">
					<g>
						<polygon style="fill:none;stroke:#98CE94;stroke-miterlimit:10;" points="12.004,20.593 -13.57,20.593 -26.357,42.741 
							-13.57,64.888 12.004,64.888 24.791,42.741 						"/>
						<polygon style="fill:none;stroke:#98CE94;stroke-miterlimit:10;" points="50.376,-1.535 24.802,-1.535 12.015,20.613 
							24.802,42.76 50.376,42.76 63.163,20.613 						"/>
						<polygon style="fill:none;stroke:#98CE94;stroke-miterlimit:10;" points="12.027,-23.711 -13.547,-23.711 -26.333,-1.563 
							-13.547,20.584 12.027,20.584 24.814,-1.563 						"/>
					</g>
					<g>
						<polygon style="fill:none;stroke:#98CE94;stroke-miterlimit:10;" points="50.376,87.064 24.802,87.064 12.015,109.212 
							24.802,131.359 50.376,131.359 63.163,109.212 						"/>
						<polygon style="fill:none;stroke:#98CE94;stroke-miterlimit:10;" points="88.748,64.936 63.174,64.936 50.387,87.083 
							63.174,109.231 88.748,109.231 101.535,87.083 						"/>
						<polygon style="fill:none;stroke:#98CE94;stroke-miterlimit:10;" points="50.399,42.76 24.826,42.76 12.039,64.908 
							24.826,87.055 50.399,87.055 63.187,64.908 						"/>
					</g>
					<g>
						<polygon style="fill:none;stroke:#98CE94;stroke-miterlimit:10;" points="88.748,20.617 63.174,20.617 50.387,42.765 
							63.174,64.912 88.748,64.912 101.535,42.765 						"/>
						<polygon style="fill:none;stroke:#98CE94;stroke-miterlimit:10;" points="127.12,-1.511 101.546,-1.511 88.759,20.636 
							101.546,42.784 127.12,42.784 139.907,20.636 						"/>
						<polygon style="fill:none;stroke:#98CE94;stroke-miterlimit:10;" points="88.772,-23.687 63.198,-23.687 50.411,-1.539 
							63.198,20.608 88.772,20.608 101.559,-1.539 						"/>
					</g>
				</g>
				<g style="opacity:0.1;">
					<g>
						<polygon style="fill:none;stroke:#98CE94;stroke-miterlimit:10;" points="436.079,442.042 413.346,432.2 393.457,446.966 
							396.299,471.573 419.032,481.415 438.921,466.65 						"/>
						<polygon style="fill:none;stroke:#98CE94;stroke-miterlimit:10;" points="478.703,437.139 455.971,427.297 436.081,442.063 
							438.924,466.671 461.656,476.513 481.546,461.747 						"/>
						<polygon style="fill:none;stroke:#98CE94;stroke-miterlimit:10;" points="453.15,402.669 430.418,392.827 410.528,407.593 
							413.371,432.201 436.103,442.043 455.993,427.277 						"/>
					</g>
					<g>
						<polygon style="fill:none;stroke:#98CE94;stroke-miterlimit:10;" points="444.606,515.894 421.874,506.052 401.984,520.818 
							404.827,545.426 427.56,555.268 447.449,540.502 						"/>
						<polygon style="fill:none;stroke:#98CE94;stroke-miterlimit:10;" points="487.231,510.992 464.499,501.15 444.609,515.916 
							447.452,540.524 470.184,550.366 490.074,535.6 						"/>
						<polygon style="fill:none;stroke:#98CE94;stroke-miterlimit:10;" points="461.678,476.522 438.945,466.68 419.056,481.446 
							421.898,506.054 444.631,515.896 464.521,501.13 						"/>
					</g>
					<g>
						<polygon style="fill:none;stroke:#98CE94;stroke-miterlimit:10;" points="504.287,471.597 481.554,461.755 461.665,476.521 
							464.508,501.129 487.24,510.971 507.13,496.205 						"/>
						<polygon style="fill:none;stroke:#98CE94;stroke-miterlimit:10;" points="546.911,466.695 524.179,456.853 504.289,471.619 
							507.132,496.227 529.865,506.069 549.754,491.303 						"/>
						<polygon style="fill:none;stroke:#98CE94;stroke-miterlimit:10;" points="521.358,432.225 498.626,422.383 478.736,437.149 
							481.579,461.757 504.311,471.599 524.201,456.833 						"/>
					</g>
				</g>
			</g>
		</g>
	</g>
	<g>
		<g>
			<g>
				<g>
					<g>
						<g>
							<path style="fill:none;stroke:#98CE94;stroke-miterlimit:10;" d="M119.02,148.993c-0.281-1.584-0.766-3.097-1.422-4.524
								l2.285-3.881c-1.187-1.964-2.67-3.736-4.393-5.251l-4.223,1.564c-1.288-0.897-2.693-1.642-4.202-2.198l-1.123-4.361
								c-1.099-0.268-2.233-0.457-3.388-0.56c-1.162-0.103-2.304-0.116-3.433-0.047l-1.875,4.094
								c-1.584,0.281-3.104,0.766-4.531,1.422l-3.874-2.285c-1.964,1.187-3.736,2.67-5.251,4.393l1.564,4.223
								c-0.897,1.288-1.642,2.693-2.198,4.202l-4.362,1.13c-0.267,1.093-0.457,2.226-0.559,3.381
								c-0.103,1.162-0.116,2.304-0.047,3.433l4.094,1.875c0.281,1.584,0.766,3.104,1.422,4.531l-2.285,3.874
								c1.187,1.964,2.67,3.736,4.393,5.251l4.216-1.565c1.288,0.897,2.699,1.642,4.209,2.199l1.123,4.361
								c1.099,0.268,2.226,0.457,3.388,0.56c1.155,0.103,2.304,0.116,3.433,0.047l1.875-4.094c1.584-0.281,3.097-0.766,4.524-1.422
								l3.881,2.285c1.964-1.187,3.736-2.67,5.251-4.393l-1.565-4.217c0.897-1.288,1.642-2.699,2.199-4.209l4.361-1.123
								c0.268-1.099,0.457-2.226,0.56-3.388c0.103-1.155,0.116-2.304,0.046-3.427L119.02,148.993z M116.47,153.715
								c-0.782,8.793-8.54,15.285-17.334,14.503c-8.793-0.782-15.285-8.541-14.503-17.334c0.782-8.793,8.54-15.285,17.334-14.503
								C110.76,137.164,117.252,144.922,116.47,153.715z"/>
						</g>
					</g>
				</g>
				<g>
					<g>
						<g>
							<path style="fill:none;stroke:#98CE94;stroke-width:0.75;stroke-miterlimit:10;" d="M87.038,178.408
								c-0.162-0.933-0.45-1.83-0.838-2.675l1.348-2.297c-0.7-1.158-1.58-2.21-2.596-3.11l-2.499,0.928
								c-0.763-0.531-1.595-0.972-2.485-1.296l-0.669-2.585c-0.653-0.16-1.317-0.267-2.006-0.328
								c-0.682-0.061-1.362-0.073-2.026-0.03l-1.114,2.426c-0.94,0.162-1.837,0.449-2.681,0.837l-2.296-1.355
								c-1.159,0.707-2.204,1.588-3.104,2.603L67,174.026c-0.537,0.762-0.972,1.595-1.303,2.484l-2.585,0.669
								c-0.153,0.653-0.267,1.317-0.328,2.006c-0.061,0.682-0.067,1.362-0.03,2.026l2.426,1.114
								c0.169,0.934,0.449,1.837,0.844,2.682l-1.354,2.296c0.707,1.159,1.581,2.203,2.597,3.104l2.499-0.928
								c0.762,0.538,1.595,0.972,2.491,1.304l0.669,2.578c0.646,0.16,1.317,0.274,1.999,0.334c0.689,0.061,1.362,0.067,2.033,0.024
								l1.114-2.42c0.934-0.169,1.83-0.45,2.675-0.845l2.296,1.355c1.159-0.707,2.21-1.58,3.103-2.597l-0.921-2.498
								c0.531-0.763,0.973-1.602,1.297-2.492l2.585-0.669c0.16-0.646,0.267-1.317,0.327-1.999c0.061-0.689,0.073-1.362,0.031-2.033
								L87.038,178.408z M85.53,181.208c-0.462,5.2-5.052,9.047-10.259,8.584c-5.2-0.462-9.046-5.059-8.584-10.259
								c0.463-5.207,5.059-9.046,10.259-8.584C82.153,171.412,85.993,176.001,85.53,181.208z"/>
						</g>
					</g>
				</g>
			</g>
		</g>
		<g>
			<circle style="fill:none;stroke:#98CE94;stroke-width:3;stroke-miterlimit:10;" cx="92.944" cy="161.72" r="47.761"/>
			<g>
				
					<line style="fill:none;stroke:#98CE94;stroke-width:2;stroke-miterlimit:10;" x1="133.709" y1="185.476" x2="182.738" y2="209.816"/>
				<path style="fill:#98CE94;" d="M184.248,207.559c0,3.143-2.548,5.69-5.69,5.69s-5.69-2.548-5.69-5.69
					c0-3.143,2.548-5.69,5.69-5.69S184.248,204.417,184.248,207.559z"/>
			</g>
		</g>
	</g>
	<g>
		<path style="fill:none;stroke:#98CE94;stroke-miterlimit:10;" d="M431.099,137.174c-0.231-0.175-0.478-0.351-0.717-0.526
			c-3.333-2.384-7.152-4.138-11.273-5.095c-0.638-0.144-1.284-0.271-1.93-0.375c-1.69-0.287-3.428-0.431-5.198-0.431
			c-1.642,0-3.245,0.128-4.824,0.367c-0.638,0.096-1.268,0.215-1.898,0.351c-4.345,0.941-8.355,2.775-11.839,5.302
			c-0.247,0.175-0.486,0.351-0.725,0.542c-7.542,5.796-12.406,14.901-12.406,25.13c0,10.532,5.166,19.884,13.099,25.64
			c0.12,0.096,0.247,0.183,0.367,0.271c0.12,0.08,0.231,0.167,0.351,0.247c3.277,2.24,6.984,3.891,10.978,4.776
			c0.55,0.128,1.108,0.231,1.674,0.327c1.698,0.287,3.444,0.43,5.222,0.43c1.897,0,3.763-0.167,5.573-0.486
			c0.574-0.104,1.14-0.223,1.706-0.359c4.329-1.02,8.316-2.926,11.752-5.517c0.112-0.088,0.231-0.175,0.343-0.263
			c0.128-0.096,0.247-0.191,0.367-0.295c7.279-5.812,11.951-14.758,11.951-24.771C443.672,152.139,438.737,142.97,431.099,137.174z
			 M442.863,162.038h-9.788c-0.033-0.803-0.081-1.606-0.165-2.412c-0.853-8.172-3.038-14.957-6.546-20.307
			c1.347-0.502,2.663-1.076,3.947-1.73C437.831,143.143,442.734,152.022,442.863,162.038z M425.619,185.029
			c-2.881-0.798-5.995-1.376-9.349-1.725c-1.3-0.135-2.597-0.196-3.888-0.198v-20.271h19.917
			C432.457,170.823,430.061,178.556,425.619,185.029z M398.951,185.514c-4.648-6.574-7.173-14.495-7.009-22.679h19.643v20.277
			C407.229,183.196,402.965,184.025,398.951,185.514z M391.968,162.038c0.032-0.776,0.079-1.553,0.16-2.333
			c0.845-8.124,3.03-14.845,6.53-20.123c3.133,0.933,6.554,1.595,10.261,1.985c0.891,0.091,1.779,0.142,2.666,0.173v20.298H391.968z
			 M412.382,162.038v-20.276c0.164,0.002,0.328,0.013,0.491,0.013c4.377,0,8.666-0.749,12.717-2.169
			c3.5,5.278,5.677,11.991,6.522,20.099c0.081,0.779,0.128,1.557,0.16,2.333H412.382z M429.576,137.062
			c-1.188,0.59-2.416,1.116-3.667,1.571c-1.523-2.208-3.277-4.162-5.27-5.852C423.868,133.73,426.882,135.181,429.576,137.062z
			 M418.749,132.295c2.456,1.842,4.576,4.058,6.378,6.625c-4.061,1.396-8.365,2.092-12.745,2.034v-9.398
			C414.562,131.584,416.699,131.829,418.749,132.295z M411.585,131.556v9.382c-0.86-0.03-1.722-0.078-2.586-0.168
			c-3.564-0.367-6.857-0.997-9.87-1.882c1.826-2.599,3.986-4.832,6.474-6.681C407.534,131.803,409.539,131.582,411.585,131.556z
			 M403.753,132.662c-2.049,1.714-3.859,3.715-5.429,5.98c-1.411-0.439-2.767-0.941-4.05-1.499
			C397.119,135.141,400.316,133.61,403.753,132.662z M393.516,137.684c1.371,0.622,2.822,1.172,4.345,1.658
			c-3.492,5.35-5.677,12.126-6.53,20.283c-0.084,0.806-0.133,1.61-0.165,2.412h-10.068
			C381.227,152.085,386.074,143.246,393.516,137.684z M381.098,162.835h10.041c-0.163,8.279,2.379,16.298,7.05,22.968
			c-1.373,0.542-2.716,1.16-4.02,1.855C386.362,182.132,381.229,173.069,381.098,162.835z M394.911,188.168
			c1.221-0.634,2.475-1.2,3.755-1.698c1.501,2.069,3.216,3.998,5.118,5.764C400.587,191.349,397.598,189.969,394.911,188.168z
			 M405.451,192.64c-2.264-1.936-4.271-4.11-6.012-6.457c3.865-1.407,7.962-2.188,12.146-2.27v9.409
			C409.484,193.297,407.431,193.068,405.451,192.64z M412.382,193.323v-9.416c1.264,0.002,2.534,0.063,3.808,0.195
			c3.198,0.331,6.176,0.876,8.937,1.623c-1.783,2.493-3.869,4.799-6.242,6.836C416.787,193.034,414.615,193.294,412.382,193.323z
			 M420.575,192.114c2.018-1.866,3.811-3.939,5.375-6.154c1.459,0.424,2.861,0.901,4.192,1.442
			C427.288,189.491,424.051,191.102,420.575,192.114z M430.884,186.844c-1.411-0.595-2.9-1.117-4.452-1.577
			c4.432-6.567,6.83-14.372,6.671-22.432h9.761C442.739,172.592,438.073,181.275,430.884,186.844z"/>
		<g>
			<circle style="fill:none;stroke:#98CE94;stroke-width:3;stroke-miterlimit:10;" cx="411.981" cy="162.44" r="47.761"/>
			<g>
				
					<line style="fill:none;stroke:#98CE94;stroke-width:2;stroke-miterlimit:10;" x1="370.954" y1="186.906" x2="324.744" y2="209.847"/>
				<circle style="fill:#98CE94;" cx="329.255" cy="207.959" r="5.69"/>
			</g>
		</g>
	</g>
	<g>
		<g>
			
				<ellipse transform="matrix(0.9739 -0.2268 0.2268 0.9739 -63.1005 101.6254)" style="fill:none;stroke:#98CE94;stroke-width:3;stroke-miterlimit:10;" cx="410.758" cy="325.448" rx="47.761" ry="47.761"/>
			<g>
				
					<line style="fill:none;stroke:#98CE94;stroke-width:2;stroke-miterlimit:10;" x1="365.03" y1="311.622" x2="324.106" y2="299.194"/>
				<circle style="fill:#98CE94;" cx="329.292" cy="300.232" r="5.69"/>
			</g>
		</g>
		<g>
			<g>
				<g>
					<g>
						<circle style="fill:none;stroke:#98CE94;stroke-miterlimit:10;" cx="394.525" cy="299.582" r="10.879"/>
					</g>
					<path style="fill:none;stroke:#98CE94;stroke-miterlimit:10;" d="M397.233,300.644c-0.306-0.132-0.628-0.234-0.956-0.321
						c0.8-0.555,1.325-1.479,1.325-2.527c0-1.699-1.377-3.076-3.076-3.076s-3.076,1.377-3.076,3.076
						c0,1.048,0.526,1.973,1.326,2.528c-0.327,0.086-0.647,0.188-0.954,0.32c-1.685,0.719-3.017,2.091-3.691,3.8h12.788
						C400.245,302.735,398.913,301.362,397.233,300.644z"/>
				</g>
				<g>
					<g>
						<circle style="fill:none;stroke:#98CE94;stroke-miterlimit:10;" cx="394.525" cy="325.448" r="10.879"/>
					</g>
					<path style="fill:none;stroke:#98CE94;stroke-miterlimit:10;" d="M397.233,326.509c-0.306-0.132-0.628-0.234-0.956-0.321
						c0.8-0.555,1.325-1.479,1.325-2.527c0-1.699-1.377-3.076-3.076-3.076s-3.076,1.377-3.076,3.076
						c0,1.048,0.526,1.973,1.326,2.528c-0.327,0.086-0.647,0.188-0.954,0.32c-1.685,0.719-3.017,2.091-3.691,3.8h12.788
						C400.245,328.6,398.913,327.228,397.233,326.509z"/>
				</g>
				<g>
					<g>
						
							<ellipse transform="matrix(0.1119 -0.9937 0.9937 0.1119 1.2849 704.0643)" style="fill:none;stroke:#98CE94;stroke-miterlimit:10;" cx="394.525" cy="351.313" rx="10.879" ry="10.879"/>
					</g>
					<path style="fill:none;stroke:#98CE94;stroke-miterlimit:10;" d="M397.233,352.375c-0.306-0.132-0.628-0.234-0.956-0.321
						c0.8-0.555,1.325-1.479,1.325-2.527c0-1.699-1.377-3.076-3.076-3.076s-3.076,1.377-3.076,3.076
						c0,1.048,0.526,1.973,1.326,2.528c-0.327,0.086-0.647,0.188-0.954,0.32c-1.685,0.718-3.017,2.091-3.691,3.8h12.788
						C400.245,354.466,398.913,353.093,397.233,352.375z"/>
				</g>
				<g>
					<path style="fill:none;stroke:#98CE94;stroke-miterlimit:10;" d="M433.619,305.36h-18.292c-2.348,0-4.252-1.904-4.252-4.252
						v-3.052c0-2.348,1.903-4.251,4.251-4.251h18.292c2.348,0,4.252,1.903,4.252,4.251v3.052
						C437.871,303.456,435.967,305.36,433.619,305.36z"/>
					<g>
						<path style="fill:none;stroke:#98CE94;stroke-miterlimit:10;" d="M429.169,298.028h-14.87c-0.362,0-0.655-0.293-0.655-0.655
							v-0.423c0-0.362,0.293-0.655,0.655-0.655h14.87c0.362,0,0.655,0.293,0.655,0.655v0.423
							C429.824,297.735,429.531,298.028,429.169,298.028z"/>
						<path style="fill:none;stroke:#98CE94;stroke-miterlimit:10;" d="M434.333,298.028h-1.822c-0.362,0-0.655-0.293-0.655-0.655
							v-0.423c0-0.362,0.293-0.655,0.655-0.655h1.822c0.362,0,0.655,0.293,0.655,0.655v0.423
							C434.988,297.735,434.695,298.028,434.333,298.028z"/>
						<path style="fill:none;stroke:#98CE94;stroke-miterlimit:10;" d="M434.333,301.315h-14.87c-0.362,0-0.655-0.293-0.655-0.655
							v-0.423c0-0.362,0.293-0.655,0.655-0.655h14.87c0.362,0,0.655,0.293,0.655,0.655v0.423
							C434.988,301.021,434.695,301.315,434.333,301.315z"/>
						<path style="fill:none;stroke:#98CE94;stroke-miterlimit:10;" d="M416.432,301.315h-2.133c-0.362,0-0.655-0.293-0.655-0.655
							v-0.423c0-0.362,0.293-0.655,0.655-0.655h2.133c0.362,0,0.655,0.293,0.655,0.655v0.423
							C417.087,301.021,416.794,301.315,416.432,301.315z"/>
					</g>
				</g>
				<g>
					<path style="fill:none;stroke:#98CE94;stroke-miterlimit:10;" d="M433.619,331.225h-18.292c-2.348,0-4.252-1.904-4.252-4.252
						v-3.052c0-2.348,1.903-4.251,4.251-4.251h18.292c2.348,0,4.252,1.903,4.252,4.251v3.052
						C437.871,329.322,435.967,331.225,433.619,331.225z"/>
					<g>
						<path style="fill:none;stroke:#98CE94;stroke-miterlimit:10;" d="M429.169,323.894h-14.87c-0.362,0-0.655-0.293-0.655-0.655
							v-0.423c0-0.362,0.293-0.655,0.655-0.655h14.87c0.362,0,0.655,0.293,0.655,0.655v0.423
							C429.824,323.6,429.531,323.894,429.169,323.894z"/>
						<path style="fill:none;stroke:#98CE94;stroke-miterlimit:10;" d="M434.333,323.894h-1.822c-0.362,0-0.655-0.293-0.655-0.655
							v-0.423c0-0.362,0.293-0.655,0.655-0.655h1.822c0.362,0,0.655,0.293,0.655,0.655v0.423
							C434.988,323.6,434.695,323.894,434.333,323.894z"/>
						<path style="fill:none;stroke:#98CE94;stroke-miterlimit:10;" d="M434.333,327.18h-14.87c-0.362,0-0.655-0.293-0.655-0.655
							v-0.423c0-0.362,0.293-0.655,0.655-0.655h14.87c0.362,0,0.655,0.293,0.655,0.655v0.423
							C434.988,326.887,434.695,327.18,434.333,327.18z"/>
						<path style="fill:none;stroke:#98CE94;stroke-miterlimit:10;" d="M416.432,327.18h-2.133c-0.362,0-0.655-0.293-0.655-0.655
							v-0.423c0-0.362,0.293-0.655,0.655-0.655h2.133c0.362,0,0.655,0.293,0.655,0.655v0.423
							C417.087,326.887,416.794,327.18,416.432,327.18z"/>
					</g>
				</g>
				<g>
					<path style="fill:none;stroke:#98CE94;stroke-miterlimit:10;" d="M433.619,357.091h-18.292c-2.348,0-4.251-1.903-4.251-4.251
						v-3.052c0-2.348,1.904-4.252,4.252-4.252h18.292c2.348,0,4.252,1.904,4.252,4.252v3.052
						C437.871,355.188,435.967,357.091,433.619,357.091z"/>
					<g>
						<path style="fill:none;stroke:#98CE94;stroke-miterlimit:10;" d="M429.169,349.759h-14.87c-0.362,0-0.655-0.293-0.655-0.655
							v-0.423c0-0.362,0.293-0.655,0.655-0.655h14.87c0.362,0,0.655,0.293,0.655,0.655v0.423
							C429.824,349.466,429.531,349.759,429.169,349.759z"/>
						<path style="fill:none;stroke:#98CE94;stroke-miterlimit:10;" d="M434.333,349.759h-1.822c-0.362,0-0.655-0.293-0.655-0.655
							v-0.423c0-0.362,0.293-0.655,0.655-0.655h1.822c0.362,0,0.655,0.293,0.655,0.655v0.423
							C434.988,349.466,434.695,349.759,434.333,349.759z"/>
						<path style="fill:none;stroke:#98CE94;stroke-miterlimit:10;" d="M434.333,353.046h-14.87c-0.362,0-0.655-0.293-0.655-0.655
							v-0.423c0-0.362,0.293-0.655,0.655-0.655h14.87c0.362,0,0.655,0.293,0.655,0.655v0.423
							C434.988,352.753,434.695,353.046,434.333,353.046z"/>
						<path style="fill:none;stroke:#98CE94;stroke-miterlimit:10;" d="M416.432,353.046h-2.133c-0.362,0-0.655-0.293-0.655-0.655
							v-0.423c0-0.362,0.293-0.655,0.655-0.655h2.133c0.362,0,0.655,0.293,0.655,0.655v0.423
							C417.087,352.753,416.794,353.046,416.432,353.046z"/>
					</g>
				</g>
			</g>
		</g>
	</g>
	<g>
		<g>
			
				<ellipse transform="matrix(0.7071 -0.7071 0.7071 0.7071 -202.9082 156.965)" style="fill:none;stroke:#98CE94;stroke-width:3;stroke-miterlimit:10;" cx="88.019" cy="323.414" rx="47.761" ry="47.761"/>
			<g>
				
					<line style="fill:none;stroke:#98CE94;stroke-width:2;stroke-miterlimit:10;" x1="133.709" y1="314.531" x2="183.604" y2="299.378"/>
				<circle style="fill:#98CE94;" cx="178.418" cy="300.416" r="5.69"/>
			</g>
		</g>
		<path style="fill:none;stroke:#98CE94;stroke-miterlimit:10;" d="M58.497,341.492l33.764-26.627
			c-1.461-5.251,0.248-11.092,4.786-14.681c4.045-3.184,9.296-3.769,13.755-2.004l-10.131,7.989l5.036,6.393l3.609,4.571
			l10.131-7.989c0.68,4.753-1.12,9.724-5.157,12.901c-4.546,3.589-10.621,3.885-15.386,1.245L65.14,349.916
			c-1.132,0.896-2.513,1.26-3.844,1.13c-1.248-0.122-2.461-0.679-3.372-1.659c-0.112-0.111-0.215-0.236-0.318-0.362
			C55.767,346.702,56.166,343.33,58.497,341.492z"/>
	</g>
	<g>
		<g>
			<circle style="fill:none;stroke:#98CE94;stroke-width:3;stroke-miterlimit:10;" cx="253.956" cy="421.615" r="47.761"/>
			<g>
				
					<line style="fill:none;stroke:#98CE94;stroke-width:2;stroke-miterlimit:10;" x1="253.956" y1="373.854" x2="253.956" y2="345.647"/>
				<path style="fill:#98CE94;" d="M259.647,351.337c0,3.143-2.548,5.69-5.69,5.69c-3.143,0-5.69-2.548-5.69-5.69
					c0-3.143,2.548-5.69,5.69-5.69C257.099,345.647,259.647,348.195,259.647,351.337z"/>
			</g>
		</g>
		<g>
			<g>
				<g>
					<g>
						<path style="fill:none;stroke:#98CE94;stroke-miterlimit:10;" d="M280.84,400.725l6.983,24.424
							c0.632,2.211-0.654,4.526-2.877,5.162l-52.7,15.067c-2.224,0.636-4.539-0.65-5.171-2.861l-6.983-24.424
							c-0.371-1.297-0.091-2.623,0.663-3.641c0.527-0.709,1.284-1.269,2.21-1.534l52.7-15.067c0.927-0.265,1.865-0.189,2.687,0.134
							C279.531,398.45,280.469,399.428,280.84,400.725z"/>
					</g>
				</g>
				<polyline style="fill:none;stroke:#98CE94;stroke-miterlimit:10;" points="220.755,414.453 253.956,421.615 278.352,397.985 
									"/>
			</g>
		</g>
	</g>
	<g>
		<g>
			<circle style="fill:none;stroke:#98CE94;stroke-width:3;stroke-miterlimit:10;" cx="252.303" cy="78.385" r="47.761"/>
			<g>
				
					<line style="fill:none;stroke:#98CE94;stroke-width:2;stroke-miterlimit:10;" x1="252.303" y1="125.6" x2="252.303" y2="151.902"/>
				<path style="fill:#98CE94;" d="M257.993,148.954c0,3.143-2.548,5.69-5.69,5.69c-3.143,0-5.69-2.548-5.69-5.69
					c0-3.143,2.548-5.69,5.69-5.69C255.445,143.264,257.993,145.812,257.993,148.954z"/>
			</g>
		</g>
		<g>
			<path style="fill:none;stroke:#98CE94;stroke-miterlimit:10;" d="M278.732,57.796h-52.859c-1.985,0-3.593-1.609-3.593-3.593l0,0
				c0-1.985,1.609-3.593,3.593-3.593h52.859c1.985,0,3.594,1.609,3.594,3.593l0,0C282.326,56.188,280.717,57.796,278.732,57.796z"/>
			<g>
				<g>
					<path style="fill:none;stroke:#98CE94;stroke-miterlimit:10;" d="M256.02,66.416c5.92,3.668,7.746,11.44,4.079,17.361
						c-3.668,5.92-11.44,7.746-17.36,4.079c-5.92-3.668-7.747-11.44-4.079-17.36C242.328,64.575,250.1,62.748,256.02,66.416z"/>
					<path style="fill:none;stroke:#98CE94;stroke-miterlimit:10;" d="M267.256,106.007L267.256,106.007
						c-0.554,0.318-1.26,0.126-1.578-0.428l-9.937-17.341l2.006-1.15l9.937,17.341C268.002,104.983,267.81,105.689,267.256,106.007z
						"/>
				</g>
				<path style="fill:none;stroke:#98CE94;stroke-miterlimit:10;" d="M255.07,82.978c0.414-0.348,3.08-2.669,3.096-6.402
					c0.013-3.25-1.989-6.286-5.112-7.758"/>
			</g>
		</g>
	</g>
</g>
</svg>
